<svg width="242" height="241" viewBox="0 0 242 241" fill="none" xmlns="http://www.w3.org/2000/svg">
<ellipse cx="121" cy="120.5" rx="85.1628" ry="84.9063" fill="#F7F4EB"/>
<g clip-path="url(#clip0_166_2)">
<path d="M150.215 109.411C152.69 111.08 154.873 113.141 156.676 115.512C158.491 117.893 159.959 120.517 161.035 123.306C162.197 126.309 163.057 129.523 163.095 132.756C163.131 135.794 162.254 138.852 160.2 141.146C159.198 142.269 157.561 143.567 156.006 142.69C155.681 142.474 155.387 142.215 155.131 141.921C155.073 141.865 155.015 141.808 154.954 141.755C155.094 141.878 154.89 141.716 154.856 141.694C154.822 141.672 154.733 141.615 154.668 141.578C154.646 141.566 154.526 141.503 154.621 141.552C154.715 141.601 154.546 141.52 154.542 141.519C154.406 141.464 154.265 141.418 154.123 141.381L153.997 141.351C153.983 141.354 153.876 141.326 153.974 141.345C154.071 141.365 153.944 141.341 153.917 141.338L153.757 141.315C153.428 141.28 153.096 141.268 152.766 141.279L152.298 141.302C152.143 141.313 152.286 141.305 152.314 141.299L152.183 141.31L151.921 141.335C151.502 141.373 151.043 141.18 150.964 140.72C150.899 140.332 151.135 139.811 151.584 139.77C152.973 139.638 154.517 139.535 155.736 140.341C156.035 140.558 156.312 140.804 156.564 141.074C156.622 141.131 156.678 141.188 156.739 141.243C156.626 141.141 156.781 141.268 156.826 141.297C156.87 141.326 156.972 141.371 156.883 141.332C156.794 141.293 156.902 141.328 156.914 141.34C156.956 141.351 156.998 141.366 157.043 141.376C156.973 141.358 156.946 141.364 157.031 141.364L157.161 141.367C157.132 141.374 156.995 141.403 157.144 141.371C157.209 141.357 157.275 141.343 157.34 141.329C157.405 141.316 157.429 141.31 157.471 141.291C157.438 141.298 157.322 141.355 157.462 141.293C157.549 141.252 157.629 141.215 157.716 141.169C157.803 141.124 157.859 141.086 157.928 141.042L158.017 140.984C157.892 141.07 157.993 141 158.017 140.984C158.151 140.877 158.284 140.77 158.413 140.657C158.66 140.439 158.894 140.207 159.114 139.962L159.203 139.86L159.332 139.701C159.445 139.559 159.552 139.413 159.657 139.269C159.846 138.998 160.021 138.718 160.181 138.429C160.258 138.291 160.33 138.149 160.403 138.006C160.459 137.899 160.354 138.116 160.403 138.006C160.419 137.975 160.434 137.944 160.447 137.913C160.486 137.83 160.523 137.745 160.56 137.663C160.825 137.041 161.035 136.397 161.189 135.739C161.207 135.661 161.225 135.583 161.241 135.505C161.251 135.459 161.26 135.415 161.269 135.37C161.271 135.38 161.246 135.496 161.264 135.405C161.296 135.216 161.327 135.028 161.353 134.841C161.407 134.447 161.444 134.051 161.463 133.651C161.482 133.252 161.488 132.854 161.48 132.458C161.474 132.252 161.466 132.046 161.453 131.842C161.448 131.759 161.443 131.676 161.437 131.594C161.447 131.719 161.434 131.58 161.429 131.561C161.424 131.493 161.419 131.425 161.411 131.356C161.33 130.546 161.205 129.741 161.037 128.944C160.737 127.504 160.338 126.086 159.844 124.699C159.837 124.665 159.829 124.63 159.807 124.596C159.861 124.743 159.813 124.622 159.807 124.596L159.717 124.357C159.654 124.189 159.59 124.02 159.523 123.853C159.39 123.517 159.251 123.183 159.104 122.84C158.821 122.192 158.519 121.554 158.196 120.927C157.873 120.299 157.523 119.674 157.146 119.049C156.962 118.748 156.775 118.45 156.587 118.155C156.485 117.995 156.386 117.85 156.283 117.702L156.138 117.49C156.138 117.49 156.064 117.384 156.115 117.457L156.049 117.364C155.228 116.21 154.32 115.119 153.333 114.1C152.834 113.588 152.318 113.096 151.779 112.625L151.588 112.458C151.557 112.432 151.389 112.29 151.496 112.38C151.346 112.255 151.197 112.132 151.05 112.011C150.776 111.792 150.497 111.583 150.213 111.37C149.929 111.158 149.638 110.961 149.35 110.764C149.261 110.707 149.185 110.633 149.124 110.547C149.064 110.46 149.022 110.363 149 110.26C148.978 110.157 148.976 110.051 148.995 109.948C149.014 109.845 149.054 109.746 149.111 109.658C149.169 109.569 149.243 109.493 149.33 109.433C149.417 109.373 149.515 109.331 149.619 109.309C149.722 109.287 149.829 109.286 149.933 109.304C150.037 109.323 150.137 109.362 150.226 109.419L150.215 109.411Z" fill="#080806"/>
<path d="M169.89 79.8978C172.086 85.9786 169.972 92.5107 168.39 98.4714C166.829 104.355 165.139 111 168.729 116.495C170.597 119.356 173.378 121.523 175.88 123.793C178.678 126.301 181.107 129.058 182.695 132.489C186.174 140.034 185.683 148.514 184.123 156.463C183.295 160.692 182.227 164.883 181.084 169.038C179.975 173.07 178.837 177.138 177.346 181.051C175.962 184.685 174.098 188.088 171.293 190.843C168.657 193.437 165.401 195.398 161.956 196.733C153.988 199.818 145.182 199.635 136.812 198.686C132.788 198.229 128.785 197.484 124.928 196.222C121.488 195.077 118.176 193.582 115.045 191.762C108.666 188.081 103.042 183.14 98.413 177.438C93.2563 171.078 89.2937 163.798 86.4168 156.151C85.7157 154.287 85.0731 152.403 84.489 150.499C84.1874 149.513 85.7646 149.183 86.0651 150.163C88.4127 157.811 91.7507 165.183 96.2427 171.825C100.38 177.94 105.551 183.389 111.603 187.655C117.508 191.822 124.176 194.801 131.285 196.226C135.404 197.052 139.637 197.455 143.832 197.625C148.103 197.796 152.406 197.619 156.588 196.682C163.795 195.081 170.458 191.093 174.027 184.506C175.904 181.04 177.013 177.186 178.139 173.43C179.367 169.352 180.475 165.234 181.464 161.078C183.329 153.246 184.819 144.971 182.643 137.042C181.652 133.433 179.884 130.115 177.304 127.381C174.958 124.897 172.2 122.843 169.836 120.381C167.58 118.035 165.809 115.283 165.229 112.049C164.685 109.042 165.049 105.972 165.646 103.002C166.866 96.9386 169.474 90.9105 169.205 84.6327C169.157 83.2712 168.904 81.9246 168.454 80.6381C168.306 80.2295 168.376 79.7816 168.797 79.5593C169.14 79.377 169.737 79.4938 169.885 79.899L169.89 79.8978Z" fill="#080806"/>
<path d="M167.813 153.597C166.893 153.331 166.314 152.59 165.805 151.842C165.699 151.683 165.593 151.536 165.492 151.381C165.424 151.277 165.608 151.538 165.492 151.381L165.406 151.265C165.342 151.178 165.275 151.096 165.206 151.014C165.137 150.933 165.08 150.87 165.012 150.803C164.979 150.77 164.943 150.738 164.909 150.705C164.804 150.602 164.915 150.665 164.909 150.705C164.909 150.663 164.671 150.537 164.642 150.522C164.613 150.506 164.569 150.479 164.531 150.458C164.375 150.367 164.642 150.494 164.487 150.436C164.387 150.398 164.287 150.359 164.183 150.319C164.122 150.301 164.059 150.287 163.99 150.271C163.92 150.255 163.838 150.241 164.005 150.268C163.767 150.227 163.527 150.206 163.285 150.206C163.186 150.206 163.085 150.213 162.985 150.216C162.852 150.219 163.183 150.192 162.968 150.219L162.801 150.238C162.568 150.268 162.339 150.31 162.11 150.362C161.007 150.617 159.959 151.08 158.829 151.217C157.652 151.358 156.555 151.1 155.408 150.853L155.217 150.816C155.073 150.783 155.407 150.844 155.154 150.804C155.027 150.782 154.899 150.76 154.775 150.742C154.517 150.706 154.257 150.686 153.996 150.682C153.864 150.681 153.735 150.685 153.605 150.691C153.353 150.703 153.757 150.659 153.51 150.701L153.356 150.719C153.086 150.755 152.819 150.807 152.557 150.876C152.43 150.903 152.306 150.944 152.182 150.983L151.998 151.044C152.131 150.999 151.998 151.044 151.98 151.048C151.71 151.153 151.444 151.266 151.186 151.399C150.706 151.636 150.242 151.903 149.798 152.2L149.638 152.31C149.512 152.397 149.789 152.202 149.578 152.352L149.249 152.589C149.033 152.75 148.821 152.913 148.612 153.089C148.18 153.433 147.761 153.794 147.342 154.154C145.497 155.74 143.58 157.361 141.163 157.975C140.954 158.019 140.736 157.978 140.557 157.863C140.378 157.748 140.252 157.567 140.207 157.36C140.166 157.153 140.208 156.938 140.324 156.761C140.439 156.584 140.62 156.458 140.826 156.41C140.953 156.383 141.076 156.344 141.2 156.307L141.419 156.236C141.445 156.231 141.568 156.181 141.435 156.233C141.697 156.134 141.956 156.026 142.21 155.903C142.672 155.679 143.117 155.423 143.543 155.137L143.737 155.007C143.708 155.025 143.625 155.085 143.757 154.991L144.075 154.764C144.305 154.593 144.531 154.416 144.754 154.237C145.163 153.908 145.563 153.57 145.961 153.229C147.678 151.756 149.429 150.272 151.601 149.515C152.65 149.138 153.775 149.014 154.882 149.154C155.448 149.231 156.014 149.362 156.575 149.483L156.918 149.553C156.759 149.522 157.009 149.568 157.019 149.57L157.171 149.596C157.451 149.64 157.734 149.667 158.017 149.674C158.153 149.676 158.291 149.676 158.426 149.665C158.305 149.675 158.447 149.661 158.462 149.658C158.547 149.64 158.63 149.636 158.715 149.622C158.994 149.578 159.27 149.519 159.543 149.446C160.122 149.293 160.688 149.098 161.265 148.936C162.202 148.671 163.208 148.511 164.175 148.68C164.758 148.77 165.311 149.001 165.784 149.351C166.203 149.695 166.567 150.101 166.863 150.555C166.986 150.732 167.105 150.911 167.227 151.088C167.254 151.128 167.283 151.167 167.31 151.209C167.337 151.25 167.331 151.241 167.273 151.157C167.295 151.188 167.317 151.218 167.341 151.25C167.403 151.333 167.466 151.416 167.533 151.496C167.6 151.576 167.665 151.65 167.737 151.722C167.775 151.761 167.816 151.798 167.855 151.837C167.968 151.945 167.722 151.747 167.855 151.837C167.894 151.863 168.079 152.027 168.127 152.01C168.127 152.01 167.94 151.935 168.09 151.991C168.159 152.016 168.229 152.041 168.301 152.062C168.503 152.13 168.67 152.274 168.766 152.463C168.861 152.653 168.879 152.872 168.813 153.073C168.743 153.272 168.597 153.436 168.408 153.531C168.218 153.626 167.999 153.644 167.797 153.583L167.813 153.597Z" fill="#080806"/>
<path d="M166.666 155.631C165.725 156.255 164.589 156.619 163.519 156.948C162.048 157.396 160.555 157.769 159.045 158.066C155.76 158.754 152.428 159.199 149.076 159.396C147.829 159.465 146.528 159.529 145.293 159.305C144.879 159.229 144.48 158.932 144.534 158.458C144.575 158.069 144.943 157.626 145.387 157.706C146.446 157.897 147.553 157.867 148.624 157.824C148.987 157.809 149.335 157.79 149.689 157.767L149.979 157.747C150.043 157.743 150.328 157.716 150.059 157.741C150.26 157.722 150.46 157.708 150.661 157.691C151.463 157.619 152.264 157.532 153.065 157.431C156.285 157.024 159.518 156.459 162.635 155.547C162.996 155.443 163.353 155.332 163.708 155.211L163.942 155.132C164.003 155.119 164.14 155.048 163.889 155.144C163.94 155.133 163.989 155.108 164.039 155.09C164.186 155.035 164.335 154.978 164.482 154.919C164.982 154.73 165.462 154.491 165.914 154.205C166.265 153.97 166.827 154.193 167 154.545C167.201 154.975 167.034 155.375 166.657 155.626L166.666 155.631Z" fill="#080806"/>
<path d="M165.942 160.698C162.163 163.341 157.629 164.704 153.01 164.585C151.707 164.545 150.41 164.385 149.137 164.107C148.723 164.013 148.481 163.47 148.624 163.096C148.696 162.897 148.842 162.734 149.032 162.639C149.221 162.544 149.44 162.525 149.643 162.586L150.026 162.663C150.057 162.672 150.09 162.677 150.123 162.68L150.275 162.706C150.553 162.755 150.832 162.797 151.113 162.831C151.648 162.9 152.185 162.946 152.723 162.971C153.262 162.996 153.803 163.002 154.345 162.99C154.601 162.981 154.858 162.966 155.114 162.949C155.277 162.939 155.162 162.939 155.128 162.946L155.357 162.912C155.512 162.898 155.664 162.882 155.817 162.864C156.865 162.744 157.902 162.544 158.92 162.267C159.919 162.005 160.893 161.654 161.829 161.219C162.366 160.973 162.892 160.706 163.407 160.415C163.676 160.266 163.94 160.109 164.199 159.943C164.33 159.861 164.459 159.779 164.587 159.693L164.715 159.608L164.862 159.507C165.206 159.267 165.697 159.2 166 159.56C166.247 159.858 166.316 160.433 165.948 160.69L165.942 160.698Z" fill="#080806"/>
<path d="M117.856 122.106C118.321 121.819 118.743 121.469 119.11 121.066C119.342 120.813 119.563 120.477 119.453 120.153C119.364 119.955 119.212 119.792 119.021 119.688C118.621 119.421 118.118 119.184 117.671 119.37C117.425 119.495 117.22 119.687 117.081 119.925C116.788 120.351 116.536 120.87 116.677 121.366C116.752 121.601 116.908 121.803 117.117 121.936C117.327 122.069 117.577 122.124 117.824 122.091" fill="#080806"/>
<path d="M117.484 121.396L117.653 121.28C117.695 121.253 117.756 121.189 117.612 121.311C117.632 121.294 117.655 121.28 117.675 121.264C117.797 121.175 117.914 121.083 118.027 120.986C118.14 120.889 118.212 120.825 118.302 120.746C118.353 120.696 118.403 120.648 118.452 120.595L118.526 120.52C118.545 120.497 118.646 120.387 118.554 120.49C118.463 120.593 118.581 120.451 118.601 120.424C118.62 120.396 118.659 120.297 118.697 120.267C118.678 120.282 118.631 120.446 118.663 120.33C118.674 120.303 118.682 120.275 118.689 120.247C118.675 120.235 118.674 120.432 118.668 120.346C118.659 120.211 118.672 120.365 118.682 120.41C118.667 120.275 118.717 120.488 118.716 120.485C118.715 120.481 118.679 120.422 118.675 120.404C118.68 120.429 118.802 120.55 118.711 120.468C118.694 120.451 118.676 120.435 118.662 120.418C118.594 120.343 118.795 120.517 118.711 120.46L118.635 120.404C118.577 120.363 118.517 120.323 118.455 120.285L118.305 120.199C118.278 120.185 118.176 120.136 118.288 120.186C118.399 120.237 118.312 120.199 118.288 120.186C118.225 120.162 118.165 120.138 118.104 120.118C118.073 120.113 118.042 120.105 118.011 120.094C118.061 120.12 118.187 120.119 118.053 120.107C118.025 120.113 117.99 120.106 117.96 120.102C117.868 120.09 118.075 120.101 118.06 120.091C118.045 120.082 117.987 120.107 117.969 120.111C117.831 120.125 118.034 120.08 118.038 120.08C118.007 120.09 117.978 120.104 117.951 120.122C117.88 120.157 117.918 120.189 118.004 120.083C117.959 120.129 117.911 120.172 117.861 120.212C117.763 120.303 117.895 120.183 117.897 120.166C117.879 120.193 117.86 120.218 117.838 120.242L117.739 120.38C117.663 120.492 117.593 120.608 117.529 120.728C117.461 120.85 117.601 120.56 117.529 120.728C117.507 120.778 117.487 120.832 117.47 120.882C117.454 120.933 117.454 120.944 117.444 120.973C117.404 121.095 117.459 120.923 117.455 120.904C117.457 120.973 117.452 121.042 117.439 121.109C117.427 121.201 117.434 120.994 117.426 121.008C117.429 121.055 117.438 121.1 117.455 121.144C117.462 121.174 117.492 121.254 117.442 121.127C117.393 120.999 117.438 121.108 117.445 121.141C117.452 121.174 117.472 121.188 117.484 121.212C117.548 121.337 117.391 121.103 117.447 121.158C117.466 121.178 117.482 121.2 117.501 121.22C117.593 121.315 117.476 121.225 117.449 121.185C117.483 121.229 117.558 121.257 117.603 121.287C117.648 121.317 117.514 121.237 117.51 121.245C117.506 121.253 117.62 121.287 117.625 121.288L117.684 121.304C117.774 121.333 117.496 121.281 117.62 121.291L117.702 121.295C117.842 121.309 117.499 121.322 117.651 121.306C118.067 121.248 118.533 121.482 118.607 121.921C118.676 122.323 118.432 122.809 117.988 122.871C117.558 122.938 117.119 122.856 116.744 122.637C116.369 122.418 116.083 122.077 115.933 121.672C115.644 120.873 116.001 120.02 116.486 119.371C116.755 118.966 117.163 118.672 117.634 118.543C118.057 118.46 118.496 118.517 118.883 118.705C119.279 118.866 119.636 119.109 119.931 119.417C120.101 119.613 120.214 119.852 120.258 120.107C120.301 120.363 120.273 120.625 120.177 120.867C119.978 121.3 119.686 121.684 119.321 121.993C118.985 122.301 118.62 122.576 118.23 122.814C118.041 122.912 117.82 122.932 117.617 122.87C117.413 122.807 117.242 122.667 117.142 122.48C117.049 122.291 117.032 122.073 117.096 121.872C117.16 121.671 117.299 121.502 117.484 121.4L117.484 121.396Z" fill="#080806"/>
<path d="M159.041 113.342C159.506 113.061 160.02 112.827 160.387 112.425C160.619 112.172 160.575 111.864 160.466 111.54C160.345 111.231 160.16 110.95 159.923 110.715C159.523 110.448 158.425 110.69 158.142 111.18C157.884 111.626 157.727 112.105 157.869 112.6C157.944 112.836 158.1 113.037 158.309 113.17C158.519 113.302 158.769 113.358 159.015 113.326" fill="#080806"/>
<path d="M158.67 112.632C158.818 112.542 158.966 112.458 159.116 112.371C159.198 112.325 159.279 112.278 159.358 112.229L159.458 112.166C159.485 112.16 159.618 112.055 159.508 112.135C159.399 112.215 159.508 112.135 159.535 112.113L159.644 112.026C159.709 111.97 159.768 111.911 159.828 111.851C159.888 111.79 159.712 112.001 159.786 111.892C159.86 111.784 159.711 112.07 159.759 111.94C159.774 111.882 159.773 111.893 159.757 111.969C159.74 112.046 159.741 112.058 159.747 111.999C159.752 111.939 159.749 111.926 159.748 111.888L159.765 112.102C159.755 111.96 159.725 111.82 159.676 111.687L159.749 111.889C159.7 111.769 159.641 111.653 159.572 111.543L159.504 111.434C159.467 111.378 159.377 111.292 159.541 111.486C159.499 111.437 159.462 111.385 159.418 111.33C159.348 111.254 159.351 111.326 159.501 111.394C159.481 111.384 159.462 111.373 159.444 111.359C159.585 111.478 159.635 111.437 159.543 111.409L159.471 111.388C159.354 111.351 159.686 111.419 159.568 111.408L159.482 111.4C159.411 111.397 159.339 111.399 159.267 111.404L159.481 111.388C159.302 111.403 159.126 111.441 158.956 111.5L159.158 111.427C159.028 111.477 158.902 111.538 158.782 111.611C159.027 111.47 158.86 111.555 158.793 111.62C158.683 111.729 158.856 111.546 158.854 111.545C158.834 111.572 158.816 111.6 158.799 111.629C158.776 111.669 158.756 111.709 158.735 111.748C158.714 111.788 158.719 111.776 158.774 111.666L158.736 111.746C158.701 111.827 158.671 111.909 158.646 111.993C158.633 112.034 158.626 112.077 158.613 112.118C158.684 111.903 158.631 112.014 158.624 112.083C158.613 112.183 158.611 112.283 158.619 112.383L158.602 112.168C158.612 112.282 158.636 112.394 158.673 112.502L158.601 112.301C158.621 112.349 158.645 112.393 158.667 112.439C158.711 112.508 158.694 112.485 158.613 112.366C158.628 112.386 158.644 112.406 158.661 112.426C158.678 112.446 158.716 112.48 158.743 112.509C158.634 112.419 158.611 112.4 158.675 112.451L158.74 112.495L158.807 112.534C158.679 112.475 158.653 112.462 158.727 112.496L158.838 112.532C158.917 112.554 158.887 112.549 158.745 112.521L158.822 112.53C158.874 112.534 158.926 112.535 158.978 112.532L158.762 112.548L158.838 112.532C159.047 112.493 159.264 112.533 159.446 112.643C159.623 112.76 159.748 112.941 159.794 113.147C159.862 113.549 159.619 114.036 159.174 114.098C158.928 114.139 158.676 114.13 158.434 114.072C158.191 114.014 157.963 113.908 157.762 113.761C157.562 113.613 157.393 113.427 157.266 113.214C157.14 113 157.058 112.764 157.025 112.518C156.969 112.053 157.044 111.582 157.241 111.157C157.341 110.915 157.478 110.691 157.648 110.492C157.776 110.357 157.924 110.242 158.087 110.151C158.37 109.986 158.682 109.878 159.006 109.832C159.365 109.762 159.736 109.786 160.083 109.901C160.493 110.061 160.737 110.386 160.963 110.747C161.155 111.039 161.281 111.37 161.332 111.716C161.383 112.046 161.327 112.384 161.173 112.681C161.042 112.905 160.866 113.1 160.658 113.255C160.259 113.541 159.843 113.803 159.413 114.04C159.225 114.136 159.007 114.156 158.805 114.096C158.603 114.035 158.432 113.899 158.33 113.715C158.237 113.526 158.221 113.308 158.285 113.107C158.349 112.905 158.488 112.736 158.674 112.634L158.67 112.632Z" fill="#080806"/>
<path d="M167.092 96.7813C165.665 95.5819 164.107 94.5444 162.448 93.6881L162.134 93.5311L162.052 93.4904L161.968 93.4518C161.745 93.3484 161.517 93.2531 161.286 93.1676C161.088 93.097 160.891 93.0334 160.696 92.9785C160.584 92.9479 160.472 92.9226 160.357 92.898C160.242 92.8734 160.463 92.9081 160.336 92.9025C160.27 92.8946 160.207 92.8826 160.146 92.8736C159.913 92.8466 159.677 92.8359 159.442 92.8417C159.414 92.8477 159.285 92.8606 159.424 92.8454L159.269 92.8639C159.141 92.8839 159.014 92.9109 158.889 92.9448C158.838 92.9556 158.787 92.9664 158.741 92.9873C158.694 93.0081 158.593 93.0423 158.725 92.9906C158.629 93.0293 158.535 93.0693 158.442 93.1145L158.308 93.1885C158.308 93.1885 158.103 93.3176 158.2 93.2514C158.298 93.1852 158.161 93.2833 158.144 93.2961C158.098 93.3313 158.055 93.3678 158.012 93.406C157.842 93.5593 157.681 93.7229 157.531 93.8958C157.632 93.7852 157.549 93.8756 157.531 93.8958L157.399 94.0566L157.179 94.3255C156.876 94.7257 156.522 95.0857 156.127 95.3969C155.788 95.6418 155.29 95.7006 154.989 95.3443C154.741 95.0424 154.676 94.476 155.041 94.2146C155.206 94.0938 155.361 93.9598 155.505 93.8141C155.579 93.7402 155.656 93.6638 155.716 93.5872C155.743 93.5579 155.844 93.44 155.741 93.56C155.787 93.5085 155.83 93.4538 155.874 93.4009C156.156 93.0373 156.458 92.6899 156.78 92.3605C157.565 91.6223 158.609 91.2185 159.69 91.2356C160.695 91.2272 161.683 91.5536 162.581 91.9754C163.507 92.4103 164.404 92.9035 165.267 93.452C166.211 94.0518 167.113 94.7142 167.967 95.4346C168.289 95.7027 168.489 96.1549 168.205 96.5408C167.98 96.8578 167.436 97.0683 167.092 96.7778L167.092 96.7813Z" fill="#080806"/>
<path d="M135.405 96.6035L131.514 94.9015C130.301 94.3702 129.097 93.8134 127.866 93.3259C127.309 93.0999 126.738 92.9104 126.156 92.7585C126.005 92.7198 125.852 92.6848 125.7 92.6555C125.856 92.6858 125.605 92.6411 125.597 92.6391L125.365 92.6067C125.044 92.5654 124.721 92.5455 124.398 92.5469C124.234 92.5491 124.068 92.5552 123.904 92.5665C124.03 92.5578 123.892 92.5691 123.873 92.5732L123.627 92.5999C123.271 92.6449 122.918 92.709 122.569 92.7887C121.955 92.9332 121.35 93.1125 120.756 93.3255L120.67 93.3567L120.454 93.4371L120.096 93.5752C119.787 93.6956 119.481 93.8243 119.177 93.9526C118.64 94.188 118.111 94.439 117.588 94.7054C116.507 95.2556 115.456 95.863 114.425 96.5025C112.357 97.7865 110.373 99.1929 108.35 100.544C106.089 102.053 103.769 103.496 101.273 104.596C100.889 104.765 100.373 104.666 100.186 104.256C100.012 103.884 100.118 103.361 100.53 103.175C105.06 101.186 108.949 98.0899 113.096 95.454C115.151 94.1471 117.287 92.9452 119.568 92.0759C120.82 91.5966 122.12 91.1691 123.456 91.0211C124.806 90.8835 126.169 91.039 127.452 91.4769C128.851 91.9376 130.188 92.5862 131.535 93.1763L135.915 95.0908C136.299 95.2583 136.59 95.6747 136.427 96.1022C136.284 96.4747 135.821 96.7932 135.409 96.6118L135.405 96.6035Z" fill="#080806"/>
<path d="M106.192 75.9277C116.081 78.216 126.302 77.758 136.335 78.9914C141.134 79.5818 145.806 80.8158 150.576 81.5706C152.915 81.9698 155.288 82.1476 157.662 82.1016C160.1 82.0065 162.517 81.6144 164.859 80.9339C170.244 79.406 175.187 76.5988 179.778 73.4646L180.319 74.9574L171.731 76.2721C170.956 76.3897 170.415 75.4606 171.02 74.8974L177.205 69.1375L177.916 70.5105C173.681 71.4261 169.333 71.715 165.014 71.3681C164.858 71.3549 164.709 71.2973 164.585 71.2022C164.461 71.1071 164.367 70.9786 164.315 70.8319C164.263 70.6853 164.254 70.5268 164.291 70.3754C164.327 70.2239 164.406 70.0861 164.519 69.9782L171.622 62.8736L172.335 64.2461C169.115 64.8568 165.883 63.8003 163.197 62.0565C160.292 60.1645 158.045 57.4759 155.695 54.9767C151.281 50.3088 145.92 46.6251 139.966 44.1693C126.783 38.6714 111.844 38.7982 97.9749 41.3676C90.9427 42.6713 83.9895 44.853 77.9563 48.767C73.1147 51.9454 68.9656 56.0585 65.7561 60.8614C62.5002 65.6808 60.2405 71.0942 59.1084 76.7871C58.5534 79.6227 58.189 82.6377 58.4635 85.5241C58.735 88.362 59.7191 91.3629 62.39 92.8062C65.1646 94.3057 68.739 93.8015 71.7591 93.6663L77.4315 93.4141C79.3996 93.3264 81.375 93.2552 83.3186 92.9089C85.0963 92.608 86.8056 91.9935 88.3657 91.0946C89.907 90.1973 91.2864 89.058 92.6182 87.8761C95.5068 85.3152 98.3041 82.6536 101.135 80.0377L105.397 76.0969C106.16 75.3887 107.242 76.5773 106.483 77.2791L97.5204 85.5669C94.8193 88.0625 92.176 90.7931 88.9466 92.6207C85.4965 94.5717 81.5897 94.8247 77.7114 94.997L71.8032 95.2594C70.0635 95.3367 68.3148 95.4651 66.571 95.3869C63.3867 95.2442 60.4208 94.1493 58.6423 91.3974C56.9807 88.8226 56.6926 85.5153 56.8238 82.5317C57.0829 76.5997 58.688 70.7615 61.2916 65.4274C63.9146 60.0526 67.5747 55.2412 72.064 51.2668C77.1578 46.7742 83.2264 43.6803 89.7278 41.7057C97.0252 39.4889 104.777 38.4504 112.38 38.1584C119.74 37.8656 127.185 38.4985 134.285 40.5072C140.596 42.2908 146.664 45.1721 151.817 49.2321C154.549 51.379 156.851 53.9085 159.225 56.43C161.556 58.9061 164.129 61.2979 167.447 62.356C168.911 62.8459 170.475 62.9609 171.995 62.6906C172.167 62.6592 172.344 62.6836 172.501 62.7601C172.657 62.8366 172.785 62.9611 172.865 63.1153C172.944 63.2695 172.972 63.4451 172.944 63.6162C172.915 63.7872 172.832 63.9447 172.706 64.0653L165.601 71.1703L165.106 69.7787C169.281 70.1175 173.483 69.8393 177.576 68.9532C178.366 68.7851 178.867 69.7879 178.287 70.3278L172.093 76.084L171.382 74.711L179.971 73.3964C180.912 73.2524 181.244 74.3877 180.51 74.8896C176.357 77.723 171.959 80.2196 167.19 81.8711C162.515 83.4977 157.529 84.0431 152.611 83.4656C147.751 82.9029 143.027 81.5635 138.19 80.854C133.1 80.1074 127.958 79.8664 122.828 79.5649C117.077 79.2226 111.315 78.7517 105.688 77.4483C104.678 77.2139 105.186 75.6943 106.192 75.9277Z" fill="#080806"/>
<path d="M76.4107 132.656C76.2385 132.51 76.5367 132.756 76.3621 132.617L76.2048 132.49C76.0991 132.407 75.9863 132.326 75.8848 132.245C75.6685 132.085 75.4476 131.932 75.222 131.786C74.7705 131.495 74.302 131.23 73.8191 130.994C73.6148 130.895 73.9667 131.059 73.7622 130.967L73.5795 130.884C73.4562 130.831 73.333 130.777 73.2087 130.727C72.9594 130.624 72.7067 130.53 72.4516 130.442C71.9413 130.268 71.421 130.124 70.8935 130.01L70.7012 129.967C70.6745 129.962 70.4534 129.922 70.6417 129.954L70.2429 129.888C69.9758 129.847 69.7099 129.82 69.4412 129.788C68.9044 129.737 68.365 129.717 67.8258 129.728C67.691 129.731 67.5562 129.734 67.4221 129.741L67.2214 129.753C67.1898 129.76 66.9642 129.775 67.1688 129.764C66.9012 129.788 66.6308 129.817 66.3682 129.856C65.8363 129.935 65.3099 130.047 64.7921 130.192C64.5325 130.261 64.2758 130.345 64.0208 130.428C63.8054 130.5 64.1903 130.365 63.9683 130.44L63.7617 130.518C63.6181 130.574 63.4753 130.634 63.3349 130.696C63.0543 130.822 62.784 130.968 62.5265 131.136C62.6644 131.045 62.4608 131.188 62.4514 131.195C62.401 131.233 62.3509 131.273 62.3034 131.316C62.1863 131.416 62.0761 131.524 61.9736 131.639C62.0965 131.504 61.9508 131.669 61.9353 131.691C61.8935 131.743 61.8542 131.799 61.8166 131.854C61.7415 131.965 61.671 132.08 61.6065 132.197C61.5949 132.22 61.4971 132.421 61.5746 132.253L61.5186 132.376C61.4549 132.522 61.3989 132.671 61.3506 132.821C61.3023 132.971 61.2711 133.082 61.2363 133.209C61.2192 133.275 61.2043 133.341 61.1879 133.401C61.1349 133.624 61.2107 133.244 61.1747 133.468C61.1326 133.74 61.0975 134.012 61.0776 134.285C61.0577 134.593 61.0526 134.902 61.0584 135.21C61.0626 135.34 61.0671 135.471 61.0748 135.601C61.0774 135.613 61.0962 135.871 61.0817 135.701C61.0912 135.805 61.1006 135.908 61.1139 136.013C61.1869 136.636 61.308 137.253 61.476 137.858C61.5597 138.162 61.6556 138.464 61.7617 138.761C61.7122 138.625 61.767 138.786 61.7745 138.82C61.7971 138.883 61.821 138.943 61.8454 139.005C61.9108 139.173 61.9815 139.34 62.0561 139.517C62.3108 140.101 62.5993 140.669 62.9203 141.219C63.082 141.494 63.2485 141.766 63.4244 142.031C63.4961 142.143 63.571 142.252 63.6458 142.362C63.7912 142.578 63.5575 142.241 63.7091 142.452C63.7696 142.538 63.8322 142.624 63.8944 142.709C64.2763 143.225 64.6822 143.724 65.1061 144.205C65.9623 145.166 66.8737 146.077 67.8357 146.934C69.7958 148.7 71.8619 150.328 73.9593 152.068L77.2631 154.794C78.2619 155.586 79.2198 156.427 80.1329 157.315C81.0207 158.181 81.7585 159.186 82.3164 160.29C82.8729 161.456 83.0684 162.706 83.2704 163.969C83.3577 164.574 83.4865 165.174 83.656 165.762C83.6717 165.835 83.7015 165.905 83.7259 165.976C83.7323 166.006 83.783 166.122 83.7278 165.985C83.7851 166.124 83.8385 166.261 83.9042 166.397C83.9699 166.532 84.0384 166.663 84.1152 166.79C84.1529 166.855 84.1941 166.919 84.2367 166.981C84.149 166.854 84.3128 167.079 84.3328 167.104C84.3978 167.185 84.4666 167.257 84.5378 167.333C84.5805 167.379 84.6243 167.42 84.6684 167.463C84.7125 167.507 84.8534 167.617 84.6965 167.492C84.9035 167.659 85.1265 167.806 85.3622 167.931C85.3622 167.931 85.5495 168.018 85.4343 167.968C85.3192 167.918 85.5046 167.997 85.5106 167.999C85.625 168.046 85.7404 168.088 85.8582 168.125C85.976 168.162 86.0958 168.191 86.2178 168.231C86.4128 168.285 86.0504 168.21 86.2548 168.241L86.5001 168.274C86.7253 168.295 86.9518 168.301 87.1778 168.292C87.3871 168.286 87.0027 168.329 87.2076 168.286C87.2671 168.273 87.3307 168.27 87.3853 168.26C87.527 168.238 87.6673 168.209 87.8056 168.171L87.9242 168.135C88.1243 168.078 87.7566 168.207 87.9522 168.129C88.0668 168.083 88.181 168.035 88.2864 167.98C88.3917 167.924 88.5053 167.857 88.6123 167.792C88.7921 167.683 88.4848 167.897 88.6471 167.766C88.7124 167.712 88.7789 167.664 88.8421 167.608C88.9053 167.553 88.9955 167.47 89.0724 167.394C89.1161 167.35 89.1573 167.303 89.2006 167.258C89.3507 167.104 89.1065 167.39 89.2293 167.221C89.3866 167.012 89.5284 166.792 89.6537 166.563C89.6743 166.522 89.7301 166.39 89.6616 166.548L89.7363 166.376C89.7825 166.259 89.8248 166.141 89.8612 166.02C89.8976 165.9 89.9283 165.779 89.9548 165.655C89.9098 165.846 89.9547 165.655 89.9602 165.612C89.9705 165.54 89.9786 165.468 89.9847 165.394C89.9969 165.28 90.0017 165.166 90.0027 165.052C90.0019 164.988 89.9996 164.927 90.0003 164.87C89.9972 164.66 90.0272 165.046 89.9932 164.837C89.9608 164.589 89.908 164.343 89.8354 164.103C89.7072 163.703 90.0538 163.22 90.4551 163.153C90.6635 163.114 90.8788 163.157 91.0566 163.271C91.2345 163.385 91.3615 163.563 91.4115 163.768C92.1218 165.981 90.8918 168.709 88.6899 169.558C86.3611 170.455 83.6427 169.49 82.5169 167.252C81.9151 166.063 81.7708 164.728 81.5565 163.433C81.5046 163.115 81.447 162.796 81.3737 162.481C81.3415 162.331 81.309 162.18 81.2628 162.033C81.2467 161.958 81.2201 161.886 81.197 161.812L81.1626 161.703C81.1592 161.688 81.1059 161.534 81.1458 161.625C81.1856 161.717 81.1036 161.514 81.0912 161.482C81.0636 161.413 81.0343 161.345 81.0049 161.277C80.9405 161.13 80.8725 160.985 80.798 160.842C80.6573 160.57 80.5019 160.305 80.3324 160.048C80.3134 160.02 80.2088 159.866 80.2461 159.919C80.2833 159.973 80.225 159.889 80.22 159.883L80.1549 159.793C80.0515 159.653 79.9451 159.516 79.8341 159.383C79.6374 159.141 79.4296 158.907 79.2159 158.68C78.7832 158.226 78.319 157.779 77.8462 157.369L77.5034 157.078L77.3294 156.933C77.3024 156.91 77.2715 156.886 77.2442 156.86C77.1454 156.776 77.3265 156.928 77.2264 156.846L76.4687 156.218L74.752 154.801C72.4856 152.922 70.22 151.081 67.9826 149.193C65.9133 147.431 63.9327 145.553 62.3659 143.326C60.7826 141.072 59.6749 138.476 59.4712 135.715C59.3883 134.477 59.459 133.171 59.9244 131.997C60.1615 131.387 60.5161 130.829 60.9685 130.354C61.452 129.879 62.023 129.502 62.6503 129.241C64.8372 128.309 67.2284 127.95 69.5942 128.2C72.5543 128.456 75.3556 129.639 77.5946 131.578C77.9153 131.852 77.8474 132.455 77.5413 132.71C77.1734 133.017 76.7468 132.95 76.4037 132.657L76.4107 132.656Z" fill="#080806"/>
<path d="M80.8164 146.782C80.7043 146.538 80.5753 146.303 80.4303 146.077L80.349 145.954C80.4474 146.097 80.3044 145.9 80.2944 145.887C80.206 145.772 80.1121 145.659 80.0128 145.549C79.9295 145.459 79.8447 145.372 79.7551 145.287C79.7114 145.246 79.6673 145.202 79.6221 145.163C79.577 145.123 79.4705 145.037 79.5834 145.127C79.3742 144.959 79.1533 144.805 78.9223 144.668C77.9925 144.116 76.9607 143.772 76.164 143.014C75.4918 142.375 75.0682 141.325 75.2233 140.402C75.3009 139.858 75.5892 139.365 76.0268 139.029C76.2647 138.866 76.5111 138.715 76.7647 138.577L76.8829 138.505C76.7223 138.61 76.9039 138.475 76.9258 138.457C77.0687 138.347 76.9084 138.521 76.9483 138.434C76.968 138.407 76.9855 138.377 77.003 138.348C76.9644 138.433 76.9627 138.433 77.003 138.348C77.0171 138.294 77.0346 138.24 77.0504 138.185C77.0844 138.071 77.0488 138.357 77.0524 138.152C77.053 138.036 77.0635 137.922 77.0606 137.807C77.0555 137.579 77.0942 137.963 77.0467 137.742C77.037 137.697 77.0273 137.652 77.0175 137.607C76.9901 137.47 76.9556 137.336 76.9143 137.203C76.8531 136.987 76.9871 137.346 76.9008 137.14C76.8748 137.088 76.8541 137.034 76.8284 136.974C76.7724 136.858 76.7112 136.744 76.6455 136.634L76.5702 136.514C76.4479 136.32 76.6694 136.635 76.5258 136.453C76.4393 136.34 76.3498 136.23 76.2539 136.125C76.158 136.02 76.0883 135.951 76.0012 135.869L75.8676 135.751C75.7673 135.659 76.0151 135.857 75.8324 135.723C75.6183 135.562 75.3945 135.414 75.1621 135.28C75.0514 135.217 74.94 135.159 74.8254 135.103C74.9704 135.172 74.7428 135.068 74.7329 135.064L74.5581 134.992C74.2902 134.882 74.0133 134.786 73.7273 134.705C73.4812 134.634 73.2331 134.57 72.9826 134.513C72.8572 134.483 72.7325 134.457 72.5991 134.433L72.373 134.386C72.3441 134.38 72.1269 134.34 72.2772 134.366C71.6944 134.249 71.1045 134.168 70.5113 134.126C70.3595 134.118 70.2066 134.114 70.0532 134.116L69.8857 134.121L69.8239 134.123C69.732 134.13 69.7407 134.128 69.8519 134.117C69.8285 134.067 69.2539 134.206 69.1808 134.223C69.1076 134.241 68.9794 134.266 68.8822 134.3L68.7104 134.352C68.5659 134.396 68.7104 134.352 68.7402 134.346C68.5157 134.422 68.2983 134.516 68.0906 134.63C67.9818 134.686 67.8719 134.746 67.7628 134.809L67.6318 134.889C67.6108 134.894 67.4114 135.031 67.5092 134.966C67.6071 134.902 67.449 135.01 67.4442 135.013L67.271 135.144C67.174 135.221 67.0795 135.302 66.9879 135.387C66.8022 135.553 66.6338 135.733 66.4624 135.915C66.3775 136.006 66.5805 135.766 66.4536 135.917L66.3199 136.087C66.244 136.185 66.1792 136.284 66.1044 136.388C65.9666 136.599 65.8464 136.806 65.7288 137.026C65.6699 137.135 65.8049 136.851 65.7288 137.026C65.7009 137.092 65.6709 137.156 65.6437 137.226C65.5963 137.338 65.5536 137.454 65.5144 137.57C65.4751 137.686 65.4402 137.804 65.4069 137.922C65.3939 137.972 65.3808 138.022 65.3696 138.072C65.3583 138.122 65.3516 138.15 65.3437 138.19C65.3604 138.097 65.3641 138.08 65.3525 138.137C65.3116 138.391 65.2865 138.646 65.2772 138.903C65.2632 139.114 65.166 139.311 65.0068 139.452C64.8476 139.593 64.639 139.666 64.4262 139.655C64.2145 139.638 64.0175 139.541 63.8761 139.384C63.7348 139.227 63.6602 139.021 63.6678 138.81C63.722 136.815 64.8416 134.901 66.4604 133.751C67.2904 133.141 68.256 132.738 69.2754 132.577C70.5375 132.399 71.7973 132.637 73.0326 132.889C74.1933 133.126 75.3562 133.475 76.3587 134.125C77.3657 134.764 78.1201 135.727 78.4947 136.854C78.6917 137.454 78.7157 138.096 78.564 138.709C78.3907 139.368 77.8969 139.771 77.3223 140.088L77.141 140.19C77.1147 140.196 76.9335 140.333 77.0795 140.22L76.9735 140.306L76.9322 140.344C76.8727 140.408 76.8809 140.395 76.9557 140.308C76.9329 140.313 76.8805 140.419 76.8664 140.438C76.7711 140.566 76.8988 140.393 76.8823 140.393C76.8658 140.393 76.8303 140.526 76.8256 140.538L76.7977 140.638C76.8179 140.519 76.8216 140.502 76.809 140.589C76.7964 140.675 76.7991 140.773 76.7946 140.854C76.7882 141.037 76.7572 140.68 76.7946 140.854C76.8024 140.89 76.8103 140.927 76.8181 140.963C76.8275 141.076 76.8568 141.186 76.9046 141.288C76.8029 141.139 76.8755 141.213 76.9016 141.275C76.9277 141.336 76.9569 141.396 76.9896 141.454C77.0224 141.513 77.0443 141.555 77.0752 141.605L77.1379 141.701L77.0867 141.624C77.1054 141.711 77.2854 141.859 77.3501 141.921C77.38 141.949 77.412 141.979 77.4454 142.006C77.3193 141.897 77.5454 142.08 77.5691 142.097C77.6861 142.181 77.8073 142.259 77.9312 142.332C78.4505 142.644 79.0102 142.879 79.5412 143.168C80.728 143.809 81.6752 144.812 82.2423 146.029C82.4155 146.409 82.3085 146.925 81.8979 147.11C81.5198 147.285 80.9965 147.177 80.8117 146.769L80.8164 146.782Z" fill="#080806"/>
<path d="M79.2525 148.477C78.8273 147.897 78.3986 147.317 77.9275 146.769C77.6839 146.488 77.4419 146.214 77.1674 145.96C77.0354 145.831 76.9007 145.707 76.7618 145.59C76.901 145.709 76.6784 145.525 76.6539 145.505L76.4624 145.364C76.1787 145.157 75.8779 144.975 75.5632 144.819C75.7272 144.9 75.4664 144.778 75.4364 144.766C75.3481 144.73 75.2599 144.694 75.1706 144.662C74.9846 144.598 74.7971 144.543 74.6058 144.497C74.5166 144.474 74.4282 144.455 74.3384 144.437C74.48 144.465 74.1828 144.412 74.1491 144.409C73.9411 144.378 73.7325 144.354 73.5215 144.335C73.1031 144.296 72.6796 144.277 72.2583 144.26C72.1526 144.254 72.0492 144.227 71.9539 144.181C71.8587 144.135 71.7734 144.071 71.7031 143.992C71.6328 143.914 71.5788 143.822 71.5442 143.723C71.5095 143.623 71.4949 143.518 71.5012 143.413C71.5075 143.308 71.5345 143.205 71.5808 143.111C71.627 143.016 71.6916 142.931 71.7708 142.862C71.85 142.792 71.9422 142.738 72.0423 142.704C72.1423 142.669 72.2482 142.654 72.3539 142.661C73.7631 142.725 75.1513 142.844 76.4317 143.475C77.5215 144.013 78.4282 144.882 79.2016 145.796C79.6365 146.311 80.0387 146.853 80.4378 147.397C80.6933 147.734 80.7434 148.231 80.3845 148.529C80.0717 148.778 79.5116 148.839 79.2452 148.477L79.2525 148.477Z" fill="#080806"/>
<path d="M87.7832 92.4318C90.1836 94.431 91.5335 97.3614 91.9745 100.409C92.4626 103.777 91.9405 107.166 91.3659 110.489C90.8055 113.717 90.1703 116.946 89.1294 120.06C88.158 122.96 86.8268 125.772 84.9708 128.22C83.1941 130.561 80.9677 132.599 78.3236 133.929C78.0084 134.087 77.6872 134.234 77.3601 134.371C77.2017 134.448 77.0226 134.474 76.8487 134.444C76.6749 134.413 76.5154 134.328 76.3934 134.202C76.2749 134.07 76.2028 133.904 76.1881 133.728C76.1734 133.551 76.2168 133.375 76.3118 133.226C76.839 132.536 77.327 131.817 77.7734 131.072C77.9925 130.706 78.2024 130.334 78.4033 129.956C78.502 129.768 78.5981 129.576 78.6926 129.385L78.736 129.298L78.7774 129.209C78.8293 129.102 78.8792 128.993 78.9287 128.882L79.8631 129.915L72.9073 130.56C72.4891 130.6 72.03 130.407 71.9509 129.945C71.8862 129.559 72.122 129.037 72.5707 128.995L79.5265 128.349C79.6643 128.324 79.806 128.334 79.9394 128.376C80.0727 128.418 80.1935 128.493 80.2911 128.592C80.3882 128.697 80.4552 128.826 80.4852 128.965C80.5151 129.104 80.5068 129.249 80.4613 129.384C79.7074 131.052 78.7698 132.633 77.6655 134.097L76.6172 132.952C77.2561 132.682 77.8768 132.371 78.4757 132.022C78.7779 131.843 79.0746 131.656 79.3656 131.459C79.4057 131.433 79.5807 131.31 79.4551 131.398L79.6534 131.256C79.8125 131.144 79.9554 131.034 80.1028 130.919C80.6502 130.494 81.1729 130.039 81.6686 129.556C81.9219 129.309 82.1686 129.057 82.4085 128.798C82.5196 128.676 82.6308 128.555 82.7394 128.43L82.9028 128.244C82.963 128.175 82.8905 128.246 82.8834 128.264L82.9989 128.129C83.8977 127.043 84.6967 125.878 85.3862 124.651C85.553 124.353 85.7147 124.052 85.8713 123.747C85.946 123.6 86.0206 123.453 86.0931 123.305L86.1058 123.279L86.156 123.172C86.208 123.064 86.2578 122.955 86.3077 122.847C86.6331 122.137 86.9285 121.416 87.2016 120.685C87.739 119.219 88.1954 117.725 88.569 116.21C88.7696 115.44 88.9371 114.66 89.1011 113.882C89.1792 113.501 89.255 113.121 89.3285 112.742C89.3251 112.726 89.3634 112.563 89.3466 112.647C89.3297 112.731 89.3571 112.594 89.3567 112.592L89.4159 112.279C89.4538 112.09 89.489 111.887 89.5241 111.693C90.1074 108.504 90.7163 105.246 90.5258 101.992C90.5172 101.952 90.5208 101.909 90.5192 101.868C90.5176 101.827 90.5081 101.688 90.5123 101.768C90.5165 101.847 90.5003 101.712 90.4999 101.71C90.4887 101.658 90.4911 101.601 90.4848 101.546C90.4668 101.352 90.4449 101.156 90.4199 100.963C90.3749 100.609 90.3125 100.242 90.2397 99.8867C90.1669 99.5311 90.0901 99.191 89.9909 98.8574C89.943 98.6857 89.8897 98.5061 89.8323 98.3327C89.8147 98.251 89.7792 98.1712 89.7529 98.0914C89.745 98.0548 89.7271 98.0223 89.7161 97.9882C89.6836 97.8969 89.7575 98.0958 89.7075 97.9482C89.4522 97.2816 89.1421 96.6371 88.7803 96.0211C88.6869 95.8591 88.5915 95.7138 88.4986 95.5626L88.4387 95.4717C88.4346 95.4526 88.3389 95.3311 88.3961 95.4098C88.4534 95.4886 88.3761 95.385 88.3708 95.377C88.335 95.3301 88.3007 95.281 88.2646 95.2323C88.0551 94.9545 87.8303 94.6884 87.5914 94.4352C87.4678 94.3032 87.3414 94.1755 87.2102 94.0507L87.0232 93.8795C86.9887 93.8468 86.9511 93.8166 86.9148 93.7843C86.8786 93.752 86.7987 93.6871 86.9126 93.7739C86.5912 93.5058 86.4016 93.0496 86.6747 92.6677C86.9027 92.3481 87.444 92.1402 87.7902 92.4303L87.7832 92.4318Z" fill="#080806"/>
<path d="M61.098 92.7938C60.5841 93.3251 60.0773 93.864 59.5879 94.4156L59.2557 94.7955C59.2336 94.8202 59.0523 95.0334 59.153 94.9138L58.968 95.135C58.729 95.4205 58.4929 95.7109 58.2665 96.0119C57.3576 97.157 56.5616 98.3862 55.8894 99.6826L55.7603 99.9338C55.8263 99.7979 55.7344 99.992 55.716 100.034C55.6367 100.202 55.5617 100.373 55.4905 100.544C55.3504 100.875 55.2227 101.209 55.1075 101.548C54.9923 101.886 54.8916 102.227 54.8055 102.571C54.7645 102.738 54.7256 102.906 54.6902 103.074C54.6829 103.108 54.6774 103.142 54.6698 103.174C54.6443 103.294 54.6896 103.054 54.6698 103.174L54.6183 103.48C54.5096 104.182 54.4674 104.892 54.4922 105.602C54.4943 105.705 54.4999 105.808 54.5072 105.91C54.5164 106.081 54.5132 105.998 54.5176 105.959C54.53 106.016 54.5279 106.075 54.5358 106.137C54.5585 106.37 54.5886 106.604 54.6253 106.834C54.6948 107.285 54.7853 107.731 54.8898 108.175C55.3102 109.942 55.9249 111.66 56.4128 113.409C56.9007 115.159 57.3257 116.931 57.6835 118.714C58.4054 122.324 58.8608 125.981 59.0459 129.657C59.0904 130.503 59.1074 131.349 59.1375 132.195C59.1527 132.556 59.1681 132.9 59.1928 133.253C59.1958 133.267 59.2022 133.382 59.1988 133.281C59.1953 133.18 59.207 133.319 59.2122 133.343C59.2186 133.424 59.2266 133.504 59.2347 133.584C59.2529 133.762 59.2727 133.94 59.2988 134.129C59.3473 134.482 59.4051 134.819 59.484 135.161C59.5188 135.323 59.5536 135.484 59.6076 135.642C59.6237 135.717 59.652 135.789 59.6751 135.862C59.6841 135.904 59.7036 135.944 59.7165 135.986C59.7465 136.084 59.6616 135.851 59.7187 135.997C59.8369 136.303 59.9786 136.6 60.1423 136.885C60.1797 136.948 60.2201 137.009 60.2592 137.071C60.279 137.103 60.3483 137.196 60.245 137.056C60.2704 137.089 60.2944 137.124 60.3197 137.157C60.4203 137.289 60.5288 137.415 60.6446 137.535C60.6945 137.588 60.7479 137.64 60.7994 137.684C60.8509 137.727 60.9821 137.827 60.8587 137.738C60.9967 137.844 61.1357 137.945 61.289 138.036C61.4683 138.152 61.594 138.333 61.6385 138.541C61.683 138.748 61.6426 138.965 61.5262 139.143C61.4098 139.322 61.227 139.447 61.0179 139.491C60.8088 139.535 60.5907 139.495 60.4114 139.38C57.7268 137.703 57.5968 134.186 57.5223 131.369C57.4726 129.477 57.3586 127.746 57.1692 125.921C56.9799 124.095 56.713 122.223 56.381 120.39C56.0489 118.556 55.6465 116.735 55.1747 114.933C54.7029 113.131 54.1122 111.363 53.6075 109.57C53.125 107.854 52.7984 106.088 52.9278 104.305C53.0467 102.811 53.4123 101.346 54.01 99.9698C55.2286 97.1203 57.1673 94.6561 59.27 92.4006C59.5212 92.1326 59.7753 91.8663 60.0322 91.6018C60.1907 91.46 60.399 91.3859 60.612 91.3958C60.825 91.4056 61.0255 91.4986 61.1698 91.6544C61.3092 91.8131 61.3816 92.019 61.3719 92.2294C61.3622 92.4399 61.2712 92.6385 61.1179 92.7841L61.098 92.7938Z" fill="#080806"/>
<path d="M143.051 127.087C143.352 126.089 143.604 125.08 143.807 124.06C143.819 123.999 143.832 123.94 143.841 123.87C143.85 123.801 143.879 123.68 143.852 123.817C143.875 123.696 143.896 123.573 143.919 123.45C143.967 123.179 144.013 122.908 144.056 122.637C144.139 122.112 144.213 121.587 144.275 121.059C144.532 118.889 144.642 116.704 144.605 114.519C144.596 113.975 144.58 113.433 144.555 112.892C144.544 112.644 144.529 112.394 144.514 112.145C144.508 112.022 144.499 111.899 144.491 111.775C144.484 111.7 144.479 111.626 144.474 111.553C144.461 111.374 144.484 111.667 144.468 111.472C144.385 110.437 144.276 109.403 144.114 108.377C144.028 107.832 143.922 107.289 143.785 106.754C143.721 106.506 143.65 106.261 143.57 106.018L143.496 105.801C143.503 105.834 143.549 105.938 143.493 105.787C143.436 105.635 143.383 105.505 143.321 105.365C143.22 105.133 143.111 104.906 142.992 104.685C142.932 104.575 142.868 104.466 142.802 104.362C142.762 104.298 142.72 104.236 142.678 104.172C142.578 104.011 142.727 104.229 142.623 104.095C142.33 103.703 141.996 103.343 141.627 103.021C141.769 103.145 141.537 102.951 141.493 102.916C141.41 102.854 141.327 102.793 141.241 102.734C141.054 102.604 140.861 102.482 140.663 102.369C140.573 102.319 140.48 102.27 140.389 102.222L140.25 102.151C140.136 102.092 140.424 102.229 140.237 102.145C140.051 102.061 139.813 101.961 139.596 101.881C139.175 101.726 138.745 101.597 138.308 101.495C138.192 101.467 138.077 101.441 137.96 101.416L137.801 101.385C137.993 101.424 137.78 101.38 137.75 101.376C137.513 101.333 137.274 101.295 137.036 101.266C134.963 100.996 132.855 101.064 130.779 101.167C130.175 101.197 129.567 101.232 128.957 101.273C128.402 101.311 127.901 101.352 127.267 101.411C126.026 101.526 124.789 101.668 123.555 101.837C121.114 102.175 118.681 102.589 116.266 103.086C113.921 103.569 111.578 104.102 109.268 104.736C108.846 104.853 108.426 104.977 108.011 105.114L107.71 105.214C107.664 105.224 107.475 105.264 107.675 105.222C107.634 105.233 107.594 105.246 107.556 105.264C107.328 105.348 107.104 105.436 106.88 105.529C106.469 105.702 106.063 105.885 105.673 106.104C105.494 106.203 105.318 106.306 105.146 106.413C105.06 106.466 104.985 106.52 104.891 106.576C104.72 106.689 105.03 106.474 104.866 106.594L104.722 106.7C104.39 106.945 104.082 107.219 103.799 107.518C103.758 107.559 103.72 107.604 103.682 107.647C103.584 107.755 103.68 107.636 103.704 107.622C103.63 107.697 103.564 107.781 103.509 107.871C103.384 108.041 103.269 108.219 103.165 108.402C103.139 108.452 102.994 108.75 103.082 108.553C103.043 108.643 103.002 108.732 102.957 108.825C102.87 109.043 102.8 109.267 102.746 109.496C102.735 109.543 102.723 109.593 102.713 109.641C102.746 109.477 102.703 109.718 102.7 109.731C102.683 109.856 102.669 109.98 102.659 110.103C102.64 110.375 102.637 110.647 102.651 110.918C102.663 111.161 102.628 110.759 102.669 111L102.684 111.148C102.7 111.272 102.719 111.395 102.74 111.519C102.786 111.793 102.846 112.064 102.916 112.335C102.985 112.606 103.059 112.85 103.141 113.111C103.185 113.246 103.23 113.38 103.276 113.515C103.286 113.564 103.309 113.612 103.327 113.661C103.345 113.71 103.361 113.759 103.379 113.808C103.349 113.727 103.352 113.732 103.383 113.825C103.799 114.954 104.232 116.073 104.617 117.213C105.386 119.552 105.968 121.948 106.357 124.379C106.524 125.409 106.671 126.442 106.867 127.468C106.966 127.967 107.073 128.464 107.202 128.955C107.263 129.186 107.328 129.416 107.397 129.641C107.433 129.756 107.47 129.868 107.509 129.981C107.524 130.051 107.554 130.115 107.578 130.183C107.513 130.004 107.596 130.226 107.602 130.245C107.779 130.714 107.991 131.168 108.237 131.605C108.358 131.818 108.487 132.021 108.623 132.223C108.537 132.096 108.604 132.198 108.623 132.223C108.664 132.28 108.705 132.335 108.748 132.391C108.832 132.501 108.922 132.609 109.014 132.715C109.168 132.894 109.331 133.064 109.503 133.226C109.587 133.304 109.673 133.38 109.761 133.456C109.622 133.339 109.796 133.483 109.816 133.497L109.978 133.621C110.362 133.902 110.77 134.149 111.197 134.359C111.402 134.459 111.05 134.297 111.256 134.386L111.414 134.456C111.517 134.501 111.616 134.546 111.729 134.585C111.975 134.682 112.224 134.767 112.476 134.847C112.942 134.988 113.415 135.105 113.894 135.198C114.045 135.229 113.926 135.204 113.894 135.198L114.101 135.234L114.448 135.289C114.702 135.328 114.956 135.363 115.203 135.392C115.71 135.452 116.219 135.494 116.73 135.527C117.94 135.609 119.142 135.642 120.335 135.624C120.921 135.616 121.504 135.597 122.09 135.567C122.366 135.552 122.645 135.535 122.923 135.516L123.173 135.497L123.249 135.492L123.748 135.447C126.108 135.226 128.446 134.822 130.743 134.239C131.889 133.948 133.023 133.612 134.146 133.231L134.54 133.094C134.54 133.094 134.801 133.003 134.653 133.056L134.809 132.999C135.098 132.896 135.384 132.787 135.67 132.677C136.242 132.458 136.807 132.226 137.37 131.983C138.274 131.605 139.153 131.17 140.003 130.682C140.189 130.57 140.373 130.454 140.554 130.334C140.58 130.318 140.76 130.192 140.597 130.307L140.728 130.213C140.825 130.144 140.92 130.073 141.011 130C141.379 129.716 141.72 129.4 142.032 129.056L142.114 128.963C141.984 129.113 142.114 128.963 142.14 128.929C142.203 128.848 142.266 128.767 142.325 128.684C142.444 128.518 142.553 128.345 142.652 128.167L142.738 128.005C142.724 128.028 142.668 128.158 142.727 128.024C142.77 127.931 142.81 127.837 142.85 127.741C142.931 127.527 142.996 127.308 143.045 127.085C143.14 126.673 143.683 126.432 144.062 126.574C144.261 126.645 144.426 126.789 144.522 126.977C144.617 127.165 144.637 127.383 144.576 127.585C144.131 129.569 142.538 131.009 140.86 132.031C139.988 132.544 139.081 132.997 138.147 133.387C136.996 133.887 135.822 134.337 134.635 134.744C129.971 136.336 125.081 137.174 120.151 137.226C117.873 137.25 115.558 137.157 113.321 136.708C111.25 136.292 109.226 135.411 107.823 133.796C106.398 132.157 105.733 130.037 105.318 127.946C105.11 126.9 104.959 125.84 104.791 124.785C104.591 123.543 104.348 122.309 104.052 121.084C103.755 119.859 103.407 118.657 103.012 117.466C102.909 117.16 102.804 116.856 102.697 116.554L102.668 116.471C102.679 116.523 102.679 116.523 102.668 116.471C102.657 116.419 102.618 116.335 102.592 116.265C102.535 116.109 102.476 115.952 102.416 115.794C102.199 115.221 101.987 114.65 101.775 114.073C101.36 112.985 101.114 111.841 101.045 110.68C101.007 109.603 101.262 108.536 101.784 107.59C102.668 105.973 104.317 104.896 105.994 104.177C107.935 103.34 110.031 102.869 112.101 102.376C117.032 101.171 122.044 100.323 127.098 99.8391C129.569 99.5959 132.051 99.4824 134.533 99.4991C136.466 99.528 138.469 99.722 140.279 100.434C141.226 100.799 142.102 101.326 142.867 101.989C143.665 102.706 144.3 103.584 144.728 104.565C145.644 106.62 145.877 108.928 146.053 111.146C146.412 115.635 146.235 120.174 145.338 124.596C145.133 125.604 144.886 126.602 144.589 127.586C144.52 127.784 144.375 127.948 144.185 128.042C143.995 128.136 143.776 128.151 143.575 128.085C143.374 128.02 143.207 127.878 143.11 127.691C143.013 127.504 142.995 127.286 143.058 127.085L143.051 127.087Z" fill="#080806"/>
<path d="M150.144 111.152C149.096 109.08 148.05 106.523 149.249 104.291C149.902 103.069 151.18 102.385 152.336 101.717C153.616 100.973 154.898 100.233 156.191 99.5103C158.773 98.0377 161.433 96.7059 164.16 95.5208C166.899 94.3578 169.746 93.3409 172.738 93.137C173.45 93.0842 174.165 93.0934 174.874 93.1645C175.585 93.2407 176.309 93.4049 176.906 93.8235C177.951 94.5451 178.421 95.7601 178.562 96.9761C178.714 98.2806 178.605 99.5953 178.619 100.905C178.629 101.649 178.658 102.392 178.705 103.135L178.722 103.392C178.728 103.421 178.74 103.628 178.731 103.521L178.779 104.076C178.815 104.447 178.854 104.817 178.897 105.186C179.073 106.664 179.328 108.132 179.659 109.584C179.994 111.037 180.399 112.471 180.709 113.93C180.864 114.648 180.99 115.372 181.074 116.102C181.175 116.804 181.205 117.515 181.164 118.224C181.121 118.925 180.9 119.605 180.521 120.199C180.113 120.799 179.536 121.224 178.94 121.627C176.621 123.181 174.123 124.453 171.499 125.415C168.817 126.382 166.02 126.985 163.16 126.997C162.48 126.998 161.8 126.964 161.124 126.895C160.91 126.883 160.711 126.787 160.569 126.629C160.427 126.47 160.354 126.262 160.366 126.05C160.379 125.838 160.475 125.639 160.635 125.498C160.795 125.357 161.004 125.284 161.218 125.296C161.883 125.361 162.552 125.391 163.221 125.387C163.841 125.388 164.462 125.357 165.079 125.293C166.408 125.153 167.721 124.9 169.006 124.538C169.317 124.451 169.625 124.359 169.932 124.262L170.393 124.112L170.621 124.032L170.773 123.98L170.799 123.974C171.409 123.752 172.011 123.512 172.605 123.253C173.846 122.71 175.054 122.098 176.225 121.419C176.808 121.083 177.383 120.731 177.95 120.364C178.076 120.283 178.201 120.202 178.326 120.117L178.398 120.067L178.574 119.933C178.69 119.841 178.801 119.747 178.907 119.644L179.057 119.489C178.946 119.605 179.134 119.387 179.152 119.361C179.192 119.302 179.231 119.242 179.267 119.18C179.278 119.162 179.38 118.956 179.307 119.117C179.363 118.989 179.412 118.857 179.451 118.723C179.471 118.657 179.486 118.588 179.504 118.52C179.564 118.302 179.489 118.673 179.518 118.448C179.541 118.283 179.561 118.119 179.571 117.953C179.599 117.374 179.567 116.794 179.477 116.222C179.114 113.36 178.151 110.611 177.66 107.77C177.165 104.933 176.954 102.053 177.029 99.1739C177.043 98.6253 177.048 98.0786 177.014 97.5219C177.001 97.2974 177.036 97.6991 177.004 97.4714C176.99 97.4071 176.99 97.3397 176.981 97.2743C176.966 97.1429 176.947 97.0141 176.923 96.8847C176.899 96.7552 176.869 96.6325 176.842 96.5072C176.829 96.4446 176.815 96.3837 176.791 96.3234C176.767 96.263 176.708 96.0119 176.771 96.2277C176.693 95.9946 176.584 95.7731 176.446 95.5692C176.342 95.4004 176.557 95.6947 176.426 95.5444C176.386 95.5003 176.349 95.4516 176.309 95.4075C176.268 95.3634 176.228 95.3193 176.184 95.2777C176.14 95.236 176.124 95.2212 176.093 95.1952C176.173 95.2618 176.176 95.2666 176.107 95.2103C175.994 95.1361 175.892 95.0597 175.766 94.9972C175.909 95.0724 175.692 94.9676 175.678 94.9615L175.537 94.9114C175.394 94.8635 175.248 94.8247 175.1 94.7952C175.265 94.8275 175.019 94.7834 175.008 94.7822C174.908 94.7671 174.806 94.756 174.705 94.7465C174.021 94.6843 173.332 94.6776 172.646 94.7263C172.374 94.7443 172.8 94.7082 172.529 94.7366L172.28 94.7606C172.114 94.7796 171.95 94.8 171.784 94.8225C171.429 94.8726 171.072 94.934 170.714 95.0065C170.029 95.1523 169.35 95.3223 168.681 95.5264C167.963 95.7448 167.447 95.9255 166.817 96.1633C164.167 97.189 161.587 98.3845 159.092 99.7423C157.824 100.42 156.569 101.121 155.321 101.834C154.149 102.506 152.958 103.161 151.817 103.884C151.611 104.015 151.94 103.791 151.744 103.934L151.565 104.067C151.449 104.155 151.336 104.25 151.227 104.35C151.118 104.448 151.016 104.552 150.918 104.661C151.03 104.534 150.876 104.721 150.868 104.732C150.812 104.806 150.761 104.882 150.713 104.959C150.666 105.037 150.649 105.068 150.619 105.123C150.588 105.179 150.519 105.341 150.596 105.161C150.548 105.273 150.501 105.385 150.464 105.502C150.427 105.619 150.398 105.734 150.369 105.851C150.419 105.659 150.369 105.851 150.365 105.887C150.353 105.966 150.345 106.047 150.336 106.127C150.326 106.25 150.321 106.372 150.322 106.494C150.321 106.556 150.323 106.618 150.324 106.676C150.326 106.733 150.329 106.926 150.331 106.709C150.348 106.985 150.391 107.259 150.46 107.527C150.515 107.785 150.589 108.045 150.667 108.287L150.73 108.476C150.736 108.507 150.818 108.717 150.74 108.526C150.796 108.672 150.853 108.819 150.911 108.963C151.111 109.451 151.34 109.928 151.586 110.398C151.635 110.491 151.665 110.593 151.674 110.698C151.683 110.802 151.671 110.908 151.639 111.008C151.607 111.109 151.556 111.202 151.488 111.282C151.42 111.363 151.336 111.429 151.242 111.478C151.148 111.526 151.046 111.556 150.94 111.565C150.835 111.574 150.729 111.563 150.628 111.531C150.527 111.499 150.433 111.448 150.352 111.381C150.271 111.313 150.204 111.23 150.155 111.137L150.144 111.152Z" fill="#080806"/>
<path d="M102.031 109.677C101.774 109.57 101.51 109.481 101.241 109.41L101.047 109.362C101.02 109.355 100.799 109.321 100.986 109.348C100.851 109.328 100.719 109.307 100.584 109.294C100.315 109.266 100.045 109.255 99.7751 109.262C99.6621 109.264 99.5498 109.27 99.4378 109.277C99.6417 109.263 99.4133 109.283 99.3835 109.289L99.1125 109.323C98.5619 109.407 98.0196 109.538 97.4918 109.715C97.4673 109.72 97.2433 109.803 97.4253 109.729L97.2233 109.803L96.8857 109.937C96.5942 110.057 96.3069 110.186 96.024 110.324C93.7587 111.423 91.725 112.969 89.6584 114.387L75.5783 124.049L67.6948 129.459C67.3467 129.697 66.7818 129.472 66.6086 129.118C66.4055 128.684 66.5799 128.294 66.9517 128.039L81.171 118.283L88.3172 113.379C89.4878 112.577 90.6582 111.774 91.8284 110.971C92.7882 110.303 93.7867 109.691 94.8189 109.14C97.1648 107.913 99.9692 107.107 102.533 108.157C102.923 108.316 103.208 108.741 103.048 109.168C102.903 109.55 102.445 109.842 102.029 109.679L102.031 109.677Z" fill="#080806"/>
<path d="M102.19 112.24C101.042 112.352 99.9089 112.582 98.8092 112.929C98.6875 112.968 98.5675 113.006 98.4466 113.048L98.2298 113.121C98.3696 113.073 98.2456 113.118 98.2175 113.124C97.9323 113.228 97.6468 113.34 97.373 113.455C96.8535 113.671 96.3439 113.906 95.8414 114.159C94.8265 114.679 93.8404 115.253 92.8874 115.879C92.6459 116.033 92.4059 116.192 92.1673 116.354L91.8481 116.573L91.6518 116.707L91.6295 116.723L91.499 116.815C91.0227 117.149 90.5511 117.488 90.0843 117.832C88.1974 119.218 86.3575 120.668 84.4374 122.01C82.3821 123.449 80.2425 124.767 78.0298 125.954C75.5689 127.271 73.0213 128.421 70.4043 129.396C70.0108 129.541 69.5158 129.479 69.3164 129.054C69.1509 128.702 69.2372 128.133 69.6594 127.975C74.3492 126.232 78.8086 123.928 82.9393 121.115C83.3831 120.812 83.8032 120.517 84.3052 120.151C84.7702 119.81 85.234 119.469 85.6967 119.128C86.6427 118.417 87.5969 117.694 88.5524 116.985C90.4554 115.572 92.4007 114.194 94.4873 113.074C96.7724 111.845 99.2628 110.933 101.863 110.686C102.281 110.646 102.74 110.839 102.82 111.301C102.884 111.687 102.648 112.208 102.2 112.251L102.19 112.24Z" fill="#080806"/>
<path d="M183.721 159.028C183.966 159.451 184.223 159.865 184.5 160.267C184.504 160.288 184.611 160.425 184.538 160.324L184.632 160.453C184.7 160.55 184.77 160.646 184.841 160.74C184.993 160.94 185.147 161.137 185.305 161.33C185.926 162.087 186.606 162.794 187.339 163.444C187.655 163.722 187.598 164.317 187.287 164.574C187.126 164.712 186.919 164.783 186.707 164.774C186.495 164.764 186.295 164.675 186.148 164.523C184.613 163.157 183.312 161.553 182.293 159.774C182.196 159.585 182.178 159.366 182.242 159.164C182.306 158.962 182.448 158.793 182.636 158.693C182.826 158.6 183.046 158.583 183.248 158.646C183.45 158.71 183.62 158.848 183.722 159.033L183.721 159.028Z" fill="#080806"/>
<path d="M180.803 171.612C182.203 172.462 183.348 173.67 184.119 175.11C184.215 175.298 184.233 175.517 184.169 175.719C184.105 175.921 183.964 176.089 183.776 176.189C183.585 176.286 183.363 176.305 183.158 176.242C182.953 176.178 182.781 176.038 182.679 175.851C182.595 175.687 182.511 175.543 182.418 175.395C182.37 175.315 182.32 175.234 182.269 175.16C182.25 175.123 182.226 175.089 182.199 175.058C182.254 175.134 182.263 175.148 182.229 175.101C182.225 175.082 182.205 175.068 182.192 175.051C181.98 174.758 181.748 174.48 181.499 174.218C181.378 174.091 181.253 173.968 181.124 173.848C181.056 173.785 180.986 173.723 180.916 173.662C180.846 173.6 180.894 173.628 180.931 173.675C180.902 173.645 180.87 173.619 180.835 173.595C180.545 173.363 180.238 173.15 179.918 172.959C179.739 172.843 179.613 172.662 179.568 172.454C179.524 172.246 179.564 172.029 179.68 171.851C179.797 171.673 179.979 171.547 180.189 171.503C180.398 171.458 180.616 171.498 180.796 171.614L180.803 171.612Z" fill="#080806"/>
<path d="M176.669 181.686L179.294 186.51C179.343 186.603 179.373 186.705 179.382 186.81C179.391 186.914 179.379 187.02 179.347 187.12C179.315 187.22 179.264 187.314 179.196 187.394C179.128 187.475 179.044 187.541 178.95 187.59C178.856 187.638 178.754 187.668 178.648 187.677C178.543 187.686 178.437 187.675 178.336 187.643C178.235 187.611 178.141 187.56 178.06 187.493C177.979 187.425 177.912 187.342 177.864 187.249L175.242 182.425C175.193 182.331 175.163 182.229 175.154 182.125C175.145 182.02 175.157 181.914 175.189 181.814C175.221 181.714 175.272 181.621 175.34 181.54C175.408 181.46 175.492 181.393 175.586 181.345C175.68 181.296 175.782 181.266 175.888 181.257C175.993 181.248 176.099 181.26 176.2 181.291C176.301 181.323 176.395 181.374 176.476 181.442C176.557 181.509 176.624 181.592 176.673 181.685L176.669 181.686Z" fill="#080806"/>
<path d="M170.849 189.928C171.43 190.944 171.779 192.076 171.871 193.241C171.964 194.407 171.797 195.579 171.384 196.674C171.352 196.776 171.3 196.87 171.231 196.951C171.162 197.032 171.078 197.098 170.983 197.147C170.888 197.195 170.784 197.225 170.678 197.233C170.571 197.241 170.464 197.228 170.363 197.195C170.261 197.162 170.168 197.109 170.087 197.04C170.006 196.971 169.94 196.886 169.893 196.791C169.846 196.696 169.818 196.592 169.811 196.487C169.804 196.381 169.818 196.275 169.853 196.174C169.947 195.93 170.028 195.68 170.095 195.426C170.125 195.309 170.151 195.192 170.177 195.074C170.154 195.186 170.18 195.088 170.186 195.029L170.214 194.852C170.251 194.589 170.274 194.325 170.283 194.06C170.287 193.94 170.286 193.82 170.284 193.696C170.283 193.624 170.28 193.552 170.277 193.48C170.273 193.46 170.262 193.263 170.27 193.37C170.279 193.477 170.259 193.258 170.26 193.261C170.247 193.202 170.247 193.14 170.238 193.084C170.221 192.953 170.2 192.821 170.176 192.692C170.128 192.443 170.067 192.198 169.994 191.956C169.981 191.896 169.958 191.84 169.94 191.785C169.936 191.764 169.849 191.546 169.916 191.714C169.872 191.603 169.829 191.49 169.78 191.379C169.674 191.136 169.553 190.899 169.419 190.67C169.322 190.481 169.304 190.262 169.369 190.061C169.433 189.859 169.575 189.69 169.764 189.591C169.954 189.497 170.173 189.48 170.375 189.544C170.578 189.607 170.748 189.746 170.849 189.931L170.849 189.928Z" fill="#080806"/>
<path d="M157.799 195.756C158.753 198.078 158.179 200.749 156.496 202.591C156.032 203.093 155.483 203.51 154.873 203.824C154.779 203.872 154.677 203.902 154.571 203.911C154.466 203.92 154.36 203.909 154.259 203.877C154.158 203.845 154.064 203.794 153.983 203.727C153.902 203.659 153.835 203.576 153.786 203.483C153.738 203.39 153.708 203.288 153.699 203.183C153.69 203.078 153.701 202.973 153.733 202.873C153.765 202.772 153.817 202.679 153.885 202.599C153.953 202.518 154.036 202.452 154.13 202.403C154.275 202.327 154.419 202.247 154.557 202.158L154.66 202.09C154.572 202.151 154.564 202.156 154.637 202.095C154.71 202.034 154.767 201.999 154.83 201.947C154.957 201.844 155.078 201.736 155.196 201.622C155.254 201.564 155.311 201.506 155.366 201.447C155.393 201.418 155.57 201.211 155.436 201.374C155.644 201.122 155.832 200.853 155.996 200.571C156.038 200.5 156.077 200.428 156.116 200.364L156.171 200.254C156.127 200.347 156.125 200.353 156.162 200.272C156.224 200.132 156.285 199.991 156.338 199.847C156.392 199.703 156.439 199.556 156.481 199.409C156.504 199.33 156.525 199.251 156.543 199.172C156.553 199.134 156.607 198.866 156.568 199.076C156.627 198.755 156.659 198.43 156.663 198.104C156.664 198.022 156.663 197.94 156.66 197.86C156.659 197.813 156.671 197.546 156.659 197.771C156.654 197.608 156.631 197.446 156.592 197.288C156.558 197.128 156.524 196.97 156.479 196.814C156.462 196.734 156.437 196.656 156.405 196.581C156.507 196.781 156.387 196.539 156.369 196.496C156.21 196.109 156.29 195.603 156.712 195.417C157.078 195.248 157.628 195.342 157.799 195.756V195.756Z" fill="#080806"/>
<path d="M145.35 197.451C144.96 198.295 144.371 199.033 143.632 199.602C142.894 200.17 142.027 200.554 141.108 200.718C140.899 200.763 140.681 200.723 140.501 200.607C140.322 200.492 140.196 200.311 140.151 200.103C140.107 199.896 140.147 199.679 140.263 199.501C140.379 199.322 140.562 199.197 140.771 199.153C140.958 199.124 141.144 199.084 141.326 199.035C141.411 199.022 141.492 198.996 141.568 198.958C141.475 198.992 141.456 198.998 141.512 198.97L141.571 198.946L141.687 198.898C141.862 198.824 142.032 198.739 142.197 198.646C142.28 198.599 142.359 198.549 142.44 198.498L142.546 198.428C142.456 198.489 142.483 198.47 142.556 198.425C142.699 198.318 142.837 198.203 142.967 198.081C143.036 198.018 143.104 197.951 143.17 197.882L143.256 197.791C143.313 197.728 143.335 197.698 143.269 197.788C143.382 197.65 143.489 197.509 143.588 197.356C143.639 197.278 143.689 197.197 143.736 197.116C143.763 197.07 143.788 197.025 143.812 196.978C143.837 196.931 143.896 196.805 143.821 196.965C143.894 196.771 144.033 196.608 144.214 196.505C144.408 196.408 144.632 196.39 144.839 196.455C145.205 196.592 145.544 197.06 145.351 197.465L145.35 197.451Z" fill="#080806"/>
<path d="M131.573 196.53C130.829 198.743 129.26 200.59 127.188 201.69C126.998 201.789 126.777 201.808 126.573 201.744C126.369 201.681 126.199 201.539 126.101 201.351C126.002 201.162 125.982 200.943 126.047 200.74C126.111 200.537 126.254 200.368 126.443 200.27C126.667 200.153 126.885 200.027 127.094 199.89L127.267 199.775C127.106 199.88 127.303 199.747 127.319 199.735C127.412 199.666 127.503 199.597 127.592 199.525C127.789 199.367 127.978 199.199 128.16 199.024C128.259 198.929 128.355 198.83 128.449 198.73C128.489 198.689 128.528 198.646 128.566 198.603L128.658 198.5L128.723 198.421L128.851 198.259C128.928 198.159 129.002 198.056 129.075 197.953C129.212 197.742 129.35 197.531 129.479 197.321C129.542 197.212 129.602 197.101 129.658 196.988C129.675 196.956 129.762 196.772 129.691 196.927L129.762 196.77C129.869 196.529 129.961 196.284 130.045 196.035C130.077 195.934 130.129 195.84 130.198 195.759C130.267 195.678 130.351 195.611 130.446 195.563C130.541 195.514 130.645 195.485 130.751 195.477C130.857 195.468 130.964 195.481 131.066 195.514C131.167 195.547 131.261 195.6 131.342 195.67C131.422 195.739 131.488 195.824 131.536 195.919C131.583 196.014 131.611 196.117 131.618 196.223C131.625 196.329 131.61 196.435 131.575 196.535L131.573 196.53Z" fill="#080806"/>
<path d="M120.616 193.823C120.336 193.91 120.057 193.999 119.78 194.094C119.74 194.103 119.611 194.156 119.709 194.118L119.512 194.191C119.368 194.244 119.225 194.298 119.082 194.354C118.551 194.561 118.027 194.789 117.512 195.035C116.47 195.534 115.465 196.108 114.506 196.751C114.156 196.986 113.593 196.764 113.419 196.412C113.218 195.98 113.387 195.584 113.763 195.331C115.771 193.992 117.967 192.957 120.279 192.258C120.488 192.215 120.706 192.255 120.885 192.371C121.064 192.486 121.19 192.666 121.236 192.873C121.275 193.08 121.233 193.294 121.117 193.471C121.002 193.648 120.822 193.774 120.616 193.823V193.823Z" fill="#080806"/>
<path d="M113.442 187.025C113.177 189.43 111.417 191.405 109.147 192.181C108.528 192.387 107.878 192.483 107.226 192.466C107.013 192.452 106.815 192.355 106.673 192.196C106.532 192.038 106.458 191.831 106.469 191.619C106.486 191.409 106.584 191.213 106.742 191.073C106.901 190.933 107.108 190.859 107.32 190.867C107.403 190.869 107.484 190.869 107.566 190.867C107.617 190.866 107.877 190.883 107.655 190.865C107.818 190.862 107.979 190.839 108.137 190.797C108.275 190.767 108.413 190.734 108.549 190.698C108.628 190.681 108.704 190.651 108.781 190.625C108.858 190.6 108.86 190.608 108.748 190.632L108.861 190.588C109.144 190.474 109.417 190.338 109.678 190.18L109.884 190.047C110.055 189.934 109.747 190.152 109.912 190.026C110.041 189.928 110.17 189.828 110.293 189.721C110.417 189.615 110.534 189.501 110.646 189.384L110.771 189.25L110.852 189.159C110.785 189.238 110.778 189.243 110.835 189.175C111.024 188.937 111.195 188.686 111.348 188.424C111.387 188.354 111.423 188.282 111.463 188.217C111.365 188.404 111.486 188.165 111.502 188.129C111.558 187.999 111.609 187.868 111.653 187.733C111.697 187.598 111.743 187.425 111.784 187.269C111.802 187.181 111.802 187.189 111.781 187.295C111.788 187.255 111.794 187.214 111.802 187.174C111.814 187.095 111.825 187.015 111.833 186.933C111.845 186.721 111.942 186.522 112.102 186.381C112.262 186.24 112.472 186.168 112.685 186.18C112.899 186.193 113.099 186.289 113.241 186.448C113.383 186.606 113.455 186.815 113.443 187.027L113.442 187.025Z" fill="#080806"/>
<path d="M104.447 179.594L101.782 181.674C101.449 181.927 100.93 181.972 100.642 181.622C100.38 181.314 100.341 180.768 100.696 180.492L103.362 178.411C103.694 178.159 104.213 178.114 104.501 178.462C104.763 178.77 104.802 179.318 104.449 179.593L104.447 179.594Z" fill="#080806"/>
<path d="M97.1607 173.079C96.7842 173.138 96.4113 173.218 96.0434 173.317C95.8579 173.366 95.6753 173.419 95.4941 173.479L95.3403 173.53L95.286 173.542C95.3385 173.531 95.321 173.534 95.2353 173.562L95.0812 173.62C94.3705 173.903 93.693 174.262 93.0606 174.69C92.7121 174.926 92.1476 174.703 91.9748 174.35C91.7717 173.917 91.9436 173.524 92.3174 173.27C93.6679 172.361 95.205 171.761 96.8171 171.515C97.2338 171.452 97.6992 171.691 97.7734 172.13C97.8427 172.538 97.5971 173.014 97.1537 173.081L97.1607 173.079Z" fill="#080806"/>
<path d="M93.9934 165.521C93.4015 166.002 92.8449 166.525 92.3281 167.085L92.1505 167.281L92.064 167.381C92.0138 167.437 91.9726 167.484 92.0459 167.4C91.9232 167.544 91.806 167.689 91.6899 167.839C91.4511 168.142 91.2239 168.454 91.0082 168.774C90.8921 168.952 90.7094 169.077 90.5004 169.122C90.2914 169.167 90.0732 169.127 89.8937 169.012C89.7143 168.896 89.5883 168.715 89.5435 168.508C89.4987 168.3 89.5387 168.083 89.6548 167.905C90.5585 166.567 91.654 165.366 92.9068 164.343C93.0667 164.203 93.2747 164.131 93.4872 164.14C93.6996 164.15 93.9 164.241 94.0461 164.395C94.314 164.712 94.3417 165.241 93.9942 165.524L93.9934 165.521Z" fill="#080806"/>
<path d="M166.656 169.724L169.117 172.293C169.188 172.37 169.243 172.461 169.279 172.56C169.315 172.659 169.331 172.764 169.326 172.869C169.321 172.974 169.295 173.078 169.25 173.173C169.205 173.268 169.142 173.354 169.063 173.424C168.985 173.495 168.894 173.55 168.794 173.586C168.694 173.622 168.589 173.638 168.483 173.633C168.377 173.628 168.273 173.602 168.177 173.558C168.082 173.513 167.995 173.45 167.924 173.372L165.465 170.803C165.392 170.726 165.336 170.635 165.298 170.536C165.261 170.436 165.244 170.331 165.248 170.225C165.252 170.119 165.278 170.015 165.323 169.918C165.368 169.822 165.432 169.736 165.51 169.664C165.589 169.593 165.682 169.538 165.782 169.502C165.883 169.466 165.989 169.451 166.096 169.456C166.203 169.462 166.307 169.488 166.403 169.534C166.499 169.58 166.585 169.645 166.656 169.724V169.724Z" fill="#080806"/>
<path d="M159.008 174.868C158.946 175.103 158.888 175.339 158.835 175.577C158.825 175.631 158.812 175.684 158.801 175.736L158.774 175.872C158.785 175.812 158.757 175.956 158.755 175.971L158.719 176.161C158.638 176.642 158.578 177.126 158.538 177.611C158.498 178.083 158.481 178.556 158.477 179.03C158.478 179.273 158.485 179.517 158.493 179.754C158.499 179.874 158.507 179.996 158.514 180.113C158.524 180.162 158.525 180.231 158.52 180.141C158.527 180.223 158.535 180.303 158.541 180.384C158.583 180.799 158.386 181.257 157.921 181.334C157.532 181.399 157.009 181.164 156.965 180.719C156.754 178.583 156.926 176.426 157.472 174.349C157.54 174.148 157.685 173.981 157.876 173.885C158.066 173.79 158.287 173.772 158.49 173.837C158.695 173.907 158.865 174.054 158.962 174.247C159.058 174.44 159.075 174.663 159.008 174.868V174.868Z" fill="#080806"/>
<path d="M147.694 177.284L142.959 184.103C142.843 184.283 142.659 184.409 142.448 184.454C142.238 184.499 142.018 184.46 141.837 184.344C141.656 184.228 141.529 184.045 141.484 183.836C141.439 183.627 141.479 183.409 141.596 183.229L146.333 176.415C146.45 176.237 146.633 176.112 146.842 176.068C147.051 176.023 147.269 176.063 147.448 176.179C147.627 176.294 147.753 176.476 147.798 176.684C147.842 176.891 147.802 177.108 147.685 177.286L147.694 177.284Z" fill="#080806"/>
<path d="M134.269 174.546C132.4 175.957 130.449 177.258 128.426 178.442C128.237 178.538 128.016 178.557 127.813 178.493C127.61 178.43 127.44 178.289 127.341 178.101C127.246 177.913 127.23 177.695 127.294 177.494C127.357 177.293 127.497 177.124 127.684 177.023C128.652 176.453 129.605 175.858 130.54 175.24C131.447 174.638 132.264 174.058 133.184 173.364C133.519 173.111 134.034 173.061 134.323 173.414C134.581 173.723 134.629 174.275 134.269 174.546Z" fill="#080806"/>
<path d="M120.105 169.806L116.31 170.147C115.892 170.185 115.431 169.993 115.354 169.532C115.29 169.147 115.525 168.622 115.974 168.581L119.768 168.241C120.187 168.203 120.647 168.394 120.725 168.856C120.789 169.241 120.554 169.765 120.105 169.806Z" fill="#080806"/>
<path d="M127.287 182.264L123.715 187.265C123.595 187.435 123.413 187.553 123.209 187.593C123.004 187.633 122.791 187.592 122.616 187.479C122.441 187.366 122.316 187.191 122.269 186.989C122.222 186.787 122.256 186.574 122.363 186.396L125.935 181.393C125.992 181.304 126.067 181.228 126.154 181.169C126.241 181.109 126.34 181.067 126.443 181.045C126.547 181.023 126.654 181.022 126.758 181.041C126.862 181.06 126.961 181.099 127.05 181.156C127.138 181.214 127.215 181.288 127.275 181.374C127.335 181.461 127.377 181.558 127.399 181.661C127.421 181.764 127.423 181.87 127.403 181.973C127.384 182.077 127.345 182.175 127.287 182.264V182.264Z" fill="#080806"/>
<path d="M116.424 180.504C114.931 181.415 113.281 182.045 111.559 182.362C111.35 182.407 111.131 182.367 110.952 182.251C110.773 182.136 110.647 181.955 110.602 181.747C110.558 181.539 110.598 181.323 110.714 181.144C110.83 180.966 111.013 180.841 111.222 180.797C111.634 180.72 112.04 180.623 112.443 180.515C112.632 180.462 112.819 180.406 113.004 180.345C113.032 180.339 113.323 180.235 113.195 180.28C113.287 180.249 113.379 180.215 113.47 180.178C114.236 179.881 114.974 179.515 115.674 179.085C115.864 178.988 116.085 178.97 116.288 179.033C116.492 179.097 116.662 179.238 116.762 179.425C116.855 179.615 116.871 179.833 116.807 180.034C116.743 180.235 116.603 180.404 116.417 180.506L116.424 180.504Z" fill="#080806"/>
<path d="M105.031 171.817C104.838 171.846 104.646 171.887 104.457 171.94L104.307 171.984C104.283 171.989 104.12 172.057 104.232 172L104.161 172.03L104.048 172.079C103.86 172.166 103.678 172.266 103.504 172.377L103.399 172.445C103.23 172.552 103.484 172.378 103.399 172.445C103.315 172.512 103.242 172.567 103.155 172.637C103.005 172.762 102.863 172.897 102.73 173.04L102.648 173.132C102.768 173.001 102.667 173.11 102.648 173.132C102.582 173.212 102.522 173.295 102.463 173.379C102.354 173.541 102.254 173.709 102.164 173.882C102.214 173.79 102.199 173.812 102.164 173.882C102.144 173.931 102.122 173.977 102.103 174.025C102.065 174.12 102.034 174.221 102.001 174.316C101.932 174.514 101.787 174.678 101.597 174.772C101.407 174.866 101.188 174.881 100.987 174.815C100.786 174.75 100.619 174.608 100.522 174.421C100.426 174.234 100.407 174.016 100.471 173.815C100.776 172.889 101.334 172.064 102.082 171.432C102.83 170.8 103.74 170.386 104.71 170.236C105.126 170.178 105.59 170.402 105.666 170.851C105.734 171.253 105.491 171.741 105.046 171.801L105.031 171.817Z" fill="#080806"/>
<path d="M137.938 186.336C137.306 188.647 136.03 190.734 134.257 192.357C134.099 192.501 133.891 192.576 133.677 192.567C133.464 192.557 133.263 192.464 133.118 192.307C132.974 192.15 132.899 191.943 132.908 191.731C132.918 191.519 133.012 191.319 133.17 191.176C133.373 190.989 133.572 190.797 133.762 190.599C133.851 190.503 133.942 190.406 134.029 190.307L134.177 190.145C134.071 190.271 134.22 190.09 134.229 190.081C134.577 189.654 134.895 189.204 135.181 188.734C135.316 188.511 135.45 188.28 135.569 188.048C135.602 187.984 135.635 187.921 135.666 187.856C135.774 187.651 135.603 187.997 135.702 187.783C135.764 187.653 135.829 187.521 135.876 187.382C136.09 186.876 136.27 186.356 136.413 185.826C136.481 185.625 136.626 185.458 136.817 185.363C137.007 185.267 137.228 185.25 137.431 185.314C137.631 185.385 137.796 185.529 137.891 185.718C137.987 185.906 138.005 186.124 137.943 186.326L137.938 186.336Z" fill="#080806"/>
<path d="M150.427 185.717C150.349 185.841 150.279 185.967 150.211 186.094C150.275 185.975 150.227 186.064 150.196 186.134C150.165 186.204 150.147 186.248 150.125 186.305C150.076 186.43 150.034 186.557 149.998 186.685C149.978 186.755 149.96 186.824 149.944 186.895C149.928 186.966 149.9 187.126 149.932 186.934C149.886 187.198 149.861 187.466 149.855 187.734C149.855 187.776 149.828 188.086 149.863 188.105C149.854 187.994 149.854 187.985 149.857 188.077L149.871 188.138C149.886 188.208 149.887 188.282 149.899 188.354C149.938 188.61 149.996 188.862 150.074 189.108C150.101 189.195 150.12 189.28 150.081 189.141C150.102 189.21 150.129 189.278 150.161 189.343C150.213 189.466 150.27 189.588 150.332 189.706C150.394 189.824 150.45 189.923 150.517 190.031C150.522 190.051 150.666 190.245 150.597 190.152C150.527 190.059 150.672 190.247 150.685 190.264C150.853 190.474 151.04 190.667 151.243 190.844C151.561 191.122 151.499 191.719 151.192 191.975C150.825 192.28 150.393 192.22 150.053 191.925C148.075 190.203 147.691 187.04 149.082 184.856C149.202 184.686 149.383 184.568 149.588 184.528C149.793 184.489 150.006 184.529 150.181 184.642C150.356 184.755 150.48 184.93 150.528 185.132C150.575 185.334 150.541 185.547 150.434 185.725L150.427 185.717Z" fill="#080806"/>
<path d="M164.706 184.723C164.581 184.901 164.457 185.08 164.339 185.263C164.286 185.347 164.235 185.433 164.185 185.52L164.099 185.674C164.027 185.806 164.137 185.586 164.099 185.674C164.018 185.86 163.95 186.051 163.897 186.247C163.85 186.439 163.91 186.08 163.901 186.268C163.897 186.316 163.89 186.363 163.888 186.41C163.885 186.458 163.887 186.507 163.884 186.555C163.872 186.739 163.847 186.381 163.881 186.543C163.907 186.618 163.924 186.697 163.932 186.776C163.888 186.658 163.876 186.629 163.902 186.688C163.906 186.71 163.912 186.735 163.931 186.754C163.949 186.774 163.966 186.827 163.987 186.862C164.007 186.898 164.049 186.938 164.049 186.965C163.98 186.869 163.963 186.845 164.001 186.894C164.014 186.914 164.03 186.934 164.046 186.952C164.088 187.003 164.186 187.064 164.213 187.123C164.122 187.046 164.099 187.028 164.147 187.065C164.166 187.079 164.186 187.093 164.206 187.105C164.236 187.128 164.272 187.143 164.303 187.166C164.377 187.221 164.134 187.104 164.262 187.146L164.388 187.188C164.516 187.23 164.246 187.182 164.337 187.177C164.374 187.173 164.411 187.175 164.448 187.183C164.313 187.197 164.277 187.199 164.341 187.191L164.408 187.177C164.471 187.163 164.604 187.102 164.38 187.182C164.769 187.025 165.279 187.106 165.466 187.524C165.635 187.887 165.541 188.434 165.123 188.603C164.834 188.729 164.517 188.78 164.203 188.751C163.889 188.723 163.587 188.616 163.326 188.44C162.845 188.108 162.496 187.618 162.34 187.056C162.006 185.905 162.72 184.745 163.356 183.843C163.413 183.754 163.488 183.678 163.575 183.619C163.662 183.559 163.761 183.517 163.864 183.495C163.968 183.473 164.074 183.472 164.178 183.491C164.283 183.51 164.382 183.549 164.471 183.606C164.559 183.664 164.636 183.738 164.696 183.824C164.756 183.911 164.798 184.008 164.82 184.111C164.842 184.214 164.844 184.32 164.824 184.423C164.805 184.527 164.765 184.625 164.708 184.714L164.706 184.723Z" fill="#080806"/>
<path d="M174.006 174.786C174.026 174.88 174.055 174.972 174.093 175.063L174.02 174.86C174.126 175.144 174.268 175.415 174.44 175.665L174.322 175.496C174.409 175.62 174.503 175.739 174.603 175.852C174.661 175.915 174.717 175.974 174.778 176.032L174.853 176.103C174.876 176.124 174.995 176.226 174.884 176.133C174.772 176.04 174.884 176.133 174.901 176.146L175.001 176.221C175.062 176.264 175.124 176.307 175.188 176.348C175.252 176.389 175.319 176.428 175.385 176.465L175.497 176.523C175.622 176.587 175.322 176.443 175.46 176.505C175.656 176.576 175.821 176.715 175.923 176.896C175.972 176.991 176.002 177.094 176.011 177.201C176.019 177.307 176.007 177.414 175.974 177.516C175.832 177.886 175.367 178.209 174.955 178.026C174.344 177.763 173.798 177.368 173.359 176.87C172.924 176.362 172.608 175.765 172.434 175.121C172.39 174.914 172.431 174.697 172.547 174.52C172.663 174.342 172.845 174.216 173.053 174.171C173.262 174.131 173.477 174.173 173.656 174.288C173.834 174.402 173.96 174.581 174.01 174.786L174.006 174.786Z" fill="#080806"/>
<path d="M173.856 163.674C176.059 163.417 178.291 163.735 180.331 164.599C180.717 164.766 181.006 165.183 180.843 165.61C180.701 165.984 180.239 166.297 179.825 166.12C179.364 165.92 178.891 165.75 178.408 165.61C178.173 165.542 177.935 165.482 177.696 165.427L177.505 165.388C177.459 165.377 177.333 165.353 177.445 165.375C177.317 165.351 177.19 165.331 177.065 165.31C176.58 165.239 176.091 165.196 175.6 165.184C175.342 165.177 175.085 165.179 174.827 165.19L174.479 165.209C174.385 165.215 174.574 165.189 174.425 165.221L174.194 165.246C173.777 165.291 173.316 165.086 173.238 164.631C173.172 164.238 173.41 163.729 173.858 163.681L173.856 163.674Z" fill="#080806"/>
<path d="M174.995 157.498C177.433 156.114 180.583 156.513 182.679 158.315C183 158.589 182.933 159.19 182.627 159.445C182.259 159.752 181.83 159.687 181.488 159.394C181.641 159.524 181.427 159.346 181.398 159.324C181.37 159.303 181.295 159.246 181.244 159.21C181.122 159.123 180.997 159.042 180.869 158.966C180.741 158.889 180.646 158.84 180.532 158.781C180.419 158.721 180.647 158.829 180.459 158.746C180.39 158.715 180.321 158.686 180.257 158.658C180.001 158.555 179.738 158.47 179.47 158.403C179.398 158.384 179.323 158.371 179.25 158.354C179.177 158.336 179.21 158.344 179.298 158.362L179.172 158.339C179.034 158.318 178.896 158.3 178.758 158.287C178.47 158.262 178.18 158.256 177.892 158.27C177.846 158.28 177.648 158.294 177.851 158.278L177.66 158.299C177.512 158.318 177.365 158.342 177.217 158.371C177.07 158.401 176.925 158.434 176.782 158.477C176.719 158.49 176.66 158.512 176.598 158.532C176.563 158.54 176.367 158.622 176.56 158.54C176.281 158.649 176.009 158.776 175.748 158.921C175.558 159.017 175.337 159.035 175.134 158.971C174.931 158.908 174.761 158.768 174.66 158.581C174.566 158.392 174.549 158.173 174.613 157.972C174.678 157.77 174.818 157.601 175.005 157.5L174.995 157.498Z" fill="#080806"/>
<path d="M180.543 153.142C182.878 151.296 185.82 150.378 188.796 150.567C188.902 150.573 189.005 150.6 189.101 150.646C189.196 150.691 189.281 150.755 189.352 150.834C189.422 150.912 189.476 151.004 189.511 151.103C189.546 151.203 189.56 151.308 189.554 151.413C189.548 151.518 189.521 151.62 189.475 151.715C189.429 151.81 189.364 151.894 189.285 151.964C189.206 152.034 189.114 152.088 189.014 152.123C188.914 152.157 188.808 152.172 188.702 152.166C188.368 152.143 188.029 152.127 187.695 152.14C187.528 152.145 187.361 152.155 187.193 152.163L187.216 152.159L187.061 152.171L186.83 152.197C186.177 152.278 185.533 152.415 184.904 152.607L184.683 152.678C184.651 152.684 184.401 152.774 184.556 152.717C184.411 152.77 184.266 152.826 184.123 152.886C183.813 153.012 183.509 153.153 183.21 153.307C182.914 153.461 182.624 153.63 182.341 153.811L182.148 153.937C181.937 154.079 182.27 153.848 182.065 153.995C181.918 154.101 181.774 154.21 181.634 154.321C181.302 154.574 180.782 154.617 180.494 154.269C180.23 153.962 180.195 153.423 180.546 153.139L180.543 153.142Z" fill="#080806"/>
<path d="M160.89 145.572L160.87 145.611L160.959 145.427C160.92 145.512 160.892 145.601 160.873 145.692L160.914 145.489C160.894 145.595 160.889 145.703 160.897 145.811L160.88 145.596C160.89 145.704 160.913 145.81 160.948 145.913L160.876 145.712C160.912 145.813 160.961 145.91 161.022 145.999L160.901 145.83C160.959 145.912 161.028 145.987 161.105 146.052L160.948 145.92L160.981 145.948C161.071 146 161.146 146.075 161.198 146.165C161.267 146.247 161.313 146.346 161.331 146.451C161.375 146.659 161.334 146.875 161.219 147.054C161.162 147.142 161.087 147.218 161 147.278C160.913 147.338 160.815 147.38 160.712 147.402C160.608 147.425 160.501 147.427 160.397 147.408C160.293 147.389 160.194 147.349 160.105 147.291C159.888 147.127 159.703 146.925 159.561 146.694C159.345 146.326 159.251 145.901 159.291 145.478C159.305 145.341 159.331 145.206 159.37 145.074C159.415 144.944 159.471 144.818 159.537 144.698C159.653 144.52 159.836 144.396 160.045 144.352C160.253 144.309 160.47 144.348 160.651 144.461C160.83 144.577 160.956 144.759 161.001 144.967L161.018 145.18C161.011 145.319 160.966 145.454 160.889 145.571L160.89 145.572Z" fill="#080806"/>
<path d="M162.917 143.829C163.453 144.473 164.028 145.084 164.639 145.659L164.851 145.855L164.971 145.962C164.992 145.98 165.109 146.082 165.014 146.001C164.92 145.919 165.054 146.03 165.063 146.038C165.071 146.045 165.135 146.093 165.172 146.12C165.24 146.169 165.311 146.215 165.384 146.257C165.424 146.281 165.465 146.299 165.503 146.324C165.587 146.372 165.35 146.267 165.487 146.315C165.57 146.335 165.652 146.361 165.732 146.392C165.697 146.374 165.569 146.374 165.676 146.376C165.702 146.371 165.857 146.367 165.716 146.386C165.576 146.405 165.727 146.384 165.756 146.377C165.907 146.364 165.59 146.453 165.744 146.38C166.129 146.209 166.645 146.31 166.832 146.72C167.006 147.094 166.9 147.615 166.487 147.799C165.422 148.271 164.462 147.657 163.69 146.955C162.991 146.319 162.336 145.634 161.732 144.908C161.591 144.75 161.519 144.544 161.53 144.334C161.541 144.124 161.635 143.927 161.792 143.785C161.948 143.643 162.155 143.568 162.366 143.576C162.578 143.584 162.778 143.675 162.923 143.828L162.917 143.829Z" fill="#080806"/>
<path d="M168.603 146.372C168.699 146.581 168.803 146.784 168.918 146.983C168.974 147.082 169.033 147.181 169.094 147.277L169.208 147.449C169.252 147.514 169.25 147.509 169.208 147.449C169.484 147.83 169.792 148.186 170.131 148.513C170.214 148.594 170.299 148.67 170.385 148.747C170.409 148.769 170.534 148.871 170.41 148.77C170.455 148.808 170.499 148.844 170.545 148.88C170.724 149.024 170.914 149.165 171.104 149.281C171.294 149.397 171.493 149.526 171.698 149.633L171.85 149.712C171.982 149.782 171.796 149.69 171.881 149.729C171.966 149.767 172.112 149.83 172.23 149.878C172.62 150.037 172.905 150.462 172.743 150.889C172.598 151.271 172.14 151.563 171.726 151.4C169.72 150.594 168.094 149.065 167.174 147.12C167.079 146.931 167.062 146.712 167.126 146.511C167.189 146.309 167.33 146.14 167.517 146.039C167.897 145.864 168.418 145.973 168.604 146.379L168.603 146.372Z" fill="#080806"/>
<path d="M157.019 144.996C156.881 146.029 156.502 147.016 155.914 147.879C155.794 148.049 155.613 148.166 155.408 148.206C155.203 148.246 154.99 148.205 154.815 148.093C154.64 147.98 154.515 147.804 154.468 147.602C154.421 147.4 154.455 147.188 154.562 147.01C154.733 146.763 154.886 146.503 155.017 146.233L154.927 146.417C155.145 145.965 155.303 145.488 155.4 144.996L155.361 145.201C155.379 145.103 155.398 145.011 155.409 144.903C155.427 144.697 155.52 144.503 155.671 144.36C155.833 144.215 156.045 144.14 156.262 144.151C156.666 144.192 157.081 144.553 157.019 144.997L157.019 144.996Z" fill="#080806"/>
<path d="M153.421 145.921C152.5 147.283 151.449 148.553 150.281 149.712C150.122 149.854 149.913 149.928 149.7 149.918C149.487 149.908 149.286 149.816 149.142 149.66C149.002 149.501 148.93 149.295 148.94 149.085C148.95 148.874 149.042 148.676 149.195 148.53C149.467 148.26 149.732 147.985 149.99 147.703C150.12 147.56 150.247 147.419 150.374 147.275L150.484 147.147C150.535 147.088 150.529 147.093 150.484 147.147C150.548 147.069 150.614 146.993 150.679 146.923C151.173 146.324 151.637 145.703 152.071 145.059C152.187 144.881 152.37 144.755 152.579 144.711C152.788 144.666 153.006 144.706 153.186 144.821C153.365 144.936 153.491 145.117 153.536 145.325C153.581 145.533 153.541 145.749 153.425 145.928L153.421 145.921Z" fill="#080806"/>
<path d="M147.743 147.353C147.332 148.799 147.018 150.6 145.553 151.375C145.363 151.473 145.142 151.492 144.938 151.429C144.734 151.365 144.564 151.223 144.466 151.034C144.367 150.846 144.348 150.626 144.413 150.424C144.477 150.221 144.62 150.053 144.81 149.955L144.908 149.899C145.019 149.832 144.908 149.899 144.867 149.933C144.923 149.885 144.984 149.845 145.039 149.795C145.094 149.745 145.143 149.693 145.189 149.641C145.3 149.525 145.073 149.793 145.17 149.663L145.222 149.592C145.31 149.471 145.389 149.343 145.457 149.209C145.483 149.162 145.537 149.01 145.451 149.231C145.461 149.203 145.475 149.175 145.488 149.148C145.522 149.07 145.555 148.992 145.586 148.913C145.845 148.246 146.012 147.54 146.205 146.855C146.273 146.654 146.418 146.488 146.609 146.392C146.799 146.296 147.02 146.279 147.223 146.343C147.424 146.414 147.589 146.558 147.684 146.746C147.78 146.935 147.799 147.152 147.737 147.354L147.743 147.353Z" fill="#080806"/>
<path d="M142.073 150.779C141.932 150.932 142.148 150.652 142.037 150.825C142.009 150.871 141.976 150.916 141.95 150.962C141.923 151.007 141.843 151.166 141.887 151.069C141.93 150.973 141.859 151.139 141.852 151.157C141.766 151.387 141.697 151.623 141.647 151.863C141.538 152.361 141.459 152.861 141.302 153.348C140.938 154.439 140.336 155.437 139.538 156.269C139.38 156.412 139.171 156.486 138.957 156.476C138.744 156.467 138.543 156.373 138.399 156.217C138.26 156.058 138.188 155.852 138.198 155.642C138.208 155.431 138.299 155.233 138.452 155.087L138.601 154.926C138.699 154.818 138.577 154.96 138.632 154.891C138.714 154.788 138.798 154.684 138.876 154.577C139.033 154.363 139.177 154.141 139.307 153.91C139.343 153.848 139.379 153.784 139.411 153.721L139.464 153.618C139.423 153.706 139.504 153.532 139.512 153.516C139.542 153.449 139.569 153.383 139.597 153.316C139.698 153.07 139.784 152.819 139.855 152.564C139.989 152.081 140.052 151.58 140.18 151.094C140.32 150.534 140.597 150.018 140.988 149.591C141.273 149.279 141.865 149.332 142.125 149.642C142.265 149.801 142.337 150.007 142.327 150.218C142.318 150.428 142.227 150.627 142.074 150.773L142.073 150.779Z" fill="#080806"/>
<path d="M136.57 154.551C135.854 155.474 135.186 156.432 134.565 157.424C134.446 157.594 134.264 157.711 134.059 157.751C133.854 157.791 133.642 157.75 133.467 157.638C133.291 157.525 133.167 157.349 133.12 157.147C133.073 156.945 133.106 156.733 133.214 156.555C133.834 155.564 134.503 154.606 135.218 153.68C135.338 153.506 135.519 153.382 135.725 153.332C135.934 153.289 136.152 153.329 136.332 153.443C136.664 153.678 136.845 154.196 136.57 154.551V154.551Z" fill="#080806"/>
<path d="M86.8416 124.597C87.3896 125.698 87.7303 126.907 88.0604 128.085C88.4571 129.496 88.8144 130.918 89.2129 132.329C89.4157 133.042 89.6274 133.754 89.8544 134.46C89.911 134.63 89.9658 134.791 90.0252 134.957C90.0374 135.001 90.0522 135.044 90.0694 135.086C89.983 134.922 90.0326 134.983 90.0586 135.035C90.095 135.137 90.1332 135.238 90.1711 135.337C90.2885 135.645 90.4113 135.951 90.5508 136.251C90.7947 136.819 91.0861 137.365 91.4221 137.884C91.4415 137.915 91.4622 137.943 91.4816 137.974C91.5522 138.081 91.4394 137.914 91.4344 137.907C91.48 137.958 91.5177 138.022 91.5584 138.076C91.6378 138.181 91.7224 138.284 91.8083 138.386C91.8943 138.488 91.9729 138.564 92.0604 138.647L92.1813 138.758C92.2844 138.854 92.0398 138.653 92.1209 138.707C92.1553 138.731 92.1869 138.758 92.2199 138.784C93.8796 140.03 95.8836 141.097 96.6502 143.154C96.7885 143.525 96.7502 144.063 96.3075 144.235C94.7133 144.86 92.9625 144.975 91.3 144.564L92.34 143.635L92.8644 146.848C92.9553 147.407 92.4231 148.015 91.8239 147.776L89.8849 147.002C89.8111 146.974 89.7315 146.953 89.6618 146.919L89.5896 146.898C89.6605 146.92 89.7365 146.923 89.8087 146.904C89.8809 146.885 89.9463 146.847 89.9974 146.793L90.0529 146.719C90.0065 146.793 90.0081 146.783 90.0561 146.691C90.037 146.739 90.0215 146.786 90.0063 146.835C89.9112 147.159 89.8375 147.489 89.754 147.816C89.4064 149.163 89.0594 150.51 88.7129 151.857C88.5435 152.517 87.5147 152.587 87.2317 151.978C87.2073 151.939 87.1869 151.899 87.1707 151.856C87.1543 151.78 87.2755 151.968 87.1829 151.87C87.1491 151.84 87.1181 151.807 87.0902 151.771C87.0444 151.703 87.2373 151.867 87.1034 151.781C87.0732 151.76 87.0449 151.739 87.0134 151.72C86.9819 151.702 86.8478 151.632 86.9624 151.688C87.0769 151.743 86.9288 151.677 86.9031 151.667C86.8773 151.658 86.8126 151.647 86.7719 151.628C86.6889 151.591 86.9583 151.643 86.7859 151.625L86.6776 151.615C86.6317 151.618 86.5857 151.617 86.5399 151.614C86.4495 151.602 86.715 151.577 86.5663 151.617C86.5228 151.63 86.4783 151.64 86.4332 151.646C86.3487 151.653 86.5986 151.563 86.4595 151.64C86.4281 151.656 86.3953 151.674 86.3618 151.688C86.1945 151.762 86.4928 151.582 86.3618 151.688C86.2557 151.78 86.1276 151.843 85.9899 151.871C85.8521 151.899 85.7094 151.892 85.5755 151.849C85.4416 151.806 85.3211 151.73 85.2256 151.628C85.1302 151.525 85.0631 151.4 85.0307 151.264L82.7291 142.332C82.4032 141.071 82.0948 139.807 81.7013 138.565C81.6108 138.281 81.5151 137.997 81.4162 137.716C81.464 137.854 81.4162 137.716 81.4035 137.657C81.3908 137.598 81.354 137.53 81.3311 137.465C81.2733 137.316 81.2141 137.168 81.1528 137.02C80.929 136.479 80.672 135.952 80.3833 135.443C80.2993 135.299 80.2138 135.157 80.1249 135.016C80.0833 134.95 80.0403 134.886 79.9973 134.823L79.9411 134.74C79.8755 134.639 80.0183 134.844 79.9429 134.749C79.7541 134.492 79.5595 134.243 79.347 134.004C79.1268 133.762 78.8938 133.531 78.6489 133.313C78.7647 133.417 78.6201 133.29 78.5779 133.255L78.3934 133.112C78.2493 133.005 78.1016 132.905 77.9489 132.808C77.8602 132.751 77.7836 132.677 77.7237 132.591C77.6637 132.504 77.6215 132.407 77.5995 132.304C77.5774 132.201 77.576 132.095 77.5953 131.991C77.6146 131.888 77.6541 131.789 77.7118 131.701C77.7694 131.613 77.8439 131.537 77.9312 131.477C78.0184 131.418 78.1165 131.376 78.2201 131.354C78.3236 131.332 78.4304 131.33 78.5345 131.349C78.6386 131.368 78.7378 131.408 78.8266 131.465C81.0225 132.862 82.2429 135.191 83.0699 137.572C83.4867 138.769 83.8003 139.997 84.117 141.223L85.2746 145.755L86.6086 150.928L85.2758 150.504C85.5467 150.288 85.8646 150.138 86.2043 150.066C86.5439 149.993 86.8958 150.001 87.2318 150.088C87.543 150.161 87.8338 150.302 88.0831 150.5C88.3324 150.699 88.5339 150.95 88.6728 151.236L87.193 151.355C87.5758 149.836 87.9597 148.317 88.3446 146.797C88.4321 146.455 88.5007 146.084 88.7285 145.806C88.8933 145.597 89.1203 145.445 89.3772 145.372C89.6341 145.298 89.9077 145.308 90.1589 145.398C90.5098 145.505 90.8508 145.669 91.1894 145.804L92.321 146.255L91.2809 147.184L90.7566 143.97C90.7305 143.833 90.7405 143.692 90.7855 143.559C90.8306 143.427 90.9093 143.309 91.0139 143.215C91.1185 143.122 91.2456 143.057 91.3827 143.027C91.5199 142.997 91.6626 143.002 91.797 143.043L92.1014 143.113C91.969 143.085 92.1792 143.125 92.2038 143.129C92.3928 143.156 92.5666 143.181 92.7491 143.195C93.0875 143.222 93.4273 143.227 93.7664 143.208C94.0197 143.194 93.6092 143.227 93.8632 143.198L94.1346 143.166C94.3018 143.143 94.4693 143.113 94.6357 143.077C94.802 143.042 94.9859 143.003 95.1674 142.944L95.3906 142.875C95.4843 142.842 95.4895 142.841 95.4098 142.871L95.5556 142.816L95.2125 143.895C95.1339 143.681 95.039 143.473 94.9287 143.273C94.8845 143.195 94.837 143.111 94.789 143.041C94.7838 143.017 94.6472 142.833 94.7574 142.988C94.7181 142.933 94.6773 142.879 94.6377 142.831C94.36 142.482 94.0497 142.16 93.7109 141.868C93.6814 141.842 93.5645 141.741 93.6831 141.841L93.5741 141.752C93.4829 141.677 93.3914 141.609 93.298 141.532C93.11 141.39 92.9202 141.249 92.727 141.108C92.3405 140.827 91.9518 140.569 91.5654 140.297C90.5406 139.576 89.8562 138.565 89.3197 137.45C88.7119 136.119 88.2136 134.741 87.8296 133.331C87.4043 131.89 87.0382 130.434 86.6428 128.987C86.4465 128.27 86.245 127.554 86.0128 126.849C85.9637 126.698 85.9115 126.549 85.859 126.398C85.8064 126.247 85.8964 126.435 85.8721 126.459C85.8611 126.417 85.8463 126.376 85.8277 126.337C85.8014 126.266 85.7748 126.194 85.7469 126.123C85.6419 125.857 85.5306 125.595 85.3956 125.342C85.2968 125.153 85.2774 124.934 85.3417 124.731C85.406 124.528 85.5486 124.359 85.7383 124.261C85.9279 124.163 86.1491 124.143 86.353 124.207C86.557 124.271 86.7271 124.412 86.8259 124.601L86.8416 124.597Z" fill="#080806"/>
</g>
<defs>
<clipPath id="clip0_166_2">
<rect width="133.191" height="172.417" fill="white" transform="matrix(-0.978099 0.208139 0.210228 0.977652 170.215 24.3071)"/>
</clipPath>
</defs>
</svg>
