<svg width="323" height="383" viewBox="0 0 323 383" fill="none" xmlns="http://www.w3.org/2000/svg">
<g clip-path="url(#clip0_30_255)">
<path d="M213.826 165.885C218.626 169.138 222.858 173.155 226.355 177.776C229.874 182.418 232.72 187.532 234.807 192.969C237.061 198.822 238.728 205.088 238.801 211.39C238.871 217.311 237.171 223.272 233.188 227.744C231.245 229.933 228.071 232.462 225.056 230.753C224.426 230.332 223.855 229.828 223.358 229.255C223.246 229.144 223.133 229.033 223.016 228.931C223.287 229.171 222.893 228.855 222.827 228.812C222.761 228.769 222.588 228.657 222.462 228.585C222.418 228.562 222.186 228.438 222.37 228.534C222.553 228.629 222.225 228.473 222.217 228.471C221.953 228.363 221.681 228.273 221.404 228.202L221.16 228.144C221.133 228.15 220.926 228.095 221.115 228.132C221.304 228.17 221.057 228.123 221.005 228.117L220.694 228.073C220.056 228.005 219.414 227.981 218.772 228.002L217.866 228.047C217.565 228.069 217.842 228.052 217.896 228.041L217.642 228.063L217.134 228.112C216.322 228.186 215.432 227.809 215.279 226.913C215.153 226.156 215.61 225.14 216.481 225.06C219.175 224.803 222.168 224.603 224.532 226.175C225.112 226.598 225.65 227.076 226.137 227.604C226.25 227.715 226.359 227.826 226.477 227.932C226.257 227.734 226.559 227.982 226.645 228.038C226.732 228.094 226.929 228.183 226.756 228.106C226.583 228.03 226.793 228.098 226.816 228.122C226.899 228.143 226.979 228.172 227.066 228.192C226.93 228.157 226.879 228.168 227.043 228.169L227.296 228.175C227.238 228.187 226.974 228.244 227.262 228.182C227.388 228.155 227.517 228.128 227.643 228.101C227.768 228.074 227.816 228.064 227.896 228.025C227.832 228.039 227.607 228.151 227.879 228.029C228.047 227.95 228.202 227.878 228.371 227.789C228.54 227.7 228.649 227.627 228.783 227.541L228.954 227.427C228.713 227.595 228.908 227.458 228.954 227.427C229.215 227.218 229.473 227.011 229.724 226.791C230.202 226.365 230.655 225.913 231.082 225.436L231.255 225.236L231.505 224.927C231.723 224.65 231.932 224.365 232.135 224.084C232.502 223.556 232.841 223.01 233.152 222.448C233.3 222.179 233.44 221.901 233.582 221.622C233.691 221.414 233.486 221.838 233.582 221.622C233.612 221.562 233.642 221.503 233.668 221.441C233.743 221.279 233.815 221.115 233.887 220.954C234.4 219.742 234.808 218.487 235.106 217.205C235.14 217.052 235.175 216.899 235.206 216.747C235.226 216.658 235.244 216.573 235.26 216.484C235.265 216.504 235.217 216.731 235.25 216.553C235.314 216.185 235.373 215.818 235.423 215.453C235.529 214.686 235.6 213.913 235.637 213.134C235.675 212.356 235.685 211.581 235.669 210.809C235.658 210.407 235.643 210.006 235.618 209.607C235.608 209.446 235.599 209.285 235.586 209.125C235.606 209.369 235.58 209.098 235.572 209.061C235.562 208.928 235.551 208.796 235.536 208.66C235.379 207.081 235.137 205.512 234.811 203.958C234.228 201.152 233.456 198.388 232.498 195.685C232.483 195.618 232.469 195.55 232.427 195.484C232.53 195.771 232.437 195.535 232.427 195.484L232.252 195.018C232.129 194.69 232.005 194.362 231.875 194.035C231.618 193.381 231.347 192.73 231.062 192.061C230.515 190.798 229.928 189.554 229.302 188.332C228.676 187.109 227.997 185.889 227.266 184.672C226.909 184.086 226.547 183.504 226.183 182.929C225.984 182.617 225.793 182.336 225.592 182.045L225.312 181.633C225.312 181.633 225.169 181.427 225.267 181.569L225.139 181.387C223.546 179.137 221.786 177.011 219.872 175.026C218.906 174.027 217.905 173.068 216.86 172.15L216.489 171.825C216.428 171.774 216.102 171.496 216.31 171.671C216.02 171.429 215.731 171.189 215.446 170.952C214.915 170.527 214.373 170.118 213.823 169.704C213.272 169.29 212.708 168.907 212.15 168.523C211.977 168.412 211.829 168.268 211.712 168.099C211.595 167.931 211.513 167.741 211.47 167.541C211.427 167.34 211.424 167.133 211.461 166.932C211.498 166.73 211.575 166.538 211.686 166.366C211.798 166.194 211.942 166.045 212.111 165.929C212.28 165.812 212.47 165.73 212.671 165.687C212.871 165.644 213.079 165.641 213.28 165.677C213.482 165.714 213.675 165.791 213.847 165.902L213.826 165.885Z" fill="#080806"/>
<path d="M251.977 108.358C256.235 120.211 252.137 132.943 249.068 144.562C246.042 156.03 242.766 168.983 249.727 179.694C253.348 185.269 258.74 189.494 263.593 193.919C269.017 198.807 273.729 204.181 276.807 210.869C283.553 225.575 282.601 242.105 279.577 257.6C277.97 265.843 275.9 274.011 273.684 282.112C271.534 289.971 269.327 297.899 266.435 305.527C263.752 312.61 260.136 319.244 254.697 324.612C249.586 329.669 243.273 333.491 236.593 336.093C221.143 342.107 204.068 341.75 187.838 339.9C180.034 339.01 172.273 337.557 164.794 335.097C158.123 332.865 151.701 329.953 145.63 326.405C133.261 319.23 122.355 309.597 113.38 298.484C103.381 286.087 95.6968 271.897 90.1183 256.991C88.7588 253.358 87.5128 249.686 86.3802 245.974C85.7954 244.053 88.8536 243.41 89.4363 245.32C93.9885 260.226 100.461 274.597 109.171 287.543C117.193 299.463 127.221 310.084 138.956 318.398C150.406 326.521 163.335 332.328 177.121 335.105C185.107 336.715 193.315 337.502 201.45 337.832C209.732 338.166 218.074 337.821 226.185 335.994C240.158 332.874 253.079 325.1 259.999 312.26C263.639 305.504 265.789 297.993 267.973 290.672C270.354 282.722 272.503 274.697 274.42 266.595C278.036 251.328 280.925 235.199 276.706 219.743C274.786 212.709 271.357 206.242 266.353 200.913C261.806 196.071 256.457 192.067 251.872 187.269C247.499 182.695 244.065 177.331 242.94 171.027C241.885 165.165 242.59 159.182 243.749 153.393C246.114 141.574 251.171 129.824 250.649 117.587C250.557 114.933 250.066 112.308 249.193 109.801C248.905 109.004 249.042 108.131 249.858 107.698C250.524 107.343 251.681 107.57 251.967 108.36L251.977 108.358Z" fill="#080806"/>
<path d="M247.949 252.014C246.166 251.495 245.044 250.051 244.057 248.592C243.852 248.281 243.645 247.996 243.449 247.694C243.317 247.491 243.675 248 243.449 247.694L243.283 247.467C243.159 247.298 243.029 247.138 242.895 246.979C242.762 246.82 242.65 246.698 242.519 246.567C242.456 246.502 242.385 246.439 242.319 246.376C242.116 246.174 242.33 246.299 242.319 246.376C242.319 246.294 241.858 246.049 241.802 246.018C241.746 245.988 241.66 245.935 241.587 245.894C241.283 245.718 241.801 245.965 241.5 245.852C241.306 245.777 241.113 245.701 240.911 245.624C240.794 245.589 240.671 245.562 240.536 245.53C240.402 245.499 240.243 245.472 240.567 245.524C240.106 245.444 239.638 245.404 239.17 245.404C238.978 245.402 238.782 245.416 238.588 245.422C238.33 245.428 238.973 245.375 238.554 245.429L238.232 245.466C237.779 245.524 237.335 245.605 236.892 245.707C234.753 246.203 232.72 247.106 230.529 247.373C228.248 247.648 226.12 247.146 223.897 246.664L223.526 246.591C223.246 246.527 223.893 246.647 223.404 246.568C223.157 246.525 222.91 246.482 222.668 246.449C222.168 246.378 221.664 246.339 221.159 246.332C220.903 246.33 220.652 246.337 220.399 246.349C219.911 246.372 220.695 246.286 220.215 246.367L219.917 246.403C219.395 246.472 218.877 246.575 218.367 246.709C218.123 246.762 217.88 246.842 217.641 246.918L217.283 247.037C217.541 246.95 217.283 247.037 217.249 247.044C216.725 247.249 216.211 247.468 215.709 247.728C214.779 248.19 213.879 248.711 213.017 249.29L212.708 249.505C212.464 249.674 213 249.293 212.591 249.586L211.954 250.049C211.535 250.362 211.124 250.68 210.717 251.022C209.881 251.694 209.069 252.396 208.257 253.098C204.678 256.189 200.961 259.349 196.274 260.547C195.869 260.632 195.447 260.553 195.1 260.329C194.753 260.104 194.508 259.752 194.42 259.348C194.342 258.944 194.423 258.526 194.647 258.18C194.871 257.835 195.221 257.59 195.622 257.496C195.866 257.443 196.106 257.367 196.346 257.295L196.771 257.158C196.822 257.147 197.06 257.05 196.801 257.151C197.31 256.957 197.812 256.747 198.304 256.507C199.2 256.07 200.064 255.572 200.89 255.014L201.265 254.76C201.209 254.797 201.049 254.913 201.305 254.731L201.92 254.287C202.367 253.954 202.805 253.608 203.238 253.261C204.031 252.619 204.807 251.961 205.577 251.296C208.908 248.424 212.302 245.532 216.514 244.057C218.549 243.321 220.73 243.079 222.876 243.352C223.974 243.503 225.072 243.758 226.159 243.993L226.824 244.131C226.517 244.069 227.001 244.16 227.02 244.164L227.315 244.214C227.858 244.301 228.406 244.352 228.956 244.366C229.219 244.37 229.486 244.37 229.748 244.349C229.514 244.367 229.788 244.341 229.819 244.334C229.982 244.299 230.144 244.293 230.308 244.265C230.849 244.179 231.386 244.064 231.914 243.921C233.037 243.624 234.135 243.244 235.253 242.927C237.071 242.411 239.021 242.1 240.896 242.429C242.027 242.605 243.098 243.053 244.016 243.736C244.829 244.408 245.534 245.199 246.109 246.082C246.346 246.429 246.577 246.776 246.814 247.123C246.866 247.2 246.922 247.277 246.975 247.358C247.027 247.439 247.016 247.42 246.903 247.256C246.945 247.318 246.989 247.376 247.034 247.437C247.154 247.6 247.277 247.761 247.407 247.918C247.536 248.074 247.663 248.218 247.803 248.358C247.876 248.434 247.955 248.506 248.032 248.582C248.251 248.794 247.774 248.406 248.032 248.582C248.107 248.633 248.466 248.953 248.559 248.919C248.559 248.919 248.197 248.773 248.487 248.882C248.621 248.931 248.756 248.98 248.896 249.021C249.288 249.154 249.611 249.435 249.797 249.803C249.983 250.172 250.016 250.599 249.89 250.992C249.753 251.38 249.471 251.7 249.104 251.884C248.736 252.069 248.311 252.105 247.918 251.985L247.949 252.014Z" fill="#080806"/>
<path d="M245.726 255.978C243.901 257.194 241.699 257.903 239.624 258.545C236.771 259.417 233.876 260.144 230.949 260.724C224.578 262.065 218.117 262.932 211.618 263.317C209.2 263.451 206.677 263.576 204.282 263.138C203.48 262.99 202.706 262.411 202.811 261.489C202.89 260.731 203.604 259.865 204.464 260.022C206.518 260.394 208.665 260.336 210.742 260.253C211.446 260.223 212.12 260.185 212.806 260.141L213.37 260.102C213.492 260.094 214.046 260.042 213.524 260.09C213.913 260.053 214.302 260.027 214.692 259.993C216.246 259.852 217.799 259.683 219.353 259.485C225.596 258.692 231.867 257.592 237.91 255.813C238.609 255.611 239.301 255.395 239.99 255.159L240.443 255.006C240.562 254.98 240.827 254.842 240.341 255.027C240.44 255.006 240.536 254.957 240.631 254.923C240.917 254.816 241.206 254.704 241.491 254.59C242.461 254.222 243.392 253.755 244.268 253.198C244.948 252.741 246.038 253.174 246.374 253.861C246.762 254.7 246.439 255.478 245.709 255.967L245.726 255.978Z" fill="#080806"/>
<path d="M244.323 265.854C236.995 271.005 228.202 273.662 219.247 273.431C216.719 273.352 214.205 273.04 211.736 272.499C210.933 272.316 210.465 271.257 210.742 270.527C210.882 270.141 211.164 269.823 211.532 269.638C211.899 269.453 212.323 269.416 212.717 269.534L213.459 269.684C213.521 269.701 213.584 269.713 213.648 269.718L213.943 269.768C214.481 269.863 215.023 269.945 215.568 270.013C216.605 270.146 217.646 270.236 218.691 270.284C219.736 270.333 220.783 270.345 221.834 270.321C222.331 270.303 222.829 270.275 223.327 270.243C223.642 270.222 223.418 270.223 223.354 270.237L223.798 270.17C224.097 270.142 224.392 270.111 224.69 270.075C226.722 269.842 228.733 269.453 230.705 268.913C232.643 268.401 234.532 267.718 236.347 266.869C237.389 266.391 238.409 265.869 239.407 265.303C239.927 265.012 240.439 264.705 240.943 264.383C241.197 264.222 241.446 264.062 241.695 263.896L241.943 263.729L242.228 263.533C242.895 263.065 243.847 262.935 244.434 263.636C244.914 264.218 245.047 265.338 244.333 265.838L244.323 265.854Z" fill="#080806"/>
<path d="M151.081 190.631C151.982 190.071 152.8 189.389 153.513 188.604C153.962 188.111 154.39 187.456 154.177 186.824C154.005 186.439 153.711 186.12 153.34 185.918C152.564 185.396 151.588 184.935 150.722 185.298C150.244 185.541 149.847 185.916 149.579 186.379C149.01 187.209 148.52 188.222 148.794 189.188C148.94 189.647 149.242 190.04 149.648 190.299C150.055 190.557 150.54 190.665 151.018 190.602" fill="#080806"/>
<path d="M150.359 189.247L150.687 189.021C150.768 188.968 150.887 188.843 150.607 189.08C150.646 189.047 150.69 189.02 150.73 188.99C150.966 188.815 151.194 188.636 151.413 188.447C151.632 188.258 151.772 188.133 151.945 187.979C152.045 187.883 152.142 187.788 152.237 187.686L152.38 187.538C152.417 187.495 152.612 187.279 152.435 187.48C152.258 187.681 152.486 187.405 152.524 187.351C152.562 187.297 152.638 187.103 152.711 187.045C152.675 187.074 152.583 187.395 152.645 187.169C152.666 187.116 152.683 187.062 152.696 187.006C152.669 186.983 152.666 187.367 152.655 187.199C152.638 186.937 152.663 187.236 152.682 187.325C152.654 187.061 152.75 187.477 152.749 187.47C152.747 187.463 152.676 187.347 152.669 187.313C152.679 187.361 152.914 187.597 152.738 187.437C152.706 187.404 152.671 187.373 152.643 187.34C152.512 187.194 152.901 187.533 152.738 187.422L152.591 187.312C152.478 187.233 152.362 187.156 152.243 187.082L151.951 186.914C151.899 186.886 151.701 186.79 151.918 186.889C152.134 186.988 151.966 186.914 151.918 186.889C151.797 186.84 151.681 186.794 151.562 186.756C151.501 186.745 151.441 186.73 151.382 186.709C151.478 186.76 151.723 186.757 151.462 186.735C151.408 186.746 151.341 186.732 151.282 186.723C151.103 186.701 151.505 186.722 151.477 186.703C151.448 186.684 151.334 186.734 151.3 186.741C151.033 186.77 151.426 186.682 151.433 186.681C151.374 186.701 151.318 186.728 151.266 186.762C151.128 186.831 151.201 186.893 151.367 186.688C151.28 186.777 151.188 186.861 151.09 186.938C150.901 187.117 151.156 186.882 151.16 186.849C151.126 186.901 151.088 186.951 151.046 186.997L150.855 187.265C150.707 187.485 150.571 187.711 150.446 187.945C150.316 188.182 150.585 187.617 150.446 187.945C150.403 188.042 150.365 188.146 150.333 188.245C150.301 188.344 150.302 188.366 150.282 188.423C150.205 188.659 150.311 188.325 150.303 188.287C150.308 188.422 150.297 188.556 150.271 188.688C150.249 188.866 150.262 188.463 150.247 188.491C150.252 188.581 150.271 188.67 150.303 188.755C150.316 188.813 150.374 188.97 150.278 188.721C150.183 188.473 150.27 188.684 150.284 188.749C150.298 188.813 150.336 188.84 150.36 188.888C150.483 189.131 150.18 188.675 150.288 188.783C150.325 188.822 150.355 188.865 150.392 188.903C150.57 189.088 150.344 188.913 150.292 188.836C150.357 188.921 150.503 188.975 150.59 189.034C150.678 189.093 150.417 188.937 150.41 188.952C150.402 188.968 150.622 189.034 150.633 189.036L150.747 189.068C150.922 189.123 150.382 189.022 150.624 189.041L150.782 189.05C151.054 189.077 150.388 189.102 150.683 189.071C151.49 188.959 152.394 189.414 152.538 190.27C152.67 191.053 152.198 192.002 151.336 192.122C150.503 192.253 149.651 192.092 148.925 191.665C148.198 191.239 147.642 190.574 147.352 189.784C146.792 188.226 147.484 186.565 148.424 185.3C148.946 184.51 149.737 183.936 150.65 183.686C151.47 183.523 152.321 183.634 153.072 184.001C153.84 184.315 154.533 184.788 155.105 185.388C155.435 185.771 155.653 186.237 155.738 186.735C155.822 187.233 155.768 187.745 155.582 188.215C155.195 189.059 154.628 189.808 153.921 190.41C153.27 191.011 152.561 191.547 151.806 192.011C151.439 192.202 151.012 192.241 150.616 192.119C150.221 191.997 149.89 191.724 149.696 191.36C149.515 190.991 149.483 190.566 149.607 190.174C149.73 189.782 150 189.453 150.36 189.254L150.359 189.247Z" fill="#080806"/>
<path d="M230.941 173.548C231.843 173 232.838 172.543 233.552 171.759C234 171.266 233.915 170.668 233.705 170.035C233.469 169.432 233.11 168.885 232.651 168.428C231.875 167.906 229.746 168.379 229.197 169.333C228.698 170.202 228.393 171.136 228.668 172.102C228.813 172.561 229.116 172.954 229.522 173.212C229.929 173.471 230.413 173.578 230.891 173.516" fill="#080806"/>
<path d="M230.222 172.163C230.508 171.988 230.796 171.824 231.086 171.655C231.244 171.565 231.403 171.474 231.556 171.378L231.75 171.255C231.801 171.244 232.059 171.04 231.847 171.195C231.635 171.35 231.847 171.195 231.898 171.152L232.111 170.983C232.236 170.874 232.35 170.758 232.467 170.64C232.584 170.523 232.242 170.933 232.385 170.722C232.528 170.51 232.239 171.068 232.334 170.814C232.363 170.702 232.361 170.723 232.328 170.872C232.296 171.021 232.298 171.045 232.309 170.929C232.319 170.814 232.314 170.787 232.312 170.713L232.345 171.131C232.325 170.854 232.266 170.582 232.171 170.321L232.313 170.716C232.219 170.481 232.104 170.255 231.97 170.041L231.839 169.828C231.766 169.72 231.591 169.551 231.91 169.93C231.829 169.834 231.758 169.732 231.671 169.626C231.537 169.478 231.542 169.619 231.833 169.751C231.794 169.732 231.757 169.709 231.722 169.683C231.996 169.915 232.092 169.834 231.914 169.78L231.774 169.739C231.549 169.667 232.191 169.799 231.963 169.777L231.796 169.763C231.657 169.757 231.518 169.759 231.379 169.771L231.795 169.738C231.447 169.769 231.105 169.842 230.776 169.956L231.168 169.816C230.915 169.912 230.67 170.032 230.439 170.174C230.913 169.899 230.589 170.063 230.46 170.19C230.247 170.403 230.582 170.047 230.578 170.045C230.54 170.097 230.504 170.152 230.471 170.209C230.428 170.286 230.388 170.365 230.347 170.441C230.307 170.518 230.316 170.494 230.423 170.28L230.35 170.437C230.282 170.594 230.224 170.754 230.176 170.918C230.15 170.998 230.136 171.082 230.111 171.162C230.248 170.743 230.145 170.96 230.132 171.094C230.11 171.288 230.107 171.483 230.121 171.677L230.089 171.259C230.11 171.481 230.156 171.699 230.228 171.91L230.087 171.518C230.125 171.613 230.172 171.699 230.216 171.788C230.302 171.923 230.267 171.877 230.111 171.644C230.141 171.684 230.17 171.724 230.204 171.763C230.237 171.802 230.311 171.867 230.362 171.924C230.151 171.749 230.108 171.712 230.231 171.81L230.357 171.897L230.486 171.972C230.239 171.857 230.188 171.832 230.332 171.898L230.546 171.97C230.701 172.011 230.642 172.002 230.367 171.947L230.517 171.965C230.617 171.973 230.718 171.974 230.819 171.968L230.4 172.001L230.546 171.97C230.952 171.893 231.373 171.97 231.725 172.185C232.07 172.412 232.313 172.765 232.401 173.168C232.533 173.952 232.061 174.9 231.199 175.021C230.722 175.1 230.233 175.083 229.763 174.97C229.293 174.857 228.85 174.651 228.461 174.364C228.072 174.076 227.745 173.714 227.5 173.298C227.254 172.881 227.095 172.42 227.032 171.941C226.924 171.035 227.069 170.117 227.451 169.288C227.643 168.817 227.909 168.38 228.239 167.992C228.488 167.729 228.776 167.505 229.092 167.328C229.639 167.007 230.244 166.796 230.873 166.706C231.569 166.569 232.288 166.616 232.961 166.84C233.756 167.153 234.228 167.785 234.667 168.489C235.04 169.059 235.285 169.704 235.383 170.378C235.481 171.022 235.374 171.68 235.075 172.259C234.82 172.695 234.48 173.075 234.075 173.377C233.302 173.935 232.496 174.446 231.661 174.908C231.298 175.096 230.875 175.135 230.483 175.017C230.091 174.899 229.761 174.633 229.562 174.275C229.381 173.906 229.35 173.481 229.474 173.089C229.598 172.696 229.869 172.367 230.23 172.168L230.222 172.163Z" fill="#080806"/>
<path d="M246.553 141.267C243.784 138.929 240.764 136.907 237.546 135.238L236.938 134.932L236.779 134.853L236.617 134.777C236.183 134.576 235.742 134.39 235.295 134.223C234.91 134.086 234.528 133.962 234.15 133.855C233.932 133.795 233.715 133.746 233.492 133.698C233.269 133.65 233.699 133.718 233.451 133.707C233.324 133.691 233.201 133.668 233.084 133.65C232.631 133.598 232.174 133.577 231.718 133.588C231.663 133.6 231.413 133.625 231.684 133.595L231.383 133.632C231.134 133.67 230.888 133.723 230.646 133.789C230.547 133.81 230.449 133.831 230.358 133.872C230.267 133.913 230.072 133.979 230.327 133.879C230.141 133.954 229.959 134.032 229.779 134.12L229.519 134.264C229.519 134.264 229.122 134.516 229.311 134.387C229.5 134.258 229.235 134.449 229.201 134.474C229.113 134.542 229.029 134.614 228.945 134.688C228.615 134.987 228.304 135.306 228.013 135.643C228.209 135.427 228.047 135.604 228.013 135.643L227.757 135.956L227.329 136.48C226.742 137.26 226.056 137.962 225.29 138.569C224.633 139.046 223.666 139.161 223.085 138.466C222.604 137.878 222.478 136.774 223.185 136.264C223.505 136.029 223.806 135.768 224.084 135.484C224.227 135.34 224.376 135.191 224.493 135.041C224.545 134.984 224.741 134.754 224.542 134.988C224.631 134.888 224.715 134.781 224.799 134.678C225.346 133.969 225.932 133.292 226.556 132.65C228.078 131.211 230.104 130.424 232.199 130.458C234.148 130.441 236.063 131.077 237.805 131.9C239.601 132.747 241.34 133.709 243.012 134.778C244.843 135.947 246.593 137.238 248.25 138.642C248.873 139.165 249.26 140.046 248.711 140.799C248.275 141.416 247.219 141.827 246.551 141.26L246.553 141.267Z" fill="#080806"/>
<path d="M185.109 140.921L177.564 137.603C175.211 136.568 172.877 135.482 170.49 134.532C169.41 134.092 168.303 133.722 167.175 133.426C166.881 133.35 166.586 133.282 166.29 133.225C166.594 133.284 166.106 133.197 166.091 133.193L165.641 133.13C165.019 133.05 164.393 133.011 163.766 133.014C163.447 133.018 163.127 133.03 162.808 133.052C163.053 133.035 162.785 133.057 162.747 133.065L162.272 133.117C161.58 133.205 160.897 133.329 160.22 133.485C159.029 133.767 157.855 134.116 156.705 134.531L156.536 134.592L156.119 134.749L155.424 135.018C154.824 135.253 154.231 135.503 153.642 135.754C152.602 136.212 151.575 136.702 150.561 137.221C148.465 138.293 146.428 139.477 144.429 140.724C140.419 143.227 136.57 145.968 132.648 148.601C128.263 151.542 123.766 154.355 118.926 156.5C118.18 156.83 117.18 156.636 116.817 155.838C116.481 155.112 116.686 154.093 117.485 153.731C126.268 149.852 133.809 143.818 141.85 138.68C145.836 136.133 149.977 133.79 154.401 132.095C156.829 131.161 159.349 130.328 161.94 130.04C164.557 129.771 167.2 130.074 169.687 130.928C172.4 131.826 174.993 133.09 177.604 134.24L186.098 137.972C186.842 138.299 187.406 139.11 187.091 139.944C186.813 140.67 185.916 141.29 185.116 140.937L185.109 140.921Z" fill="#080806"/>
<path d="M128.463 100.619C147.638 105.08 167.457 104.187 186.913 106.591C196.218 107.742 205.276 110.147 214.525 111.619C219.062 112.397 223.663 112.743 228.266 112.654C232.993 112.468 237.68 111.704 242.221 110.378C252.663 107.399 262.249 101.928 271.151 95.8183L272.2 98.7282L255.547 101.291C254.044 101.52 252.996 99.7091 254.167 98.6112L266.162 87.384L267.54 90.0602C259.328 91.8448 250.898 92.4081 242.522 91.7318C242.219 91.7061 241.931 91.5939 241.69 91.4085C241.45 91.2232 241.268 90.9726 241.167 90.6867C241.066 90.4009 241.049 90.0919 241.12 89.7968C241.19 89.5017 241.343 89.2329 241.562 89.0227L255.336 75.1743L256.718 77.8497C250.474 79.04 244.207 76.9807 238.998 73.5816C233.366 69.8938 229.009 64.6531 224.452 59.7817C215.894 50.6829 205.498 43.5027 193.952 38.7159C168.389 27.9993 139.423 28.2464 112.53 33.2547C98.8939 35.7958 85.4112 40.0485 73.7125 47.6776C64.3243 53.873 56.2792 61.8903 50.0557 71.2521C43.7423 80.6461 39.3606 91.198 37.1653 102.295C36.0892 107.822 35.3826 113.699 35.915 119.325C36.4413 124.856 38.3495 130.706 43.5286 133.519C48.9087 136.442 55.8397 135.459 61.6958 135.196L72.6948 134.704C76.5111 134.533 80.3415 134.394 84.1103 133.719C87.5573 133.133 90.8717 131.935 93.8969 130.183C96.8857 128.434 99.5604 126.213 102.143 123.909C107.744 118.918 113.168 113.73 118.657 108.631L126.922 100.949C128.402 99.5689 130.499 101.886 129.027 103.254L111.648 119.408C106.411 124.273 101.285 129.595 95.0233 133.158C88.3334 136.961 80.758 137.454 73.2377 137.79L61.7812 138.301C58.408 138.452 55.017 138.702 51.6358 138.55C45.4614 138.271 39.7102 136.137 36.2617 130.773C33.0397 125.754 32.481 119.308 32.7355 113.492C33.2379 101.929 36.3503 90.5495 41.3987 80.1522C46.4849 69.6755 53.582 60.2973 62.287 52.5503C72.1643 43.7933 83.9314 37.7627 96.5382 33.9137C110.688 29.5928 125.72 27.5685 140.463 26.9994C154.733 26.4285 169.169 27.6622 182.936 31.5776C195.175 35.0542 206.941 40.6705 216.932 48.5843C222.231 52.7689 226.695 57.6994 231.297 62.6144C235.817 67.4408 240.805 72.103 247.241 74.1654C250.078 75.1203 253.111 75.3446 256.059 74.8176C256.392 74.7565 256.736 74.804 257.039 74.9531C257.343 75.1022 257.59 75.3449 257.745 75.6454C257.9 75.9459 257.953 76.2882 257.898 76.6217C257.843 76.9552 257.682 77.2621 257.438 77.4971L243.661 91.3463L242.701 88.6339C250.795 89.2942 258.944 88.7519 266.88 87.0247C268.412 86.6971 269.384 88.6518 268.26 89.7042L256.249 100.924L254.871 98.2479L271.524 95.6854C273.35 95.4048 273.993 97.6177 272.569 98.5959C264.518 104.119 255.989 108.985 246.742 112.204C237.677 115.375 228.008 116.438 218.472 115.312C209.048 114.216 199.888 111.605 190.509 110.222C180.638 108.767 170.669 108.297 160.721 107.709C149.57 107.042 138.398 106.124 127.485 103.583C125.527 103.127 126.512 100.165 128.463 100.619Z" fill="#080806"/>
<path d="M70.716 211.194C70.382 210.911 70.9603 211.39 70.6217 211.118L70.3168 210.871C70.1118 210.71 69.8931 210.551 69.6963 210.394C69.2768 210.082 68.8484 209.784 68.4111 209.499C67.5355 208.931 66.6271 208.415 65.6907 207.954C65.2946 207.762 65.977 208.081 65.5804 207.903L65.2262 207.741C64.9871 207.637 64.7481 207.532 64.5071 207.434C64.0237 207.233 63.5337 207.05 63.0391 206.88C62.0495 206.54 61.0407 206.258 60.0179 206.037L59.645 205.954C59.5931 205.943 59.1644 205.865 59.5296 205.929L58.7563 205.8C58.2383 205.719 57.7228 205.666 57.2017 205.604C56.1608 205.504 55.115 205.465 54.0695 205.487C53.808 205.493 53.5466 205.5 53.2866 205.513L52.8974 205.536C52.8362 205.549 52.3987 205.579 52.7955 205.558C52.2765 205.605 51.7521 205.66 51.2431 205.737C50.2116 205.891 49.1909 206.109 48.1869 206.391C47.6834 206.527 47.1857 206.69 46.6913 206.853C46.2736 206.992 47.02 206.729 46.5894 206.874L46.1889 207.027C45.9104 207.137 45.6334 207.253 45.3612 207.375C44.8172 207.619 44.293 207.905 43.7938 208.231C44.0611 208.053 43.6664 208.333 43.6482 208.347C43.5504 208.422 43.4533 208.499 43.3611 208.583C43.134 208.778 42.9204 208.988 42.7217 209.212C42.96 208.948 42.6775 209.271 42.6474 209.313C42.5663 209.416 42.4901 209.524 42.4173 209.632C42.2716 209.847 42.135 210.072 42.0099 210.3C41.9873 210.344 41.7976 210.736 41.948 210.409L41.8394 210.649C41.7158 210.934 41.6072 211.223 41.5136 211.516C41.42 211.809 41.3595 212.024 41.2919 212.273C41.2589 212.4 41.2299 212.531 41.1981 212.647C41.0954 213.081 41.2424 212.34 41.1725 212.777C41.0909 213.308 41.0229 213.837 40.9842 214.37C40.9457 214.97 40.9358 215.572 40.9471 216.172C40.9551 216.426 40.9639 216.682 40.9788 216.935C40.9839 216.958 41.0204 217.461 40.9922 217.13C41.0105 217.332 41.0288 217.534 41.0546 217.737C41.1963 218.953 41.431 220.155 41.7567 221.335C41.919 221.927 42.1051 222.515 42.3109 223.095C42.2148 222.829 42.321 223.143 42.3355 223.21C42.3793 223.332 42.4258 223.45 42.473 223.571C42.5999 223.898 42.7369 224.224 42.8817 224.568C43.3755 225.706 43.935 226.814 44.5574 227.887C44.8708 228.422 45.1937 228.952 45.5348 229.468C45.6739 229.686 45.819 229.9 45.9641 230.113C46.2461 230.535 45.7928 229.877 46.0869 230.289C46.2042 230.456 46.3256 230.625 46.4462 230.79C47.1867 231.795 47.9737 232.768 48.7957 233.706C50.4559 235.579 52.2231 237.356 54.0885 239.026C57.8892 242.467 61.8956 245.641 65.9626 249.033L72.3688 254.346C74.3056 255.889 76.1629 257.53 77.9336 259.261C79.6551 260.947 81.0857 262.907 82.1675 265.059C83.2466 267.331 83.6257 269.767 84.0174 272.229C84.1865 273.41 84.4363 274.578 84.7651 275.725C84.7955 275.867 84.8532 276.004 84.9006 276.142C84.9129 276.2 85.0112 276.427 84.9042 276.159C85.0153 276.43 85.1189 276.698 85.2463 276.962C85.3737 277.225 85.5064 277.481 85.6554 277.729C85.7286 277.855 85.8085 277.98 85.8911 278.1C85.721 277.853 86.0387 278.292 86.0775 278.341C86.2035 278.498 86.3367 278.64 86.4749 278.787C86.5577 278.876 86.6426 278.957 86.7281 279.042C86.8137 279.126 87.0868 279.341 86.7827 279.097C87.1841 279.423 87.6164 279.71 88.0735 279.952C88.0735 279.952 88.4366 280.123 88.2133 280.025C87.99 279.927 88.3496 280.081 88.3612 280.086C88.5831 280.176 88.8068 280.26 89.0352 280.331C89.2636 280.403 89.4959 280.46 89.7326 280.537C90.1106 280.644 89.4079 280.496 89.8043 280.557L90.2799 280.622C90.7166 280.663 91.1557 280.675 91.594 280.656C91.9997 280.644 91.2544 280.729 91.6517 280.644C91.7672 280.619 91.8904 280.614 91.9964 280.595C92.2711 280.552 92.5432 280.494 92.8113 280.421L93.0413 280.35C93.4294 280.239 92.7162 280.491 93.0956 280.339C93.3178 280.248 93.5393 280.155 93.7436 280.047C93.9478 279.94 94.1681 279.808 94.3756 279.682C94.7242 279.469 94.1283 279.887 94.443 279.632C94.5697 279.527 94.6985 279.432 94.8211 279.324C94.9436 279.216 95.1186 279.055 95.2678 278.906C95.3525 278.821 95.4324 278.729 95.5163 278.64C95.8073 278.34 95.3338 278.899 95.5719 278.568C95.8769 278.161 96.1519 277.732 96.3949 277.286C96.4347 277.206 96.5431 276.949 96.4102 277.258L96.555 276.922C96.6446 276.693 96.7268 276.463 96.7972 276.228C96.8677 275.993 96.9273 275.757 96.9786 275.516C96.8916 275.889 96.9786 275.516 96.9891 275.432C97.0091 275.293 97.025 275.151 97.0367 275.007C97.0604 274.786 97.0697 274.564 97.0716 274.34C97.07 274.216 97.0657 274.097 97.067 273.987C97.061 273.577 97.1191 274.33 97.0532 273.922C96.9904 273.438 96.8881 272.959 96.7472 272.491C96.4986 271.711 97.1708 270.77 97.9489 270.639C98.353 270.564 98.7704 270.647 99.1153 270.87C99.4601 271.093 99.7063 271.439 99.8033 271.838C101.181 276.152 98.7956 281.47 94.526 283.124C90.0104 284.874 84.7392 282.991 82.5562 278.629C81.3894 276.312 81.1096 273.709 80.694 271.185C80.5933 270.565 80.4816 269.944 80.3395 269.329C80.2771 269.037 80.214 268.742 80.1245 268.457C80.0933 268.311 80.0417 268.169 79.997 268.027L79.9302 267.814C79.9236 267.783 79.8203 267.483 79.8975 267.661C79.9748 267.84 79.8157 267.445 79.7917 267.383C79.7382 267.249 79.6813 267.116 79.6244 266.982C79.4995 266.697 79.3678 266.413 79.2232 266.136C78.9505 265.604 78.6491 265.087 78.3204 264.588C78.2836 264.532 78.0808 264.232 78.153 264.337C78.2252 264.442 78.112 264.278 78.1023 264.266L77.9761 264.091C77.7757 263.818 77.5693 263.55 77.3541 263.291C76.9727 262.82 76.5697 262.364 76.1554 261.921C75.3164 261.036 74.4163 260.165 73.4994 259.365L72.8348 258.798L72.4974 258.516C72.4451 258.47 72.3852 258.423 72.3321 258.374C72.1407 258.209 72.4919 258.507 72.2977 258.346L70.8285 257.122L67.4997 254.359C63.1049 250.697 58.7118 247.11 54.3734 243.429C50.3609 239.994 46.5205 236.334 43.4824 231.992C40.4123 227.6 38.2644 222.539 37.8694 217.157C37.7086 214.745 37.8456 212.198 38.7481 209.91C39.2079 208.721 39.8956 207.633 40.7726 206.708C41.7103 205.782 42.8175 205.046 44.0337 204.539C48.2744 202.721 52.911 202.022 57.4985 202.509C63.2382 203.008 68.6701 205.313 73.0116 209.093C73.6335 209.627 73.5018 210.804 72.9082 211.299C72.1949 211.899 71.3677 211.767 70.7024 211.197L70.716 211.194Z" fill="#080806"/>
<path d="M79.2589 238.729C79.0415 238.254 78.7913 237.795 78.5102 237.354L78.3525 237.115C78.5434 237.393 78.266 237.009 78.2466 236.985C78.0752 236.76 77.8933 236.54 77.7007 236.326C77.5391 236.151 77.3748 235.98 77.201 235.816C77.1162 235.734 77.0306 235.65 76.9431 235.573C76.8556 235.496 76.6491 235.327 76.868 235.504C76.4624 235.175 76.0341 234.876 75.5862 234.608C73.7831 233.533 71.7824 232.862 70.2376 231.384C68.9342 230.139 68.1128 228.091 68.4135 226.293C68.564 225.233 69.123 224.272 69.9715 223.617C70.4329 223.299 70.9106 223.005 71.4025 222.736L71.6315 222.595C71.3202 222.8 71.6723 222.537 71.7147 222.503C71.9918 222.287 71.681 222.627 71.7584 222.458C71.7965 222.404 71.8305 222.347 71.8645 222.29C71.7897 222.455 71.7863 222.455 71.8645 222.29C71.8917 222.185 71.9258 222.078 71.9564 221.972C72.0223 221.749 71.9533 222.306 71.9603 221.908C71.9615 221.681 71.9817 221.46 71.9761 221.234C71.9662 220.79 72.0413 221.539 71.9492 221.109C71.9304 221.021 71.9115 220.933 71.8927 220.844C71.8395 220.579 71.7726 220.316 71.6924 220.058C71.5739 219.636 71.8336 220.336 71.6663 219.936C71.6159 219.833 71.5757 219.728 71.5259 219.611C71.4174 219.386 71.2987 219.163 71.1713 218.949L71.0252 218.715C70.788 218.337 71.2176 218.95 70.9392 218.595C70.7715 218.376 70.5978 218.161 70.4119 217.956C70.2261 217.751 70.0908 217.617 69.9219 217.458L69.6628 217.226C69.4684 217.048 69.9488 217.435 69.5947 217.174C69.1795 216.86 68.7455 216.571 68.2949 216.31C68.0801 216.186 67.8641 216.073 67.6421 215.964C67.9231 216.099 67.4818 215.895 67.4627 215.889L67.1237 215.749C66.6043 215.534 66.0672 215.347 65.5126 215.189C65.0355 215.05 64.5544 214.926 64.0687 214.814C63.8255 214.756 63.5838 214.705 63.325 214.657L62.8866 214.567C62.8306 214.554 62.4094 214.477 62.7009 214.529C61.5707 214.299 60.427 214.143 59.2767 214.059C58.9823 214.044 58.686 214.037 58.3884 214.04L58.0637 214.049L57.9439 214.054C57.7656 214.067 57.7826 214.063 57.9982 214.042C57.9526 213.945 56.8386 214.216 56.6967 214.249C56.5548 214.283 56.3062 214.333 56.1177 214.398L55.7847 214.501C55.5045 214.586 55.7847 214.501 55.8424 214.489C55.4071 214.636 54.9856 214.821 54.5829 215.042C54.3719 215.151 54.1589 215.267 53.9473 215.391L53.6933 215.548C53.6525 215.557 53.2658 215.824 53.4555 215.698C53.6452 215.572 53.3388 215.783 53.3294 215.789L52.9935 216.045C52.8055 216.195 52.6223 216.351 52.4447 216.517C52.0845 216.842 51.7581 217.192 51.4256 217.547C51.2611 217.724 51.6548 217.257 51.4086 217.55L51.1494 217.882C51.0021 218.073 50.8766 218.267 50.7314 218.468C50.4644 218.88 50.2313 219.284 50.0033 219.712C49.8889 219.925 50.1507 219.372 50.0033 219.712C49.9491 219.841 49.8908 219.967 49.8381 220.102C49.7463 220.32 49.6634 220.547 49.5874 220.773C49.5113 220.998 49.4435 221.229 49.3791 221.459C49.3538 221.557 49.3285 221.654 49.3066 221.751C49.2847 221.848 49.2718 221.904 49.2565 221.982C49.2889 221.801 49.2959 221.768 49.2735 221.879C49.1943 222.373 49.1455 222.871 49.1275 223.371C49.1003 223.782 48.9119 224.167 48.6032 224.441C48.2944 224.716 47.89 224.858 47.4774 224.837C47.0669 224.805 46.6848 224.616 46.4108 224.309C46.1368 224.002 45.992 223.602 46.0067 223.191C46.1119 219.3 48.2828 215.571 51.4217 213.329C53.0313 212.14 54.9035 211.355 56.8803 211.041C59.3275 210.694 61.7702 211.157 64.1657 211.648C66.4164 212.11 68.6713 212.791 70.6151 214.059C72.5677 215.303 74.0305 217.181 74.757 219.377C75.1389 220.546 75.1855 221.799 74.8913 222.993C74.5553 224.278 73.5978 225.064 72.4835 225.682L72.132 225.881C72.0811 225.892 71.7297 226.158 72.0129 225.938L71.8074 226.106L71.7273 226.18C71.6117 226.304 71.6278 226.279 71.7727 226.11C71.7285 226.12 71.627 226.326 71.5996 226.363C71.4148 226.612 71.6624 226.276 71.6304 226.275C71.5984 226.275 71.5296 226.534 71.5204 226.558L71.4664 226.754C71.5056 226.522 71.5127 226.488 71.4883 226.657C71.4639 226.825 71.4691 227.015 71.4603 227.173C71.4479 227.53 71.3878 226.834 71.4603 227.173C71.4755 227.244 71.4908 227.316 71.506 227.387C71.5242 227.606 71.5809 227.821 71.6736 228.021C71.4764 227.73 71.6172 227.874 71.6678 227.994C71.7184 228.114 71.7751 228.23 71.8386 228.344C71.902 228.458 71.9446 228.541 72.0045 228.638L72.1261 228.825L72.0268 228.676C72.063 228.845 72.412 229.132 72.5376 229.254C72.5955 229.309 72.6575 229.367 72.7223 229.42C72.4777 229.207 72.9162 229.563 72.9622 229.596C73.1891 229.76 73.424 229.912 73.6642 230.056C74.6712 230.663 75.7566 231.122 76.7862 231.685C79.0874 232.933 80.9241 234.889 82.0238 237.262C82.3597 238.002 82.1521 239.007 81.3559 239.369C80.6228 239.71 79.6081 239.498 79.2497 238.703L79.2589 238.729Z" fill="#080806"/>
<path d="M76.2264 242.033C75.4019 240.902 74.5707 239.771 73.6571 238.704C73.1848 238.157 72.7155 237.622 72.1832 237.126C71.9273 236.876 71.666 236.634 71.3968 236.405C71.6668 236.638 71.2351 236.28 71.1876 236.24L70.8162 235.965C70.2662 235.562 69.6829 235.207 69.0726 234.902C69.3907 235.061 68.8849 234.822 68.8268 234.799C68.6556 234.729 68.4844 234.659 68.3113 234.597C67.9508 234.472 67.5871 234.366 67.2161 234.275C67.0432 234.23 66.8718 234.193 66.6977 234.159C66.9722 234.214 66.396 234.11 66.3305 234.103C65.9273 234.044 65.5228 233.995 65.1137 233.959C64.3023 233.884 63.4812 233.847 62.6642 233.813C62.4592 233.801 62.2587 233.748 62.074 233.659C61.8893 233.57 61.7241 233.445 61.5877 233.291C61.4514 233.138 61.3467 232.96 61.2795 232.766C61.2123 232.572 61.184 232.367 61.1962 232.163C61.2084 231.958 61.2608 231.758 61.3505 231.573C61.4402 231.389 61.5654 231.224 61.7189 231.087C61.8724 230.951 62.0513 230.846 62.2453 230.779C62.4393 230.712 62.6447 230.684 62.8497 230.696C65.5822 230.82 68.2739 231.053 70.7567 232.284C72.8699 233.331 74.628 235.026 76.1277 236.807C76.9709 237.811 77.7509 238.868 78.5247 239.929C79.0202 240.585 79.1173 241.553 78.4214 242.135C77.8147 242.619 76.7287 242.738 76.2121 242.033L76.2264 242.033Z" fill="#080806"/>
<path d="M92.7679 132.789C97.4225 136.686 100.04 142.398 100.895 148.338C101.841 154.904 100.829 161.509 99.7149 167.987C98.6283 174.279 97.3966 180.573 95.3782 186.642C93.4946 192.296 90.9134 197.776 87.3144 202.548C83.8693 207.111 79.5523 211.083 74.4253 213.676C73.8141 213.984 73.1913 214.271 72.5568 214.537C72.2499 214.688 71.9025 214.738 71.5654 214.679C71.2282 214.62 70.9189 214.455 70.6825 214.207C70.4527 213.951 70.3129 213.626 70.2843 213.283C70.2558 212.94 70.34 212.597 70.5242 212.306C71.5465 210.96 72.4927 209.559 73.3584 208.108C73.7831 207.393 74.1902 206.668 74.5797 205.932C74.771 205.565 74.9575 205.192 75.1407 204.819L75.2249 204.649L75.3051 204.476C75.4059 204.266 75.5025 204.054 75.5985 203.839L77.4104 205.851L63.9226 207.109C63.1119 207.187 62.2216 206.81 62.0682 205.91C61.9426 205.157 62.4 204.141 63.2699 204.058L76.7577 202.8C77.0248 202.751 77.2997 202.769 77.5583 202.852C77.8168 202.934 78.051 203.079 78.2403 203.273C78.4286 203.477 78.5585 203.728 78.6166 204C78.6746 204.271 78.6586 204.553 78.5703 204.816C77.1086 208.069 75.2904 211.149 73.1492 214.002L71.1165 211.771C72.3552 211.244 73.5589 210.639 74.72 209.958C75.3062 209.61 75.8814 209.245 76.4458 208.862C76.5234 208.81 76.8628 208.571 76.6192 208.743L77.0038 208.466C77.3122 208.248 77.5893 208.032 77.8751 207.808C78.9366 206.981 79.9502 206.094 80.9113 205.152C81.4026 204.671 81.8808 204.179 82.346 203.675C82.5615 203.438 82.7771 203.2 82.9877 202.956L83.3044 202.594C83.4212 202.459 83.2807 202.599 83.2668 202.634L83.4908 202.37C85.2337 200.253 86.7829 197.984 88.1199 195.59C88.4434 195.011 88.7569 194.423 89.0606 193.829C89.2054 193.543 89.3501 193.257 89.4907 192.968L89.5153 192.916L89.6126 192.708C89.7134 192.498 89.8101 192.286 89.9068 192.074C90.5378 190.691 91.1106 189.285 91.6402 187.86C92.6821 185.003 93.5672 182.091 94.2915 179.138C94.6806 177.637 95.0054 176.117 95.3234 174.599C95.4749 173.858 95.6218 173.117 95.7643 172.378C95.7578 172.347 95.832 172.03 95.7993 172.193C95.7667 172.356 95.8198 172.089 95.8191 172.086L95.9337 171.476C96.0072 171.106 96.0756 170.712 96.1435 170.333C97.2747 164.117 98.4553 157.766 98.0859 151.424C98.0692 151.346 98.0763 151.263 98.0732 151.182C98.0701 151.101 98.0516 150.832 98.0597 150.987C98.0679 151.141 98.0365 150.878 98.0358 150.875C98.0141 150.773 98.0187 150.662 98.0064 150.555C97.9715 150.176 97.9291 149.795 97.8806 149.419C97.7933 148.729 97.6723 148.013 97.5311 147.32C97.39 146.627 97.2411 145.964 97.0487 145.314C96.9558 144.979 96.8525 144.629 96.7412 144.291C96.7071 144.132 96.6383 143.977 96.5873 143.821C96.572 143.75 96.5371 143.686 96.5158 143.62C96.4529 143.442 96.5962 143.83 96.4992 143.542C96.0042 142.243 95.4029 140.986 94.7013 139.785C94.5201 139.47 94.3353 139.187 94.1551 138.892L94.039 138.715C94.0311 138.677 93.8454 138.441 93.9564 138.594C94.0674 138.748 93.9176 138.546 93.9072 138.53C93.8379 138.439 93.7713 138.343 93.7013 138.248C93.295 137.707 92.8593 137.188 92.3959 136.694C92.1562 136.437 91.9112 136.188 91.6568 135.945L91.2942 135.611C91.2273 135.547 91.1544 135.488 91.0841 135.426C91.0138 135.363 90.8589 135.236 91.0797 135.405C90.4566 134.883 90.0888 133.993 90.6185 133.249C91.0605 132.626 92.1101 132.221 92.7815 132.786L92.7679 132.789Z" fill="#080806"/>
<path d="M41.0237 133.495C40.0273 134.53 39.0446 135.581 38.0956 136.656L37.4515 137.397C37.4085 137.445 37.0571 137.86 37.2523 137.627L36.8935 138.058C36.4302 138.615 35.9724 139.181 35.5333 139.768C33.7709 142 32.2274 144.396 30.9241 146.923L30.6737 147.412C30.8017 147.147 30.6234 147.526 30.5877 147.608C30.434 147.935 30.2885 148.267 30.1505 148.602C29.8788 149.246 29.6312 149.898 29.4078 150.558C29.1844 151.218 28.9892 151.883 28.8222 152.552C28.7427 152.877 28.6673 153.206 28.5987 153.532C28.5846 153.599 28.5739 153.665 28.5591 153.729C28.5097 153.962 28.5975 153.493 28.5591 153.729L28.4592 154.324C28.2484 155.693 28.1666 157.077 28.2148 158.461C28.2188 158.662 28.2296 158.862 28.2438 159.061C28.2617 159.394 28.2555 159.232 28.2641 159.156C28.288 159.268 28.2841 159.382 28.2993 159.503C28.3433 159.958 28.4017 160.413 28.4729 160.863C28.6076 161.741 28.7831 162.611 28.9858 163.476C29.8009 166.921 30.9928 170.268 31.9389 173.679C32.885 177.089 33.7092 180.543 34.4028 184.018C35.8027 191.055 36.6857 198.184 37.0447 205.349C37.1309 206.997 37.1639 208.646 37.2222 210.296C37.2518 210.999 37.2817 211.67 37.3295 212.358C37.3353 212.385 37.3477 212.609 37.3411 212.412C37.3344 212.215 37.357 212.487 37.3672 212.534C37.3794 212.691 37.3951 212.847 37.4108 213.004C37.4459 213.351 37.4845 213.697 37.5349 214.066C37.629 214.755 37.7411 215.411 37.8942 216.077C37.9616 216.392 38.0291 216.708 38.1339 217.015C38.165 217.161 38.22 217.301 38.2648 217.444C38.2822 217.526 38.32 217.603 38.3449 217.686C38.4032 217.875 38.2386 217.421 38.3492 217.706C38.5785 218.303 38.8531 218.882 39.1707 219.438C39.2431 219.561 39.3216 219.679 39.3974 219.801C39.4357 219.863 39.5701 220.044 39.3698 219.771C39.419 219.835 39.4655 219.903 39.5146 219.967C39.7097 220.225 39.9201 220.471 40.1447 220.704C40.2414 220.808 40.3448 220.91 40.4447 220.995C40.5446 221.08 40.7991 221.274 40.5598 221.101C40.8274 221.306 41.097 221.504 41.3942 221.682C41.7418 221.907 41.9856 222.261 42.0718 222.665C42.1581 223.07 42.0797 223.493 41.8541 223.84C41.6284 224.187 41.2739 224.431 40.8685 224.517C40.4631 224.604 40.04 224.526 39.6924 224.3C34.4869 221.032 34.2347 214.176 34.0903 208.687C33.9939 204.999 33.7729 201.625 33.4057 198.066C33.0385 194.507 32.5211 190.859 31.8772 187.285C31.2334 183.711 30.4529 180.162 29.5382 176.649C28.6234 173.136 27.4779 169.691 26.4994 166.195C25.5636 162.85 24.9303 159.408 25.1813 155.933C25.4118 153.021 26.1207 150.165 27.2797 147.482C29.6427 141.928 33.402 137.125 37.4792 132.729C37.9664 132.206 38.459 131.687 38.9572 131.171C39.2644 130.895 39.6684 130.751 40.0815 130.77C40.4945 130.789 40.8832 130.97 41.163 131.274C41.4332 131.583 41.5736 131.985 41.5549 132.395C41.5361 132.805 41.3597 133.192 41.0623 133.476L41.0237 133.495Z" fill="#080806"/>
<path d="M199.936 200.339C200.519 198.395 201.007 196.428 201.401 194.438C201.425 194.32 201.45 194.205 201.468 194.07C201.485 193.935 201.541 193.699 201.488 193.966C201.533 193.729 201.574 193.49 201.619 193.25C201.712 192.722 201.8 192.194 201.884 191.665C202.045 190.642 202.188 189.619 202.309 188.589C202.807 184.359 203.021 180.1 202.948 175.842C202.931 174.782 202.9 173.725 202.852 172.671C202.83 172.187 202.801 171.7 202.771 171.214C202.759 170.975 202.743 170.734 202.727 170.493C202.714 170.347 202.704 170.203 202.695 170.06C202.67 169.711 202.714 170.283 202.683 169.903C202.521 167.885 202.31 165.87 201.996 163.87C201.829 162.807 201.624 161.748 201.358 160.706C201.233 160.222 201.096 159.745 200.941 159.271L200.797 158.848C200.811 158.912 200.901 159.116 200.792 158.821C200.682 158.525 200.578 158.271 200.459 157.998C200.263 157.547 200.051 157.103 199.821 156.674C199.704 156.458 199.58 156.247 199.452 156.044C199.375 155.919 199.293 155.798 199.213 155.673C199.018 155.36 199.308 155.784 199.106 155.522C198.536 154.76 197.889 154.058 197.174 153.429C197.449 153.671 196.999 153.293 196.914 153.226C196.753 153.104 196.593 152.986 196.426 152.869C196.063 152.617 195.688 152.378 195.304 152.159C195.131 152.062 194.95 151.965 194.774 151.872L194.503 151.735C194.283 151.619 194.841 151.886 194.479 151.722C194.117 151.559 193.657 151.363 193.236 151.208C192.42 150.906 191.586 150.655 190.739 150.455C190.514 150.401 190.29 150.349 190.063 150.302L189.755 150.24C190.127 150.317 189.714 150.231 189.656 150.223C189.198 150.14 188.734 150.065 188.271 150.008C184.252 149.482 180.165 149.615 176.139 149.817C174.967 149.874 173.79 149.942 172.607 150.023C171.529 150.097 170.559 150.177 169.33 150.291C166.923 150.515 164.524 150.792 162.132 151.122C157.397 151.78 152.68 152.587 147.998 153.557C143.451 154.498 138.908 155.537 134.428 156.772C133.61 157 132.795 157.241 131.99 157.51L131.407 157.705C131.318 157.724 130.952 157.802 131.339 157.72C131.26 157.74 131.182 157.768 131.108 157.801C130.667 157.966 130.231 158.137 129.798 158.319C129 158.656 128.213 159.012 127.456 159.44C127.109 159.633 126.769 159.833 126.434 160.042C126.268 160.145 126.124 160.25 125.941 160.36C125.608 160.58 126.211 160.16 125.892 160.395L125.613 160.6C124.97 161.078 124.371 161.612 123.823 162.196C123.745 162.276 123.671 162.363 123.597 162.446C123.407 162.657 123.592 162.426 123.639 162.398C123.495 162.545 123.368 162.708 123.26 162.883C123.018 163.215 122.795 163.561 122.594 163.919C122.544 164.015 122.263 164.596 122.433 164.212C122.357 164.388 122.277 164.561 122.192 164.743C122.023 165.168 121.886 165.605 121.782 166.05C121.76 166.143 121.738 166.24 121.719 166.333C121.782 166.015 121.697 166.483 121.692 166.509C121.659 166.752 121.633 166.994 121.613 167.235C121.576 167.763 121.571 168.294 121.598 168.823C121.621 169.297 121.553 168.513 121.632 168.982L121.661 169.27C121.692 169.512 121.729 169.752 121.77 169.995C121.86 170.529 121.976 171.057 122.11 171.585C122.245 172.113 122.389 172.589 122.548 173.098C122.632 173.36 122.72 173.621 122.809 173.886C122.829 173.98 122.874 174.074 122.908 174.169C122.943 174.265 122.974 174.361 123.009 174.456C122.95 174.298 122.956 174.308 123.016 174.49C123.824 176.689 124.663 178.871 125.409 181.094C126.902 185.653 128.03 190.323 128.783 195.06C129.107 197.069 129.392 199.082 129.773 201.081C129.964 202.055 130.171 203.024 130.422 203.981C130.539 204.431 130.667 204.879 130.8 205.318C130.869 205.541 130.941 205.76 131.017 205.981C131.046 206.117 131.104 206.242 131.15 206.374C131.026 206.025 131.186 206.459 131.198 206.495C131.541 207.409 131.952 208.295 132.429 209.146C132.663 209.561 132.915 209.957 133.177 210.351C133.01 210.103 133.141 210.302 133.177 210.351C133.257 210.462 133.337 210.569 133.421 210.679C133.583 210.892 133.756 211.103 133.935 211.309C134.234 211.658 134.55 211.99 134.883 212.305C135.048 212.458 135.214 212.607 135.384 212.754C135.115 212.525 135.453 212.807 135.49 212.835L135.805 213.076C136.549 213.623 137.34 214.104 138.168 214.513C138.565 214.708 137.883 214.393 138.283 214.567L138.589 214.703C138.789 214.792 138.981 214.878 139.2 214.955C139.677 215.144 140.16 215.31 140.648 215.465C141.552 215.739 142.47 215.968 143.397 216.149C143.691 216.211 143.46 216.161 143.397 216.149L143.799 216.219L144.472 216.327C144.964 216.403 145.458 216.471 145.936 216.528C146.919 216.644 147.906 216.727 148.897 216.792C151.244 216.951 153.574 217.014 155.887 216.98C157.023 216.964 158.155 216.928 159.29 216.869C159.827 216.84 160.366 216.806 160.905 216.769L161.391 216.732L161.538 216.722L162.507 216.635C167.081 216.203 171.616 215.416 176.069 214.28C178.291 213.712 180.491 213.057 182.669 212.315L183.432 212.049C183.432 212.049 183.937 211.87 183.65 211.974L183.953 211.863C184.514 211.662 185.069 211.451 185.623 211.236C186.732 210.808 187.828 210.357 188.92 209.882C190.673 209.145 192.378 208.299 194.024 207.348C194.386 207.128 194.742 206.903 195.093 206.669C195.143 206.637 195.492 206.392 195.178 206.615L195.43 206.433C195.619 206.298 195.802 206.16 195.98 206.018C196.693 205.464 197.355 204.847 197.959 204.177L198.119 203.997C197.865 204.289 198.119 203.997 198.169 203.93C198.291 203.772 198.414 203.615 198.528 203.452C198.758 203.128 198.969 202.792 199.161 202.444L199.328 202.129C199.302 202.173 199.193 202.427 199.307 202.165C199.389 201.984 199.467 201.801 199.545 201.614C199.702 201.197 199.828 200.77 199.924 200.335C200.108 199.533 201.162 199.063 201.895 199.339C202.282 199.477 202.602 199.759 202.787 200.126C202.972 200.492 203.01 200.916 202.892 201.31C202.029 205.178 198.94 207.984 195.687 209.977C193.996 210.977 192.238 211.86 190.425 212.62C188.194 213.594 185.917 214.471 183.616 215.264C174.573 218.368 165.091 220.001 155.532 220.102C151.114 220.15 146.626 219.968 142.287 219.092C138.271 218.281 134.346 216.565 131.627 213.416C128.863 210.221 127.574 206.09 126.77 202.015C126.365 199.974 126.073 197.909 125.746 195.852C125.36 193.432 124.888 191.026 124.313 188.639C123.739 186.251 123.063 183.907 122.297 181.586C122.098 180.99 121.895 180.398 121.686 179.809L121.63 179.647C121.652 179.749 121.652 179.749 121.63 179.647C121.608 179.545 121.534 179.381 121.484 179.246C121.372 178.94 121.257 178.635 121.141 178.326C120.722 177.211 120.309 176.097 119.898 174.973C119.095 172.852 118.618 170.622 118.483 168.358C118.41 166.259 118.904 164.179 119.915 162.337C121.631 159.183 124.829 157.084 128.08 155.683C131.843 154.052 135.908 153.133 139.921 152.172C149.482 149.823 159.201 148.17 169.001 147.228C173.792 146.754 178.605 146.532 183.419 146.565C187.167 146.621 191.051 146.999 194.561 148.386C196.397 149.099 198.094 150.125 199.577 151.419C201.126 152.815 202.357 154.528 203.187 156.44C204.964 160.445 205.415 164.944 205.757 169.267C206.453 178.017 206.109 186.865 204.37 195.484C203.973 197.448 203.494 199.394 202.917 201.311C202.783 201.699 202.502 202.019 202.134 202.201C201.766 202.383 201.341 202.414 200.951 202.285C200.561 202.157 200.237 201.881 200.05 201.516C199.862 201.152 199.826 200.728 199.95 200.336L199.936 200.339Z" fill="#080806"/>
<path d="M213.689 169.279C211.657 165.239 209.628 160.256 211.954 155.905C213.22 153.524 215.697 152.189 217.94 150.887C220.421 149.438 222.907 147.995 225.415 146.587C230.421 143.716 235.579 141.12 240.867 138.81C246.178 136.543 251.698 134.561 257.501 134.164C258.88 134.061 260.266 134.079 261.642 134.217C263.02 134.366 264.424 134.686 265.582 135.502C267.608 136.909 268.52 139.277 268.792 141.647C269.088 144.19 268.876 146.752 268.904 149.306C268.923 150.756 268.978 152.205 269.07 153.653L269.103 154.153C269.115 154.21 269.137 154.613 269.121 154.404L269.214 155.487C269.283 156.209 269.359 156.931 269.442 157.65C269.784 160.532 270.278 163.393 270.921 166.222C271.569 169.055 272.356 171.85 272.957 174.693C273.256 176.093 273.501 177.505 273.664 178.927C273.859 180.296 273.918 181.682 273.838 183.063C273.755 184.431 273.326 185.756 272.592 186.914C271.801 188.083 270.682 188.911 269.526 189.697C265.029 192.726 260.185 195.204 255.097 197.08C249.897 198.966 244.473 200.14 238.928 200.163C237.609 200.165 236.291 200.099 234.98 199.966C234.566 199.942 234.178 199.755 233.903 199.446C233.627 199.137 233.486 198.731 233.51 198.318C233.534 197.904 233.722 197.518 234.032 197.242C234.341 196.967 234.748 196.826 235.162 196.849C236.452 196.976 237.748 197.034 239.045 197.026C240.249 197.028 241.452 196.967 242.649 196.843C245.225 196.569 247.772 196.076 250.264 195.37C250.867 195.202 251.464 195.021 252.06 194.834L252.952 194.54L253.395 194.385L253.689 194.283L253.74 194.272C254.923 193.839 256.091 193.371 257.242 192.867C259.648 191.809 261.991 190.615 264.262 189.291C265.393 188.636 266.508 187.951 267.607 187.236C267.85 187.077 268.093 186.919 268.335 186.754L268.474 186.657L268.816 186.396C269.04 186.216 269.257 186.032 269.462 185.832L269.753 185.529C269.538 185.755 269.902 185.33 269.937 185.28C270.016 185.164 270.09 185.049 270.16 184.927C270.181 184.891 270.379 184.491 270.237 184.805C270.347 184.555 270.44 184.298 270.516 184.036C270.556 183.907 270.584 183.773 270.62 183.641C270.735 183.216 270.591 183.938 270.647 183.501C270.692 183.179 270.73 182.859 270.75 182.536C270.803 181.407 270.742 180.277 270.567 179.161C269.864 173.582 267.997 168.223 267.043 162.687C266.084 157.156 265.674 151.543 265.82 145.931C265.847 144.862 265.857 143.796 265.792 142.711C265.766 142.273 265.834 143.056 265.771 142.613C265.744 142.487 265.745 142.356 265.728 142.228C265.698 141.972 265.662 141.721 265.615 141.469C265.568 141.216 265.51 140.977 265.458 140.733C265.432 140.611 265.406 140.492 265.36 140.375C265.313 140.257 265.198 139.768 265.32 140.188C265.169 139.734 264.957 139.302 264.69 138.905C264.489 138.576 264.906 139.149 264.652 138.856C264.573 138.77 264.503 138.675 264.424 138.59C264.345 138.504 264.266 138.418 264.182 138.336C264.097 138.255 264.066 138.226 264.005 138.176C264.161 138.305 264.166 138.315 264.033 138.205C263.814 138.061 263.615 137.912 263.372 137.79C263.649 137.936 263.229 137.732 263.201 137.72L262.928 137.623C262.651 137.529 262.368 137.453 262.081 137.396C262.4 137.459 261.923 137.373 261.901 137.371C261.707 137.341 261.51 137.32 261.315 137.301C259.987 137.18 258.652 137.167 257.322 137.262C256.793 137.297 257.62 137.226 257.095 137.282L256.612 137.329C256.289 137.366 255.971 137.405 255.65 137.449C254.961 137.547 254.269 137.667 253.575 137.808C252.248 138.092 250.93 138.423 249.634 138.821C248.24 139.247 247.24 139.599 246.018 140.063C240.88 142.062 235.877 144.392 231.04 147.039C228.581 148.359 226.147 149.727 223.728 151.117C221.454 152.426 219.146 153.703 216.933 155.112C216.533 155.368 217.171 154.93 216.791 155.21L216.445 155.469C216.219 155.641 215.999 155.826 215.789 156.02C215.579 156.211 215.379 156.414 215.191 156.627C215.407 156.378 215.109 156.744 215.092 156.765C214.984 156.908 214.885 157.057 214.793 157.208C214.701 157.359 214.668 157.419 214.609 157.528C214.551 157.636 214.416 157.952 214.564 157.601C214.473 157.819 214.381 158.037 214.309 158.265C214.237 158.494 214.182 158.718 214.124 158.947C214.222 158.571 214.124 158.947 214.118 159.015C214.094 159.169 214.078 159.329 214.062 159.485C214.042 159.723 214.033 159.963 214.034 160.2C214.031 160.321 214.036 160.441 214.038 160.553C214.041 160.666 214.047 161.041 214.052 160.618C214.085 161.156 214.169 161.69 214.301 162.213C214.408 162.715 214.553 163.223 214.703 163.694L214.824 164.062C214.837 164.123 214.996 164.532 214.845 164.16C214.953 164.446 215.063 164.73 215.177 165.011C215.565 165.963 216.009 166.893 216.485 167.809C216.58 167.99 216.638 168.189 216.655 168.393C216.673 168.597 216.65 168.803 216.588 168.999C216.527 169.194 216.427 169.375 216.295 169.532C216.163 169.689 216.001 169.819 215.819 169.914C215.637 170.008 215.438 170.066 215.233 170.084C215.029 170.102 214.823 170.079 214.627 170.017C214.431 169.956 214.25 169.856 214.092 169.724C213.935 169.593 213.806 169.431 213.711 169.249L213.689 169.279Z" fill="#080806"/>
<path d="M120.395 166.403C119.897 166.195 119.385 166.021 118.863 165.884L118.488 165.79C118.436 165.777 118.006 165.709 118.369 165.763C118.108 165.723 117.851 165.682 117.589 165.656C117.069 165.602 116.545 165.581 116.021 165.595C115.802 165.599 115.584 165.61 115.367 165.625C115.762 165.597 115.319 165.635 115.262 165.647L114.736 165.714C113.668 165.877 112.617 166.133 111.593 166.478C111.546 166.488 111.112 166.648 111.464 166.506L111.073 166.65L110.418 166.91C109.853 167.145 109.296 167.396 108.747 167.665C104.355 169.806 100.411 172.82 96.404 175.584L69.1019 194.418L53.8154 204.964C53.1405 205.427 52.0451 204.988 51.7092 204.297C51.3155 203.453 51.6535 202.692 52.3744 202.194L79.9465 183.178L93.8035 173.62C96.0732 172.056 98.3426 170.492 100.612 168.926C102.473 167.624 104.409 166.432 106.411 165.357C110.959 162.965 116.397 161.395 121.37 163.44C122.125 163.75 122.678 164.578 122.366 165.411C122.085 166.155 121.199 166.724 120.392 166.408L120.395 166.403Z" fill="#080806"/>
<path d="M120.704 171.4C118.478 171.617 116.28 172.067 114.148 172.742C113.912 172.818 113.679 172.892 113.445 172.974L113.024 173.117C113.296 173.024 113.055 173.111 113.001 173.122C112.448 173.326 111.894 173.544 111.363 173.767C110.356 174.188 109.367 174.648 108.393 175.14C106.425 176.154 104.513 177.273 102.665 178.492C102.197 178.793 101.732 179.102 101.269 179.419L100.65 179.845L100.269 180.107L100.226 180.138L99.973 180.316C99.0494 180.968 98.135 181.629 97.2298 182.3C93.5711 185.001 90.0033 187.827 86.2802 190.442C82.2949 193.249 78.1461 195.817 73.8556 198.131C69.0838 200.698 64.1437 202.939 59.0693 204.839C58.3062 205.123 57.3464 205.002 56.9597 204.174C56.6388 203.487 56.8062 202.377 57.6249 202.071C66.7187 198.672 75.3656 194.182 83.3753 188.699C84.2359 188.107 85.0504 187.532 86.0239 186.821C86.9255 186.155 87.8249 185.49 88.722 184.825C90.5563 183.44 92.4067 182.03 94.2595 180.648C97.9495 177.895 101.721 175.209 105.768 173.025C110.198 170.63 115.028 168.853 120.07 168.37C120.881 168.292 121.771 168.669 121.924 169.569C122.05 170.322 121.592 171.338 120.722 171.421L120.704 171.4Z" fill="#080806"/>
<path d="M278.796 262.6C279.271 263.423 279.77 264.231 280.307 265.013C280.316 265.054 280.522 265.322 280.38 265.125L280.562 265.377C280.695 265.565 280.831 265.752 280.969 265.935C281.262 266.327 281.561 266.709 281.869 267.087C283.072 268.562 284.391 269.939 285.811 271.207C286.424 271.749 286.314 272.908 285.711 273.409C285.4 273.678 284.997 273.817 284.586 273.799C284.176 273.781 283.788 273.606 283.502 273.31C280.527 270.648 278.003 267.521 276.028 264.053C275.84 263.685 275.805 263.259 275.929 262.865C276.053 262.47 276.328 262.141 276.693 261.947C277.062 261.764 277.487 261.732 277.879 261.855C278.272 261.979 278.601 262.249 278.798 262.61L278.796 262.6Z" fill="#080806"/>
<path d="M273.138 287.128C275.853 288.786 278.074 291.14 279.568 293.946C279.755 294.314 279.79 294.74 279.665 295.133C279.541 295.526 279.267 295.855 278.903 296.049C278.532 296.238 278.102 296.275 277.705 296.152C277.308 296.029 276.975 295.756 276.777 295.39C276.612 295.071 276.449 294.79 276.271 294.502C276.177 294.345 276.079 294.189 275.981 294.043C275.943 293.972 275.898 293.906 275.846 293.845C275.952 293.993 275.969 294.021 275.903 293.929C275.895 293.891 275.857 293.864 275.832 293.83C275.421 293.26 274.971 292.718 274.487 292.207C274.253 291.959 274.01 291.721 273.761 291.487C273.628 291.363 273.492 291.243 273.357 291.123C273.221 291.003 273.314 291.058 273.387 291.148C273.33 291.091 273.268 291.039 273.201 290.993C272.637 290.54 272.043 290.126 271.423 289.753C271.075 289.528 270.831 289.174 270.744 288.769C270.658 288.364 270.736 287.941 270.961 287.594C271.187 287.246 271.541 287.002 271.947 286.915C272.353 286.828 272.776 286.906 273.124 287.131L273.138 287.128Z" fill="#080806"/>
<path d="M265.123 306.765L270.213 316.167C270.307 316.348 270.365 316.547 270.383 316.751C270.401 316.955 270.378 317.161 270.316 317.357C270.254 317.552 270.154 317.733 270.022 317.89C269.89 318.047 269.728 318.177 269.546 318.271C269.364 318.366 269.165 318.424 268.961 318.442C268.756 318.46 268.55 318.437 268.354 318.375C268.159 318.314 267.977 318.214 267.82 318.082C267.663 317.951 267.533 317.789 267.439 317.607L262.355 308.204C262.261 308.022 262.203 307.823 262.185 307.619C262.168 307.415 262.19 307.209 262.252 307.014C262.314 306.818 262.414 306.637 262.546 306.48C262.678 306.323 262.84 306.194 263.022 306.099C263.204 306.004 263.403 305.946 263.608 305.929C263.812 305.911 264.018 305.933 264.214 305.995C264.409 306.057 264.591 306.156 264.748 306.288C264.905 306.42 265.035 306.581 265.13 306.763L265.123 306.765Z" fill="#080806"/>
<path d="M253.836 322.829C254.963 324.811 255.64 327.016 255.819 329.288C255.998 331.561 255.676 333.845 254.874 335.98C254.812 336.177 254.711 336.36 254.578 336.518C254.444 336.676 254.281 336.806 254.097 336.901C253.912 336.995 253.711 337.052 253.505 337.068C253.298 337.085 253.091 337.06 252.894 336.995C252.698 336.93 252.516 336.828 252.36 336.692C252.203 336.557 252.075 336.392 251.983 336.207C251.891 336.021 251.837 335.82 251.824 335.614C251.811 335.407 251.839 335.2 251.906 335.005C252.089 334.528 252.245 334.041 252.376 333.547C252.433 333.318 252.484 333.091 252.534 332.86C252.489 333.079 252.54 332.888 252.551 332.772L252.605 332.427C252.677 331.915 252.722 331.4 252.74 330.884C252.746 330.649 252.746 330.415 252.741 330.175C252.739 330.034 252.734 329.893 252.729 329.752C252.721 329.715 252.699 329.33 252.715 329.539C252.731 329.748 252.693 329.32 252.694 329.327C252.67 329.212 252.669 329.091 252.653 328.981C252.619 328.726 252.578 328.469 252.532 328.217C252.439 327.732 252.321 327.253 252.178 326.782C252.154 326.667 252.109 326.556 252.075 326.449C252.067 326.409 251.898 325.984 252.028 326.311C251.943 326.095 251.86 325.875 251.764 325.658C251.558 325.184 251.324 324.723 251.064 324.276C250.877 323.908 250.842 323.481 250.967 323.088C251.092 322.695 251.367 322.366 251.732 322.173C252.101 321.99 252.526 321.957 252.919 322.081C253.311 322.204 253.641 322.475 253.838 322.835L253.836 322.829Z" fill="#080806"/>
<path d="M228.533 334.19C230.382 338.716 229.269 343.921 226.006 347.512C225.106 348.491 224.041 349.305 222.859 349.915C222.677 350.01 222.478 350.068 222.274 350.086C222.069 350.104 221.863 350.081 221.668 350.019C221.472 349.958 221.29 349.858 221.133 349.726C220.976 349.595 220.846 349.433 220.752 349.251C220.657 349.069 220.599 348.871 220.582 348.667C220.564 348.462 220.587 348.257 220.649 348.061C220.71 347.866 220.81 347.684 220.942 347.527C221.074 347.37 221.236 347.241 221.418 347.146C221.699 346.998 221.978 346.842 222.246 346.668L222.446 346.537C222.275 346.655 222.26 346.665 222.401 346.546C222.543 346.427 222.652 346.358 222.776 346.257C223.021 346.055 223.256 345.845 223.486 345.623C223.597 345.51 223.708 345.398 223.814 345.283C223.866 345.226 224.21 344.823 223.951 345.14C224.354 344.649 224.718 344.125 225.036 343.575C225.117 343.437 225.193 343.297 225.269 343.171L225.376 342.956C225.291 343.138 225.286 343.149 225.359 342.992C225.478 342.718 225.597 342.445 225.7 342.164C225.804 341.883 225.895 341.597 225.976 341.311C226.021 341.156 226.063 341.001 226.097 340.849C226.117 340.774 226.222 340.251 226.146 340.661C226.26 340.036 226.321 339.402 226.33 338.767C226.331 338.606 226.329 338.447 226.324 338.29C226.322 338.198 226.346 337.679 226.323 338.117C226.312 337.8 226.269 337.484 226.192 337.176C226.126 336.865 226.06 336.556 225.973 336.252C225.939 336.096 225.891 335.944 225.83 335.797C226.027 336.187 225.795 335.716 225.759 335.631C225.452 334.878 225.607 333.891 226.424 333.528C227.135 333.199 228.2 333.382 228.533 334.19Z" fill="#080806"/>
<path d="M204.393 337.493C203.637 339.138 202.495 340.576 201.062 341.685C199.63 342.794 197.951 343.541 196.167 343.862C195.762 343.948 195.339 343.871 194.991 343.646C194.643 343.421 194.399 343.068 194.313 342.663C194.226 342.258 194.304 341.836 194.53 341.488C194.755 341.141 195.109 340.897 195.515 340.81C195.877 340.754 196.237 340.677 196.591 340.58C196.754 340.556 196.913 340.506 197.06 340.43C196.879 340.497 196.842 340.509 196.951 340.454L197.065 340.408L197.29 340.314C197.629 340.169 197.959 340.005 198.279 339.822C198.44 339.731 198.594 339.634 198.75 339.533L198.955 339.397C198.782 339.516 198.834 339.48 198.975 339.393C199.253 339.184 199.519 338.96 199.773 338.722C199.906 338.598 200.038 338.467 200.166 338.334L200.334 338.156C200.442 338.033 200.487 337.974 200.357 338.151C200.577 337.88 200.784 337.606 200.976 337.309C201.075 337.157 201.173 336.998 201.263 336.84C201.315 336.751 201.364 336.663 201.411 336.571C201.459 336.479 201.574 336.235 201.427 336.546C201.569 336.167 201.839 335.85 202.191 335.649C202.567 335.46 203.002 335.425 203.402 335.553C204.113 335.819 204.77 336.732 204.395 337.521L204.393 337.493Z" fill="#080806"/>
<path d="M177.678 335.699C176.235 340.013 173.193 343.612 169.176 345.757C168.808 345.948 168.38 345.986 167.984 345.862C167.589 345.738 167.259 345.462 167.067 345.095C166.876 344.728 166.838 344.299 166.963 343.904C167.087 343.509 167.364 343.18 167.732 342.988C168.166 342.761 168.589 342.514 168.994 342.247L169.329 342.023C169.018 342.228 169.399 341.969 169.43 341.944C169.61 341.81 169.788 341.676 169.96 341.537C170.342 341.228 170.709 340.902 171.062 340.56C171.253 340.374 171.439 340.182 171.621 339.987C171.699 339.906 171.774 339.823 171.848 339.739L172.026 339.538L172.152 339.384L172.401 339.068C172.551 338.873 172.693 338.673 172.834 338.472C173.101 338.06 173.368 337.649 173.619 337.241C173.74 337.027 173.857 336.81 173.966 336.592C173.999 336.528 174.167 336.17 174.029 336.472L174.166 336.166C174.375 335.696 174.553 335.218 174.716 334.733C174.778 334.536 174.878 334.353 175.012 334.195C175.145 334.037 175.309 333.907 175.493 333.812C175.677 333.718 175.879 333.661 176.085 333.645C176.291 333.629 176.499 333.654 176.695 333.718C176.892 333.783 177.074 333.886 177.23 334.021C177.387 334.156 177.514 334.321 177.606 334.507C177.698 334.692 177.752 334.893 177.766 335.1C177.779 335.306 177.751 335.513 177.683 335.708L177.678 335.699Z" fill="#080806"/>
<path d="M156.432 330.423C155.89 330.592 155.348 330.764 154.812 330.95C154.734 330.967 154.483 331.07 154.673 330.997L154.292 331.139C154.012 331.242 153.736 331.347 153.458 331.456C152.429 331.86 151.413 332.305 150.414 332.784C148.393 333.757 146.445 334.875 144.585 336.13C143.906 336.587 142.815 336.154 142.477 335.468C142.087 334.626 142.415 333.854 143.144 333.361C147.037 330.752 151.295 328.734 155.78 327.371C156.185 327.287 156.606 327.366 156.954 327.591C157.301 327.815 157.545 328.167 157.634 328.57C157.711 328.974 157.628 329.391 157.405 329.736C157.181 330.081 156.833 330.327 156.432 330.423Z" fill="#080806"/>
<path d="M142.522 317.171C142.008 321.858 138.595 325.708 134.193 327.221C132.994 327.623 131.733 327.811 130.469 327.776C130.056 327.748 129.671 327.56 129.397 327.251C129.122 326.943 128.98 326.538 129.001 326.126C129.033 325.716 129.223 325.335 129.531 325.061C129.838 324.788 130.24 324.644 130.651 324.66C130.812 324.664 130.968 324.663 131.127 324.661C131.226 324.657 131.73 324.691 131.3 324.656C131.616 324.65 131.929 324.605 132.234 324.523C132.504 324.466 132.77 324.401 133.035 324.331C133.187 324.298 133.334 324.238 133.484 324.189C133.633 324.139 133.636 324.156 133.419 324.202L133.639 324.116C134.187 323.895 134.717 323.628 135.223 323.32L135.622 323.061C135.955 322.841 135.357 323.267 135.677 323.021C135.927 322.829 136.177 322.634 136.416 322.427C136.656 322.219 136.882 321.997 137.1 321.77L137.342 321.509L137.499 321.33C137.369 321.485 137.357 321.495 137.467 321.362C137.833 320.898 138.165 320.409 138.46 319.898C138.538 319.761 138.607 319.622 138.683 319.495C138.495 319.858 138.729 319.393 138.76 319.323C138.869 319.069 138.967 318.814 139.053 318.551C139.139 318.288 139.226 317.95 139.307 317.646C139.341 317.476 139.341 317.49 139.3 317.697C139.315 317.619 139.327 317.539 139.342 317.461C139.366 317.307 139.386 317.151 139.401 316.991C139.426 316.578 139.614 316.191 139.924 315.916C140.234 315.641 140.641 315.5 141.055 315.524C141.469 315.549 141.856 315.736 142.131 316.046C142.406 316.355 142.547 316.761 142.523 317.174L142.522 317.171Z" fill="#080806"/>
<path d="M125.081 302.686L119.911 306.741C119.267 307.234 118.26 307.321 117.702 306.639C117.194 306.039 117.119 304.974 117.806 304.437L122.976 300.381C123.62 299.889 124.627 299.801 125.184 300.48C125.692 301.08 125.768 302.149 125.084 302.685L125.081 302.686Z" fill="#080806"/>
<path d="M110.951 289.988C110.221 290.103 109.498 290.258 108.785 290.451C108.425 290.546 108.071 290.65 107.72 290.768L107.421 290.867L107.316 290.89C107.418 290.868 107.384 290.875 107.218 290.928L106.919 291.042C105.541 291.593 104.227 292.292 103.001 293.128C102.325 293.588 101.231 293.152 100.896 292.465C100.502 291.62 100.835 290.854 101.56 290.359C104.179 288.587 107.159 287.419 110.285 286.94C111.093 286.816 111.995 287.283 112.139 288.138C112.274 288.932 111.798 289.86 110.938 289.991L110.951 289.988Z" fill="#080806"/>
<path d="M104.81 275.255C103.662 276.193 102.583 277.212 101.581 278.304L101.236 278.686L101.069 278.881C100.971 278.991 100.891 279.082 101.034 278.917C100.795 279.198 100.568 279.481 100.343 279.774C99.8802 280.364 99.4395 280.972 99.0213 281.595C98.7962 281.943 98.442 282.187 98.0368 282.274C97.6315 282.361 97.2083 282.284 96.8603 282.059C96.5123 281.835 96.268 281.481 96.1811 281.077C96.0942 280.672 96.1719 280.249 96.397 279.902C98.1493 277.293 100.274 274.954 102.703 272.958C103.013 272.687 103.416 272.545 103.828 272.564C104.24 272.583 104.629 272.761 104.912 273.06C105.431 273.679 105.485 274.71 104.811 275.262L104.81 275.255Z" fill="#080806"/>
<path d="M245.707 283.448L250.478 288.455C250.616 288.606 250.724 288.784 250.793 288.976C250.863 289.169 250.894 289.374 250.884 289.579C250.874 289.784 250.825 289.985 250.737 290.17C250.65 290.356 250.527 290.523 250.375 290.661C250.223 290.799 250.045 290.906 249.852 290.976C249.659 291.045 249.454 291.076 249.249 291.067C249.044 291.057 248.842 291.008 248.657 290.92C248.471 290.833 248.304 290.711 248.166 290.559L243.398 285.552C243.256 285.401 243.146 285.224 243.074 285.03C243.002 284.836 242.968 284.63 242.977 284.424C242.985 284.217 243.034 284.014 243.121 283.827C243.208 283.639 243.332 283.471 243.485 283.332C243.638 283.192 243.817 283.085 244.012 283.015C244.207 282.945 244.414 282.915 244.621 282.926C244.828 282.937 245.03 282.988 245.216 283.078C245.403 283.168 245.57 283.294 245.707 283.448Z" fill="#080806"/>
<path d="M230.878 293.474C230.756 293.932 230.644 294.392 230.541 294.857C230.521 294.961 230.497 295.065 230.476 295.166L230.423 295.432C230.444 295.314 230.39 295.595 230.386 295.624L230.316 295.994C230.159 296.933 230.042 297.875 229.965 298.82C229.889 299.741 229.855 300.663 229.847 301.586C229.849 302.061 229.862 302.537 229.879 302.997C229.89 303.233 229.905 303.47 229.919 303.698C229.939 303.793 229.939 303.928 229.93 303.752C229.943 303.913 229.959 304.069 229.971 304.226C230.052 305.035 229.671 305.928 228.769 306.078C228.015 306.204 227.001 305.747 226.915 304.879C226.507 300.715 226.84 296.511 227.899 292.462C228.03 292.07 228.311 291.746 228.681 291.559C229.05 291.373 229.479 291.339 229.873 291.466C230.271 291.602 230.599 291.889 230.787 292.264C230.975 292.64 231.007 293.074 230.878 293.474Z" fill="#080806"/>
<path d="M208.938 298.184L199.758 311.476C199.531 311.826 199.175 312.072 198.767 312.16C198.359 312.248 197.932 312.171 197.582 311.945C197.231 311.719 196.985 311.363 196.897 310.956C196.809 310.548 196.887 310.123 197.114 309.772L206.3 296.49C206.525 296.143 206.88 295.9 207.285 295.813C207.691 295.727 208.114 295.805 208.461 296.03C208.809 296.255 209.053 296.609 209.139 297.014C209.225 297.418 209.147 297.841 208.921 298.188L208.938 298.184Z" fill="#080806"/>
<path d="M182.907 292.847C179.283 295.598 175.5 298.133 171.577 300.44C171.209 300.629 170.782 300.665 170.388 300.541C169.993 300.417 169.664 300.142 169.472 299.777C169.289 299.409 169.257 298.984 169.381 298.592C169.505 298.2 169.776 297.871 170.137 297.674C172.016 296.563 173.862 295.405 175.675 294.199C177.434 293.025 179.018 291.896 180.802 290.543C181.453 290.049 182.451 289.952 183.011 290.641C183.512 291.243 183.604 292.319 182.907 292.847Z" fill="#080806"/>
<path d="M155.441 283.609L148.083 284.271C147.272 284.346 146.379 283.973 146.229 283.073C146.104 282.323 146.56 281.3 147.431 281.22L154.789 280.557C155.6 280.483 156.493 280.856 156.643 281.756C156.768 282.506 156.312 283.529 155.441 283.609Z" fill="#080806"/>
<path d="M169.368 307.89L162.441 317.64C162.209 317.971 161.857 318.2 161.46 318.277C161.062 318.355 160.65 318.276 160.31 318.056C159.971 317.837 159.73 317.494 159.638 317.1C159.547 316.706 159.612 316.292 159.82 315.945L166.746 306.192C166.858 306.02 167.002 305.872 167.171 305.756C167.341 305.64 167.531 305.558 167.732 305.515C167.932 305.472 168.14 305.469 168.341 305.507C168.543 305.544 168.736 305.62 168.908 305.732C169.08 305.843 169.228 305.987 169.345 306.156C169.461 306.325 169.543 306.515 169.585 306.715C169.628 306.916 169.631 307.123 169.594 307.324C169.556 307.526 169.479 307.718 169.368 307.89Z" fill="#080806"/>
<path d="M148.304 304.461C145.408 306.236 142.21 307.464 138.87 308.082C138.464 308.169 138.041 308.091 137.694 307.866C137.346 307.641 137.102 307.288 137.015 306.883C136.929 306.479 137.007 306.056 137.232 305.709C137.457 305.361 137.812 305.117 138.217 305.031C139.016 304.881 139.803 304.691 140.585 304.482C140.95 304.379 141.314 304.269 141.672 304.15C141.726 304.138 142.29 303.936 142.043 304.024C142.221 303.963 142.399 303.896 142.575 303.825C144.062 303.246 145.493 302.533 146.85 301.695C147.218 301.506 147.646 301.47 148.041 301.593C148.435 301.717 148.765 301.992 148.959 302.357C149.14 302.727 149.171 303.151 149.047 303.544C148.922 303.936 148.652 304.266 148.291 304.464L148.304 304.461Z" fill="#080806"/>
<path d="M126.213 287.528C125.837 287.584 125.465 287.663 125.099 287.766L124.809 287.853C124.761 287.863 124.445 287.995 124.663 287.884L124.526 287.942L124.305 288.039C123.941 288.208 123.588 288.402 123.251 288.619L123.048 288.751C122.72 288.96 123.212 288.62 123.048 288.751C122.884 288.882 122.744 288.99 122.574 289.125C122.284 289.37 122.009 289.632 121.751 289.911L121.591 290.091C121.824 289.835 121.628 290.048 121.591 290.091C121.464 290.246 121.347 290.409 121.232 290.572C121.021 290.888 120.827 291.215 120.654 291.554C120.75 291.373 120.72 291.415 120.654 291.554C120.614 291.647 120.573 291.738 120.536 291.831C120.462 292.017 120.401 292.214 120.337 292.398C120.203 292.785 119.922 293.105 119.554 293.287C119.186 293.47 118.761 293.5 118.371 293.372C117.981 293.244 117.657 292.968 117.47 292.603C117.283 292.238 117.247 291.814 117.37 291.423C117.962 289.616 119.043 288.008 120.494 286.777C121.945 285.545 123.708 284.738 125.589 284.446C126.396 284.333 127.295 284.769 127.444 285.645C127.576 286.428 127.105 287.38 126.242 287.497L126.213 287.528Z" fill="#080806"/>
<path d="M190.021 315.828C188.795 320.332 186.321 324.4 182.884 327.565C182.578 327.845 182.173 327.991 181.759 327.973C181.345 327.954 180.955 327.772 180.675 327.467C180.396 327.161 180.249 326.757 180.268 326.344C180.287 325.93 180.469 325.541 180.775 325.261C181.17 324.897 181.555 324.524 181.923 324.137C182.096 323.951 182.272 323.761 182.441 323.569L182.728 323.252C182.522 323.498 182.812 323.145 182.829 323.127C183.504 322.296 184.121 321.419 184.675 320.502C184.937 320.067 185.197 319.618 185.426 319.165C185.492 319.041 185.554 318.917 185.616 318.791C185.825 318.392 185.494 319.065 185.685 318.648C185.805 318.396 185.931 318.138 186.022 317.867C186.438 316.881 186.786 315.867 187.064 314.833C187.196 314.441 187.477 314.118 187.846 313.931C188.216 313.745 188.644 313.711 189.038 313.836C189.426 313.974 189.745 314.256 189.93 314.623C190.115 314.99 190.151 315.414 190.031 315.808L190.021 315.828Z" fill="#080806"/>
<path d="M214.237 314.622C214.086 314.863 213.951 315.109 213.819 315.357C213.943 315.124 213.849 315.297 213.789 315.434C213.73 315.571 213.695 315.656 213.651 315.768C213.558 316.012 213.476 316.26 213.405 316.509C213.367 316.645 213.332 316.78 213.301 316.918C213.27 317.055 213.216 317.368 213.278 316.993C213.189 317.509 213.14 318.03 213.129 318.553C213.128 318.635 213.076 319.238 213.145 319.277C213.127 319.061 213.127 319.043 213.133 319.222L213.159 319.341C213.188 319.477 213.19 319.622 213.213 319.762C213.289 320.26 213.402 320.751 213.552 321.232C213.606 321.401 213.642 321.567 213.566 321.296C213.608 321.431 213.66 321.562 213.721 321.688C213.822 321.929 213.934 322.168 214.054 322.397C214.174 322.627 214.283 322.82 214.413 323.029C214.422 323.07 214.701 323.447 214.566 323.266C214.432 323.086 214.713 323.451 214.738 323.485C215.064 323.893 215.427 324.271 215.821 324.614C216.437 325.156 216.317 326.32 215.721 326.82C215.01 327.415 214.172 327.297 213.512 326.721C209.677 323.365 208.933 317.2 211.63 312.942C211.862 312.611 212.214 312.382 212.611 312.305C213.009 312.227 213.421 312.306 213.76 312.526C214.1 312.746 214.341 313.088 214.433 313.482C214.524 313.876 214.459 314.29 214.251 314.637L214.237 314.622Z" fill="#080806"/>
<path d="M241.926 312.684C241.684 313.03 241.442 313.379 241.213 313.737C241.111 313.901 241.012 314.067 240.916 314.237L240.749 314.538C240.609 314.795 240.823 314.366 240.749 314.538C240.591 314.9 240.459 315.273 240.356 315.654C240.265 316.028 240.382 315.329 240.365 315.695C240.356 315.789 240.344 315.88 240.339 315.973C240.334 316.066 240.337 316.162 240.332 316.255C240.309 316.614 240.259 315.916 240.327 316.231C240.376 316.378 240.408 316.531 240.424 316.685C240.339 316.455 240.317 316.4 240.366 316.513C240.375 316.558 240.385 316.605 240.422 316.643C240.458 316.682 240.491 316.784 240.531 316.854C240.571 316.923 240.651 317.002 240.652 317.055C240.517 316.866 240.486 316.82 240.558 316.915C240.584 316.955 240.614 316.993 240.646 317.028C240.728 317.127 240.917 317.246 240.97 317.363C240.792 317.213 240.749 317.176 240.842 317.248C240.879 317.276 240.916 317.303 240.955 317.327C241.014 317.371 241.085 317.402 241.144 317.446C241.288 317.554 240.816 317.325 241.064 317.406L241.309 317.489C241.558 317.57 241.033 317.477 241.209 317.468C241.281 317.459 241.354 317.463 241.424 317.478C241.164 317.506 241.094 317.51 241.218 317.494L241.347 317.466C241.469 317.44 241.728 317.321 241.293 317.478C242.048 317.171 243.036 317.328 243.399 318.144C243.728 318.85 243.544 319.918 242.734 320.247C242.173 320.492 241.56 320.592 240.95 320.536C240.341 320.48 239.756 320.271 239.25 319.929C238.316 319.281 237.639 318.327 237.338 317.232C236.691 314.988 238.075 312.728 239.307 310.968C239.419 310.796 239.564 310.648 239.733 310.531C239.902 310.415 240.092 310.333 240.293 310.291C240.494 310.248 240.701 310.245 240.903 310.282C241.104 310.319 241.297 310.396 241.469 310.507C241.641 310.619 241.79 310.763 241.906 310.932C242.022 311.101 242.104 311.291 242.147 311.491C242.189 311.691 242.192 311.898 242.155 312.1C242.117 312.301 242.041 312.494 241.929 312.666L241.926 312.684Z" fill="#080806"/>
<path d="M259.959 293.315C259.998 293.498 260.054 293.678 260.127 293.854L259.986 293.458C260.192 294.013 260.466 294.54 260.801 295.028L260.571 294.698C260.739 294.94 260.922 295.172 261.117 295.393C261.228 295.515 261.338 295.63 261.455 295.743L261.602 295.882C261.646 295.922 261.876 296.121 261.66 295.94C261.444 295.759 261.66 295.94 261.694 295.965L261.889 296.111C262.006 296.196 262.127 296.28 262.251 296.36C262.374 296.44 262.504 296.515 262.633 296.586L262.849 296.7C263.092 296.825 262.511 296.545 262.778 296.665C263.159 296.803 263.478 297.074 263.676 297.427C263.771 297.612 263.829 297.814 263.846 298.022C263.863 298.229 263.838 298.438 263.775 298.636C263.499 299.358 262.597 299.987 261.8 299.629C260.613 299.117 259.556 298.348 258.704 297.377C257.861 296.387 257.248 295.223 256.91 293.968C256.826 293.563 256.905 293.142 257.13 292.795C257.355 292.449 257.707 292.204 258.111 292.115C258.516 292.039 258.934 292.12 259.279 292.344C259.624 292.567 259.87 292.914 259.966 293.314L259.959 293.315Z" fill="#080806"/>
<path d="M259.668 271.655C263.94 271.153 268.268 271.775 272.223 273.458C272.971 273.783 273.532 274.596 273.217 275.429C272.94 276.158 272.044 276.768 271.242 276.422C270.348 276.033 269.43 275.701 268.494 275.429C268.039 275.296 267.577 275.178 267.114 275.072L266.743 274.995C266.653 274.975 266.409 274.928 266.627 274.97C266.38 274.924 266.133 274.885 265.89 274.844C264.949 274.705 264.001 274.622 263.05 274.597C262.55 274.584 262.05 274.588 261.55 274.61L260.877 274.648C260.694 274.658 261.06 274.608 260.771 274.67L260.324 274.72C259.515 274.808 258.62 274.407 258.47 273.521C258.341 272.754 258.803 271.762 259.671 271.668L259.668 271.655Z" fill="#080806"/>
<path d="M261.877 259.617C266.605 256.918 272.712 257.697 276.777 261.209C277.398 261.743 277.269 262.916 276.676 263.411C275.962 264.011 275.129 263.884 274.467 263.313C274.763 263.565 274.348 263.218 274.293 263.177C274.238 263.135 274.093 263.024 273.993 262.954C273.758 262.784 273.514 262.627 273.266 262.478C273.018 262.329 272.834 262.234 272.614 262.118C272.394 262.002 272.836 262.212 272.471 262.049C272.338 261.989 272.205 261.932 272.079 261.877C271.583 261.676 271.073 261.511 270.553 261.381C270.413 261.344 270.269 261.318 270.127 261.284C269.985 261.251 270.049 261.266 270.219 261.3L269.976 261.257C269.708 261.215 269.441 261.18 269.173 261.155C268.614 261.105 268.053 261.094 267.493 261.121C267.405 261.14 267.02 261.169 267.415 261.138L267.044 261.178C266.757 261.215 266.472 261.262 266.186 261.319C265.9 261.377 265.619 261.441 265.342 261.525C265.22 261.551 265.105 261.593 264.985 261.633C264.917 261.647 264.536 261.807 264.911 261.649C264.37 261.86 263.843 262.107 263.336 262.39C262.968 262.577 262.54 262.612 262.146 262.489C261.752 262.365 261.422 262.092 261.227 261.728C261.045 261.358 261.012 260.933 261.137 260.54C261.261 260.147 261.533 259.818 261.895 259.621L261.877 259.617Z" fill="#080806"/>
<path d="M272.635 251.126C277.161 247.528 282.866 245.739 288.638 246.107C288.843 246.119 289.043 246.171 289.228 246.26C289.413 246.349 289.578 246.474 289.715 246.627C289.851 246.78 289.956 246.959 290.023 247.152C290.091 247.346 290.119 247.551 290.107 247.755C290.095 247.96 290.043 248.16 289.954 248.345C289.864 248.529 289.739 248.694 289.586 248.831C289.433 248.967 289.254 249.072 289.06 249.139C288.866 249.207 288.661 249.235 288.456 249.223C287.807 249.178 287.151 249.148 286.503 249.173C286.178 249.182 285.855 249.202 285.529 249.219L285.573 249.209L285.273 249.234L284.825 249.284C283.56 249.442 282.31 249.709 281.09 250.083L280.662 250.221C280.6 250.234 280.116 250.408 280.415 250.298C280.135 250.401 279.854 250.511 279.577 250.627C278.976 250.873 278.386 251.147 277.806 251.448C277.231 251.749 276.67 252.078 276.12 252.43L275.747 252.676C275.337 252.952 275.983 252.501 275.586 252.788C275.3 252.995 275.022 253.207 274.749 253.425C274.105 253.917 273.097 254.002 272.54 253.323C272.028 252.723 271.96 251.674 272.641 251.121L272.635 251.126Z" fill="#080806"/>
<path d="M234.525 236.371L234.488 236.447L234.66 236.087C234.585 236.253 234.529 236.427 234.494 236.605L234.572 236.209C234.534 236.416 234.523 236.627 234.539 236.836L234.507 236.418C234.527 236.628 234.571 236.835 234.639 237.035L234.498 236.643C234.568 236.841 234.663 237.029 234.781 237.203L234.547 236.874C234.661 237.034 234.793 237.179 234.942 237.307L234.638 237.049L234.703 237.103C234.878 237.205 235.023 237.351 235.124 237.527C235.258 237.687 235.347 237.879 235.382 238.085C235.466 238.489 235.388 238.911 235.164 239.259C235.053 239.431 234.909 239.579 234.74 239.696C234.571 239.812 234.381 239.894 234.18 239.937C233.98 239.982 233.772 239.986 233.57 239.949C233.368 239.912 233.176 239.834 233.005 239.721C232.583 239.402 232.225 239.008 231.949 238.557C231.531 237.841 231.348 237.012 231.425 236.187C231.452 235.92 231.504 235.656 231.579 235.399C231.666 235.146 231.774 234.901 231.902 234.667C232.128 234.321 232.482 234.078 232.887 233.992C233.292 233.909 233.712 233.985 234.062 234.205C234.409 234.431 234.653 234.785 234.741 235.19L234.773 235.606C234.76 235.877 234.674 236.14 234.524 236.368L234.525 236.371Z" fill="#080806"/>
<path d="M238.457 232.974C239.496 234.229 240.61 235.42 241.795 236.539L242.207 236.923L242.44 237.132C242.479 237.166 242.706 237.365 242.523 237.206C242.34 237.047 242.6 237.264 242.617 237.278C242.634 237.292 242.757 237.386 242.829 237.438C242.961 237.535 243.099 237.624 243.241 237.705C243.318 237.752 243.397 237.788 243.471 237.836C243.633 237.929 243.174 237.726 243.439 237.818C243.601 237.858 243.76 237.908 243.915 237.968C243.847 237.933 243.598 237.933 243.806 237.939C243.857 237.928 244.157 237.92 243.884 237.957C243.612 237.994 243.905 237.953 243.962 237.94C244.255 237.913 243.639 238.088 243.938 237.946C244.684 237.612 245.685 237.81 246.047 238.608C246.384 239.337 246.179 240.352 245.379 240.711C243.314 241.632 241.452 240.434 239.956 239.067C238.599 237.826 237.33 236.492 236.158 235.075C235.886 234.769 235.745 234.367 235.767 233.958C235.789 233.548 235.971 233.164 236.275 232.887C236.578 232.611 236.979 232.465 237.389 232.48C237.799 232.496 238.187 232.673 238.468 232.972L238.457 232.974Z" fill="#080806"/>
<path d="M249.482 237.93C249.668 238.337 249.87 238.733 250.092 239.122C250.201 239.315 250.316 239.506 250.434 239.694L250.655 240.029C250.739 240.157 250.737 240.147 250.655 240.029C251.189 240.772 251.788 241.466 252.445 242.103C252.606 242.26 252.77 242.41 252.936 242.558C252.985 242.601 253.226 242.801 252.985 242.605C253.072 242.678 253.158 242.749 253.248 242.818C253.595 243.098 253.963 243.374 254.331 243.6C254.699 243.826 255.086 244.077 255.483 244.286L255.778 244.439C256.035 244.576 255.674 244.398 255.839 244.473C256.004 244.547 256.286 244.671 256.515 244.764C257.271 245.074 257.824 245.902 257.509 246.735C257.228 247.48 256.341 248.049 255.538 247.731C251.648 246.16 248.496 243.18 246.711 239.387C246.527 239.019 246.493 238.593 246.617 238.2C246.741 237.807 247.013 237.478 247.376 237.281C248.112 236.939 249.124 237.152 249.485 237.943L249.482 237.93Z" fill="#080806"/>
<path d="M227.019 235.247C226.752 237.261 226.018 239.185 224.876 240.867C224.644 241.199 224.293 241.428 223.895 241.505C223.498 241.583 223.086 241.504 222.746 241.284C222.406 241.064 222.165 240.722 222.074 240.328C221.982 239.934 222.047 239.52 222.256 239.173C222.588 238.691 222.883 238.185 223.139 237.658L222.964 238.018C223.385 237.137 223.693 236.207 223.88 235.248L223.806 235.647C223.84 235.456 223.876 235.278 223.898 235.067C223.933 234.664 224.114 234.287 224.407 234.008C224.72 233.726 225.131 233.58 225.552 233.6C226.336 233.681 227.14 234.384 227.02 235.25L227.019 235.247Z" fill="#080806"/>
<path d="M220.044 237.051C218.258 239.705 216.219 242.18 213.954 244.441C213.646 244.717 213.242 244.861 212.829 244.842C212.415 244.823 212.026 244.642 211.745 244.339C211.475 244.03 211.335 243.628 211.355 243.217C211.374 242.807 211.551 242.42 211.849 242.137C212.376 241.609 212.89 241.074 213.39 240.524C213.643 240.246 213.889 239.97 214.135 239.691L214.347 239.44C214.447 239.326 214.435 239.336 214.347 239.44C214.471 239.289 214.6 239.141 214.727 239.004C215.684 237.837 216.584 236.626 217.426 235.37C217.651 235.023 218.005 234.779 218.41 234.692C218.816 234.605 219.239 234.682 219.587 234.906C219.935 235.131 220.179 235.484 220.266 235.889C220.353 236.294 220.275 236.716 220.05 237.064L220.044 237.051Z" fill="#080806"/>
<path d="M209.033 239.843C208.236 242.661 207.627 246.17 204.786 247.682C204.418 247.873 203.99 247.911 203.595 247.786C203.199 247.661 202.87 247.385 202.679 247.018C202.488 246.651 202.451 246.223 202.576 245.828C202.701 245.433 202.977 245.104 203.345 244.913L203.535 244.805C203.752 244.674 203.535 244.805 203.457 244.871C203.565 244.777 203.683 244.699 203.79 244.602C203.897 244.504 203.992 244.402 204.081 244.302C204.295 244.075 203.857 244.598 204.044 244.345L204.146 244.206C204.316 243.97 204.468 243.72 204.601 243.46C204.652 243.368 204.756 243.073 204.588 243.502C204.609 243.448 204.636 243.393 204.66 243.341C204.727 243.189 204.791 243.037 204.85 242.882C205.353 241.583 205.676 240.206 206.051 238.871C206.184 238.479 206.465 238.155 206.834 237.969C207.204 237.782 207.631 237.748 208.026 237.874C208.414 238.011 208.734 238.293 208.92 238.66C209.105 239.027 209.142 239.451 209.022 239.845L209.033 239.843Z" fill="#080806"/>
<path d="M198.039 246.52C197.766 246.819 198.185 246.272 197.97 246.609C197.914 246.699 197.851 246.787 197.799 246.876C197.747 246.965 197.593 247.274 197.678 247.086C197.762 246.898 197.625 247.222 197.611 247.256C197.443 247.704 197.31 248.164 197.213 248.632C197.001 249.603 196.848 250.579 196.543 251.527C195.839 253.654 194.671 255.599 193.123 257.222C192.816 257.499 192.411 257.644 191.998 257.625C191.584 257.606 191.194 257.425 190.914 257.12C190.645 256.81 190.506 256.408 190.525 255.998C190.544 255.588 190.721 255.201 191.018 254.917L191.306 254.604C191.496 254.393 191.26 254.671 191.366 254.534C191.526 254.334 191.688 254.132 191.839 253.923C192.144 253.507 192.423 253.073 192.676 252.623C192.746 252.502 192.815 252.377 192.878 252.254L192.981 252.055C192.9 252.224 193.058 251.886 193.073 251.854C193.13 251.725 193.184 251.596 193.238 251.464C193.433 250.986 193.6 250.497 193.738 250C193.998 249.058 194.119 248.081 194.368 247.135C194.639 246.043 195.178 245.036 195.935 244.204C196.487 243.597 197.635 243.699 198.14 244.303C198.41 244.613 198.55 245.015 198.532 245.426C198.513 245.836 198.337 246.224 198.04 246.509L198.039 246.52Z" fill="#080806"/>
<path d="M187.368 253.872C185.98 255.672 184.684 257.539 183.481 259.472C183.249 259.804 182.897 260.032 182.5 260.11C182.102 260.188 181.69 260.109 181.351 259.889C181.011 259.669 180.77 259.326 180.678 258.933C180.587 258.539 180.652 258.125 180.86 257.778C182.064 255.847 183.359 253.979 184.746 252.175C184.98 251.835 185.33 251.594 185.73 251.496C186.136 251.412 186.558 251.49 186.906 251.713C187.551 252.17 187.902 253.18 187.368 253.872Z" fill="#080806"/>
<path d="M90.9421 195.486C92.0046 197.631 92.6653 199.989 93.3054 202.284C94.0747 205.034 94.7674 207.807 95.5401 210.556C95.9334 211.947 96.3438 213.334 96.784 214.711C96.8939 215.042 97.0001 215.357 97.1153 215.679C97.139 215.765 97.1676 215.849 97.201 215.93C97.0334 215.612 97.1296 215.729 97.18 215.832C97.2507 216.03 97.3247 216.227 97.3981 216.42C97.6259 217.02 97.8639 217.618 98.1343 218.202C98.6073 219.309 99.1724 220.374 99.8239 221.386C99.8615 221.445 99.9017 221.5 99.9393 221.56C100.076 221.768 99.8574 221.443 99.8477 221.43C99.9361 221.529 100.009 221.655 100.088 221.758C100.242 221.963 100.406 222.165 100.573 222.364C100.74 222.562 100.892 222.71 101.062 222.873L101.296 223.088C101.496 223.276 101.022 222.885 101.179 222.989C101.246 223.035 101.307 223.09 101.371 223.14C104.589 225.568 108.475 227.647 109.961 231.658C110.23 232.381 110.155 233.428 109.297 233.764C106.206 234.983 102.811 235.208 99.5871 234.406L101.604 232.595L102.621 238.859C102.797 239.948 101.765 241.133 100.603 240.666L96.8432 239.158C96.7001 239.104 96.5457 239.063 96.4107 238.996L96.2705 238.955C96.4082 238.999 96.5555 239.003 96.6955 238.967C96.8355 238.931 96.9623 238.855 97.0613 238.75L97.169 238.607C97.079 238.75 97.0821 238.731 97.1751 238.552C97.1382 238.645 97.1081 238.737 97.0787 238.832C96.8942 239.463 96.7514 240.107 96.5894 240.744C95.9154 243.37 95.2425 245.996 94.5707 248.621C94.2422 249.908 92.2472 250.044 91.6985 248.857C91.6512 248.782 91.6117 248.702 91.5803 248.619C91.5484 248.47 91.7833 248.838 91.6038 248.646C91.5384 248.588 91.4783 248.523 91.4242 248.454C91.3353 248.321 91.7093 248.641 91.4496 248.474C91.3912 248.433 91.3362 248.392 91.2751 248.355C91.214 248.318 90.9542 248.183 91.1762 248.291C91.3983 248.4 91.1112 248.27 91.0613 248.252C91.0113 248.234 90.8857 248.211 90.8069 248.175C90.646 248.103 91.1683 248.204 90.8341 248.169L90.6241 248.15C90.5351 248.155 90.446 248.154 90.3571 248.147C90.1818 248.124 90.6967 248.075 90.4083 248.154C90.3238 248.179 90.2375 248.198 90.1502 248.209C89.9863 248.223 90.4709 248.048 90.2011 248.198C90.1403 248.229 90.0767 248.264 90.0117 248.292C89.6873 248.436 90.2657 248.085 90.0117 248.292C89.806 248.471 89.5576 248.594 89.2905 248.649C89.0234 248.704 88.7466 248.689 88.487 248.606C88.2273 248.523 87.9937 248.374 87.8086 248.174C87.6235 247.974 87.4934 247.73 87.4307 247.465L82.9677 230.055C82.3357 227.598 81.7377 225.134 80.9747 222.713C80.7993 222.158 80.6136 221.606 80.4219 221.058C80.5146 221.326 80.4219 221.058 80.3973 220.943C80.3726 220.828 80.3014 220.694 80.2569 220.569C80.1448 220.277 80.03 219.99 79.9112 219.7C79.4772 218.646 78.9789 217.619 78.4191 216.626C78.2561 216.345 78.0904 216.069 77.9179 215.794C77.8373 215.666 77.7539 215.542 77.6706 215.418L77.5616 215.257C77.4344 215.061 77.7113 215.459 77.5652 215.274C77.1991 214.774 76.8216 214.288 76.4096 213.823C75.9827 213.349 75.5308 212.899 75.0559 212.474C75.2806 212.678 75.0001 212.429 74.9182 212.362L74.5605 212.084C74.2812 211.874 73.9947 211.68 73.6987 211.492C73.5266 211.38 73.3781 211.236 73.2619 211.067C73.1456 210.898 73.0638 210.708 73.0211 210.508C72.9784 210.308 72.9756 210.101 73.013 209.899C73.0503 209.698 73.1271 209.505 73.2388 209.333C73.3506 209.162 73.4951 209.013 73.6642 208.897C73.8333 208.781 74.0237 208.699 74.2244 208.656C74.4252 208.613 74.6323 208.611 74.8341 208.648C75.0359 208.685 75.2284 208.761 75.4005 208.873C79.6584 211.596 82.0249 216.135 83.6286 220.777C84.4368 223.11 85.0448 225.505 85.6589 227.894L87.9037 236.728L90.4902 246.81L87.9058 245.984C88.4311 245.563 89.0477 245.27 89.7063 245.13C90.3648 244.989 91.0472 245.003 91.6988 245.173C92.3021 245.315 92.866 245.589 93.3494 245.977C93.8328 246.364 94.2235 246.854 94.4929 247.411L91.6234 247.642C92.3657 244.683 93.1101 241.721 93.8564 238.759C94.0262 238.091 94.1591 237.368 94.6008 236.827C94.9204 236.419 95.3607 236.123 95.8588 235.98C96.3569 235.837 96.8874 235.855 97.3745 236.031C98.0548 236.24 98.7162 236.56 99.3727 236.823L101.567 237.701L99.5501 239.512L98.5334 233.248C98.4828 232.981 98.5022 232.705 98.5896 232.447C98.677 232.19 98.8295 231.959 99.0324 231.777C99.2352 231.595 99.4816 231.469 99.7476 231.41C100.014 231.351 100.29 231.362 100.551 231.441L101.141 231.577C100.884 231.522 101.292 231.602 101.34 231.609C101.706 231.662 102.043 231.71 102.397 231.738C103.053 231.791 103.712 231.799 104.37 231.762C104.861 231.735 104.065 231.799 104.557 231.743L105.084 231.681C105.408 231.636 105.733 231.577 106.055 231.508C106.378 231.439 106.734 231.363 107.086 231.249L107.519 231.113C107.701 231.05 107.711 231.048 107.556 231.105L107.839 230.999L107.174 233.102C107.021 232.685 106.837 232.279 106.623 231.89C106.538 231.738 106.446 231.574 106.353 231.437C106.342 231.39 106.078 231.032 106.291 231.334C106.215 231.226 106.136 231.122 106.059 231.029C105.521 230.348 104.919 229.719 104.262 229.151C104.205 229.1 103.978 228.903 104.208 229.099L103.997 228.924C103.82 228.778 103.642 228.645 103.461 228.496C103.097 228.22 102.729 227.944 102.354 227.67C101.605 227.121 100.851 226.619 100.102 226.088C98.1146 224.684 96.7875 222.713 95.7471 220.538C94.5687 217.944 93.6024 215.259 92.8578 212.509C92.0332 209.701 91.3234 206.864 90.5565 204.042C90.176 202.645 89.7853 201.251 89.3349 199.876C89.2398 199.58 89.1386 199.29 89.0367 198.996C88.9349 198.703 89.1092 199.069 89.0621 199.115C89.0409 199.033 89.0121 198.954 88.976 198.878C88.9251 198.74 88.8736 198.599 88.8193 198.461C88.6157 197.941 88.4 197.431 88.1382 196.937C87.9467 196.57 87.909 196.142 88.0337 195.747C88.1583 195.352 88.4349 195.022 88.8027 194.831C89.1704 194.639 89.5992 194.602 89.9947 194.726C90.3902 194.85 90.72 195.126 90.9116 195.493L90.9421 195.486Z" fill="#080806"/>
<ellipse rx="45.5" ry="95" transform="matrix(-0.977877 0.209181 0.209181 0.977877 345.735 218.35)" fill="#D9D9D9"/>
</g>
<defs>
<clipPath id="clip0_30_255">
<rect width="258.323" height="336" fill="white" transform="matrix(-0.977877 0.209181 0.209181 0.977877 252.608 0)"/>
</clipPath>
</defs>
</svg>
