<svg width="112" height="93" viewBox="0 0 112 93" fill="none" xmlns="http://www.w3.org/2000/svg">
<path d="M53 92.775C52.3 92.775 51.5417 92.6583 50.725 92.425C49.9083 92.1916 49.0917 91.8416 48.275 91.375L17.3 74.575C15.9 73.7583 14.7625 72.6208 13.8875 71.1625C13.0125 69.7041 12.575 68.0416 12.575 66.175V40.45L2.6 35.025C1.9 34.675 1.34583 34.1208 0.937495 33.3625C0.529162 32.6041 0.266661 31.8166 0.149994 31C0.149994 30.0666 0.38333 29.25 0.849997 28.55C1.31666 27.85 1.9 27.325 2.6 26.975L48.275 1.94997C49.0917 1.59997 49.8792 1.30831 50.6375 1.07497C51.3958 0.84164 52.1833 0.724976 53 0.724976C53.8167 0.724976 54.6042 0.84164 55.3625 1.07497C56.1208 1.30831 56.85 1.59997 57.55 1.94997L108.65 29.6C109.35 30.0666 109.933 30.6791 110.4 31.4375C110.867 32.1958 111.1 32.9833 111.1 33.8V70.2C111.1 70.7833 110.925 71.25 110.575 71.6C110.225 71.95 109.758 72.125 109.175 72.125C108.592 72.125 108.125 71.95 107.775 71.6C107.425 71.25 107.25 70.7833 107.25 70.2V33.275L93.425 40.45V66.175C93.425 68.0416 92.9875 69.7041 92.1125 71.1625C91.2375 72.6208 90.0417 73.7583 88.525 74.575L57.55 91.375C56.85 91.8416 56.0917 92.1916 55.275 92.425C54.4583 92.6583 53.7 92.775 53 92.775ZM50.9 57.075C51.6 57.5416 52.3 57.775 53 57.775C53.7 57.775 54.4583 57.5416 55.275 57.075L102.875 31L55.275 5.27497C54.4583 4.80831 53.7 4.57497 53 4.57497C52.3 4.57497 51.6 4.80831 50.9 5.27497L3.125 31L50.9 57.075ZM50.725 88.4C51.425 88.8667 52.1542 89.1 52.9125 89.1C53.6708 89.1 54.4583 88.8667 55.275 88.4L86.95 71.075C87.8833 70.6083 88.5542 69.9666 88.9625 69.15C89.3708 68.3333 89.575 67.3416 89.575 66.175V42.9L57.55 60.225C56.85 60.575 56.1208 60.8375 55.3625 61.0125C54.6042 61.1875 53.8167 61.275 53 61.275C52.1833 61.275 51.3958 61.1875 50.6375 61.0125C49.8792 60.8375 49.15 60.575 48.45 60.225L16.425 42.725V66.175C16.425 67.225 16.6292 68.1875 17.0375 69.0625C17.4458 69.9375 18.1167 70.6083 19.05 71.075L50.725 88.4Z" fill="#1C1A15"/>
</svg>
