<svg width="36" height="36" viewBox="0 0 36 36" fill="none" xmlns="http://www.w3.org/2000/svg">
<path d="M18 36C15.5 36 13.1583 35.525 10.975 34.575C8.79167 33.625 6.88333 32.3417 5.25 30.725C3.61667 29.1083 2.33333 27.2 1.4 25C0.466667 22.8 0 20.45 0 17.95C0 15.45 0.466667 13.1083 1.4 10.925C2.33333 8.74167 3.61667 6.84167 5.25 5.225C6.88333 3.60833 8.79167 2.33333 10.975 1.4C13.1583 0.466667 15.5 0 18 0C20.5 0 22.8417 0.466667 25.025 1.4C27.2083 2.33333 29.1167 3.60833 30.75 5.225C32.3833 6.84167 33.6667 8.74167 34.6 10.925C35.5333 13.1083 36 15.45 36 17.95C36 20.45 35.5333 22.8 34.6 25C33.6667 27.2 32.3833 29.1083 30.75 30.725C29.1167 32.3417 27.2083 33.625 25.025 34.575C22.8417 35.525 20.5 36 18 36ZM24.8 11.55H33.25C31.9833 8.71667 30.225 6.45 27.975 4.75C25.725 3.05 23.1 2 20.1 1.6C21.1333 2.9 22.0583 4.4 22.875 6.1C23.6917 7.8 24.3333 9.61667 24.8 11.55ZM12.8 11.55H23.3C22.7667 9.55 22.0583 7.70833 21.175 6.025C20.2917 4.34167 19.2333 2.81667 18 1.45C16.8 2.65 15.7917 4.04167 14.975 5.625C14.1583 7.20833 13.4333 9.18333 12.8 11.55ZM2.3 22.9H10.9C10.7333 21.9667 10.625 21.0917 10.575 20.275C10.525 19.4583 10.5 18.6833 10.5 17.95C10.5 17.15 10.5333 16.3583 10.6 15.575C10.6667 14.7917 10.7667 13.9667 10.9 13.1H2.3C2.03333 13.8333 1.84167 14.6083 1.725 15.425C1.60833 16.2417 1.55 17.0833 1.55 17.95C1.55 18.85 1.60833 19.7083 1.725 20.525C1.84167 21.3417 2.03333 22.1333 2.3 22.9ZM15.9 34.35C14.8667 33.1833 13.925 31.7167 13.075 29.95C12.225 28.1833 11.6 26.35 11.2 24.45H2.75C4.05 27.25 5.8 29.475 8 31.125C10.2 32.775 12.8333 33.85 15.9 34.35ZM2.75 11.55H11.2C11.6667 9.65 12.3 7.85833 13.1 6.175C13.9 4.49167 14.8167 2.98333 15.85 1.65C12.85 2.05 10.2333 3.09167 8 4.775C5.76667 6.45833 4.01667 8.71667 2.75 11.55ZM18 34.55C19.3333 33.0833 20.4083 31.55 21.225 29.95C22.0417 28.35 22.7167 26.5167 23.25 24.45H12.8C13.3333 26.6167 14.0083 28.4917 14.825 30.075C15.6417 31.6583 16.7 33.15 18 34.55ZM12.45 22.9H23.55C23.7167 21.9333 23.825 21.0667 23.875 20.3C23.925 19.5333 23.95 18.75 23.95 17.95C23.95 17.1833 23.925 16.425 23.875 15.675C23.825 14.925 23.7167 14.0667 23.55 13.1H12.45C12.2833 14.0667 12.175 14.925 12.125 15.675C12.075 16.425 12.05 17.1833 12.05 17.95C12.05 18.75 12.075 19.5333 12.125 20.3C12.175 21.0667 12.2833 21.9333 12.45 22.9ZM20.15 34.35C22.9833 33.9167 25.5583 32.8333 27.875 31.1C30.1917 29.3667 31.9833 27.15 33.25 24.45H24.85C24.2833 26.4167 23.5833 28.2667 22.75 30C21.9167 31.7333 21.05 33.1833 20.15 34.35ZM25.1 22.9H33.7C33.9667 22.1333 34.1583 21.3417 34.275 20.525C34.3917 19.7083 34.45 18.85 34.45 17.95C34.45 17.0833 34.3917 16.2417 34.275 15.425C34.1583 14.6083 33.9667 13.8333 33.7 13.1H25.15C25.2833 14.1333 25.375 15.0333 25.425 15.8C25.475 16.5667 25.5 17.2833 25.5 17.95C25.5 18.7167 25.4667 19.4917 25.4 20.275C25.3333 21.0583 25.2333 21.9333 25.1 22.9Z" fill="#1C1A15"/>
</svg>
