<svg width="40" height="29" viewBox="0 0 40 29" fill="none" xmlns="http://www.w3.org/2000/svg">
<path d="M23.75 9.95003V8.55002C24.85 8.01669 26.0083 7.60836 27.225 7.32503C28.4417 7.04169 29.7 6.90002 31 6.90002C31.7333 6.90002 32.4417 6.95002 33.125 7.05002C33.8083 7.15002 34.5167 7.28336 35.25 7.45003V8.80002C34.55 8.60002 33.8667 8.45836 33.2 8.37502C32.5333 8.29169 31.8 8.25002 31 8.25002C29.7 8.25002 28.4333 8.39169 27.2 8.67502C25.9667 8.95836 24.8167 9.38336 23.75 9.95003ZM23.75 20.9V19.4C24.7833 18.8667 25.9333 18.4584 27.2 18.175C28.4667 17.8917 29.7333 17.75 31 17.75C31.7333 17.75 32.4417 17.8 33.125 17.9C33.8083 18 34.5167 18.1334 35.25 18.3V19.65C34.55 19.45 33.8667 19.3084 33.2 19.225C32.5333 19.1417 31.8 19.1 31 19.1C29.7 19.1 28.4333 19.25 27.2 19.55C25.9667 19.85 24.8167 20.3 23.75 20.9ZM23.75 15.45V14C24.85 13.4334 26.0083 13.0167 27.225 12.75C28.4417 12.4834 29.7 12.35 31 12.35C31.7333 12.35 32.4417 12.4 33.125 12.5C33.8083 12.6 34.5167 12.7334 35.25 12.9V14.25C34.55 14.0167 33.8667 13.8584 33.2 13.775C32.5333 13.6917 31.8 13.65 31 13.65C29.7 13.65 28.4333 13.8084 27.2 14.125C25.9667 14.4417 24.8167 14.8834 23.75 15.45ZM8.7 23.55C10.5667 23.55 12.375 23.7667 14.125 24.2C15.875 24.6334 17.6 25.3167 19.3 26.25V5.90002C17.8 4.76669 16.125 3.90836 14.275 3.32502C12.425 2.74169 10.5667 2.45002 8.7 2.45002C7.46667 2.45002 6.39167 2.54169 5.475 2.72503C4.55833 2.90836 3.53333 3.18336 2.4 3.55002C2.06667 3.68336 1.84167 3.84169 1.725 4.02502C1.60833 4.20836 1.55 4.41669 1.55 4.65002V23.6C1.55 23.9334 1.675 24.1834 1.925 24.35C2.175 24.5167 2.45 24.55 2.75 24.45C3.45 24.15 4.30833 23.925 5.325 23.775C6.34167 23.625 7.46667 23.55 8.7 23.55ZM20.85 26.25C22.5167 25.3167 24.2083 24.6334 25.925 24.2C27.6417 23.7667 29.4333 23.55 31.3 23.55C32.5333 23.55 33.675 23.625 34.725 23.775C35.775 23.925 36.6167 24.1 37.25 24.3C37.55 24.4334 37.825 24.4167 38.075 24.25C38.325 24.0834 38.45 23.8167 38.45 23.45V4.65002C38.45 4.41669 38.3917 4.20836 38.275 4.02502C38.1583 3.84169 37.9333 3.68336 37.6 3.55002C36.5 3.15002 35.4833 2.86669 34.55 2.70002C33.6167 2.53336 32.5333 2.45002 31.3 2.45002C29.4333 2.45002 27.5917 2.74169 25.775 3.32502C23.9583 3.90836 22.3167 4.76669 20.85 5.90002V26.25ZM20.05 28.55C18.35 27.4167 16.5417 26.5584 14.625 25.975C12.7083 25.3917 10.7333 25.1 8.7 25.1C7.76667 25.1 6.84167 25.175 5.925 25.325C5.00833 25.475 4.08333 25.6834 3.15 25.95C2.38333 26.25 1.66667 26.15 1 25.65C0.333333 25.15 0 24.4667 0 23.6V4.70002C0 4.16669 0.141667 3.66669 0.425 3.20002C0.708333 2.73336 1.11667 2.40002 1.65 2.20002C2.75 1.76669 3.9 1.44169 5.1 1.22503C6.3 1.00836 7.5 0.900024 8.7 0.900024C10.7667 0.900024 12.7583 1.20002 14.675 1.80002C16.5917 2.40003 18.3833 3.28336 20.05 4.45002C21.7167 3.28336 23.5 2.40003 25.4 1.80002C27.3 1.20002 29.2667 0.900024 31.3 0.900024C32.5 0.900024 33.7 1.00836 34.9 1.22503C36.1 1.44169 37.25 1.76669 38.35 2.20002C38.8833 2.40002 39.2917 2.73336 39.575 3.20002C39.8583 3.66669 40 4.16669 40 4.70002V23.6C40 24.4667 39.6333 25.15 38.9 25.65C38.1667 26.15 37.4 26.2167 36.6 25.85C35.7333 25.6167 34.85 25.4334 33.95 25.3C33.05 25.1667 32.1667 25.1 31.3 25.1C29.2667 25.1 27.3 25.4 25.4 26C23.5 26.6 21.7167 27.45 20.05 28.55Z" fill="#1C1A15"/>
</svg>
