<svg width="336" height="36" viewBox="0 0 336 36" fill="none" xmlns="http://www.w3.org/2000/svg">
<path d="M3.368 35.744C3.272 34.976 3.16 33.88 3.032 32.456C2.904 31.016 2.76 29.376 2.6 27.536C2.44 25.68 2.272 23.744 2.096 21.728C1.936 19.696 1.776 17.696 1.616 15.728C1.456 13.76 1.312 11.944 1.184 10.28C1.072 8.616 0.968 7.216 0.872 6.08C0.792 4.928 0.736 4.176 0.704 3.824C1.296 3.744 2.08 3.656 3.056 3.56C4.048 3.464 5.096 3.384 6.2 3.32C7.32 3.24 8.352 3.2 9.296 3.2C12.224 3.2 14.688 3.544 16.688 4.232C18.688 4.92 20.296 5.952 21.512 7.328C22.728 8.688 23.6 10.4 24.128 12.464C24.672 14.528 24.944 16.936 24.944 19.688C24.944 22.872 24.528 25.496 23.696 27.56C22.864 29.624 21.568 31.248 19.808 32.432C18.064 33.616 15.832 34.456 13.112 34.952C10.392 35.448 7.144 35.712 3.368 35.744ZM9.632 28.808C11.776 28.712 13.472 28.328 14.72 27.656C15.968 26.968 16.848 25.992 17.36 24.728C17.888 23.464 18.152 21.904 18.152 20.048C18.152 18.048 17.904 16.216 17.408 14.552C16.912 12.872 16.08 11.528 14.912 10.52C13.76 9.512 12.184 9.008 10.184 9.008C9.864 9.008 9.52 9.016 9.152 9.032C8.8 9.032 8.472 9.048 8.168 9.08C8.312 11.048 8.464 13.184 8.624 15.488C8.784 17.776 8.952 20.072 9.128 22.376C9.304 24.664 9.472 26.808 9.632 28.808ZM37.7424 35.432C35.7584 35.432 33.9504 35.168 32.3184 34.64C30.6864 34.112 29.3824 33.248 28.4064 32.048C27.4464 30.832 26.9664 29.232 26.9664 27.248C26.9664 25.264 27.5184 23.664 28.6224 22.448C29.7424 21.216 31.2224 20.32 33.0624 19.76C34.9024 19.184 36.9184 18.896 39.1104 18.896C40.0064 18.896 40.8784 18.96 41.7264 19.088C42.5744 19.216 43.3184 19.376 43.9584 19.568C44.5984 19.744 45.0464 19.912 45.3024 20.072C45.2704 19.608 45.1824 19.128 45.0384 18.632C44.8944 18.136 44.6784 17.712 44.3904 17.36C43.8784 16.576 43.1504 15.92 42.2064 15.392C41.2784 14.864 40.0704 14.6 38.5824 14.6C37.0624 14.6 35.7424 14.936 34.6224 15.608C33.5024 16.28 32.6624 17.056 32.1024 17.936L26.8944 14.576C27.6144 13.552 28.5744 12.648 29.7744 11.864C30.9744 11.08 32.3424 10.472 33.8784 10.04C35.4144 9.592 37.0464 9.368 38.7744 9.368C41.5584 9.368 43.8304 9.848 45.5904 10.808C47.3504 11.768 48.6464 13.08 49.4784 14.744C49.8784 15.56 50.2064 16.456 50.4624 17.432C50.7184 18.408 50.8864 19.56 50.9664 20.888C51.0144 22.12 51.0544 23.232 51.0864 24.224C51.1184 25.216 51.1584 26.12 51.2064 26.936C51.2384 28.104 51.3744 28.864 51.6144 29.216C51.8704 29.552 52.2144 29.72 52.6464 29.72C53.1104 29.72 53.5104 29.568 53.8464 29.264C54.1824 28.96 54.3904 28.544 54.4704 28.016L56.8944 32.048C56.7504 32.992 56.2624 33.752 55.4304 34.328C54.5984 34.888 53.5824 35.168 52.3824 35.168C51.4704 35.168 50.6304 35.008 49.8624 34.688C49.0944 34.352 48.4624 33.92 47.9664 33.392C47.4864 32.848 47.2064 32.256 47.1264 31.616C46.8384 32.208 46.2704 32.8 45.4224 33.392C44.5744 33.984 43.5024 34.472 42.2064 34.856C40.9104 35.24 39.4224 35.432 37.7424 35.432ZM39.0864 30.416C39.9344 30.416 40.7904 30.288 41.6544 30.032C42.5184 29.776 43.3024 29.44 44.0064 29.024C44.7264 28.608 45.2944 28.176 45.7104 27.728C45.6784 27.056 45.6544 26.416 45.6384 25.808C45.6384 25.2 45.6464 24.664 45.6624 24.2C45.2784 24.056 44.5344 23.888 43.4304 23.696C42.3424 23.488 41.1664 23.384 39.9024 23.384C38.7824 23.384 37.7424 23.52 36.7824 23.792C35.8384 24.048 35.0704 24.44 34.4784 24.968C33.9024 25.48 33.6144 26.128 33.6144 26.912C33.6144 27.808 33.8384 28.512 34.2864 29.024C34.7504 29.536 35.3904 29.896 36.2064 30.104C37.0384 30.312 37.9984 30.416 39.0864 30.416ZM63.1565 35.312C62.7245 35.328 62.2045 35.328 61.5965 35.312C60.9885 35.312 60.3645 35.312 59.7245 35.312C59.1965 35.28 58.5885 35.248 57.9005 35.216C57.2285 35.2 56.7485 35.176 56.4605 35.144C56.6205 33.8 56.7485 32.304 56.8445 30.656C56.9565 28.992 57.0445 27.144 57.1085 25.112C57.1885 23.08 57.2445 20.832 57.2765 18.368C57.3085 15.888 57.3245 13.16 57.3245 10.184C57.8685 10.104 58.5085 10.048 59.2445 10.016C59.9805 9.968 60.7165 9.944 61.4525 9.944C61.9805 9.944 62.4845 9.96 62.9645 9.992C63.4605 10.008 63.8925 10.048 64.2605 10.112C64.2765 10.256 64.2845 10.552 64.2845 11C64.2845 11.448 64.2845 11.944 64.2845 12.488C64.2845 13.016 64.2765 13.488 64.2605 13.904C64.7405 13.296 65.4685 12.656 66.4445 11.984C67.4365 11.296 68.5725 10.72 69.8525 10.256C71.1485 9.792 72.4605 9.56 73.7885 9.56C76.2365 9.56 78.1005 10.048 79.3805 11.024C80.6765 12 81.5565 13.456 82.0205 15.392C82.5005 17.328 82.7405 19.744 82.7405 22.64C82.7405 23.696 82.7085 24.912 82.6445 26.288C82.5965 27.648 82.5085 29.088 82.3805 30.608C82.2685 32.112 82.1245 33.6 81.9485 35.072C81.6605 35.104 81.2045 35.128 80.5805 35.144C79.9725 35.176 79.3245 35.192 78.6365 35.192C77.9325 35.192 77.2525 35.176 76.5965 35.144C75.9565 35.128 75.4765 35.104 75.1565 35.072C75.3325 34.016 75.5165 32.8 75.7085 31.424C75.9165 30.032 76.0845 28.584 76.2125 27.08C76.3565 25.576 76.4285 24.136 76.4285 22.76C76.4285 21.32 76.3085 20.064 76.0685 18.992C75.8445 17.904 75.4125 17.064 74.7725 16.472C74.1325 15.864 73.1885 15.56 71.9405 15.56C70.8205 15.56 69.7645 15.752 68.7725 16.136C67.7805 16.52 66.8925 16.984 66.1085 17.528C65.3245 18.072 64.6685 18.584 64.1405 19.064C64.1085 21.656 64.0285 24.008 63.9005 26.12C63.7885 28.232 63.6605 30.064 63.5165 31.616C63.3885 33.168 63.2685 34.4 63.1565 35.312ZM93.3984 34.976C93.1424 34.992 92.6784 35.024 92.0064 35.072C91.3344 35.12 90.6384 35.144 89.9184 35.144C89.3424 35.144 88.7744 35.128 88.2144 35.096C87.6544 35.064 87.1104 35.016 86.5824 34.952C86.6624 34.536 86.7504 33.68 86.8464 32.384C86.9424 31.088 87.0384 29.56 87.1344 27.8C87.2464 26.04 87.3504 24.224 87.4464 22.352C87.5424 20.464 87.6144 18.704 87.6624 17.072C87.7264 15.424 87.7584 14.112 87.7584 13.136C88.0304 13.12 88.4384 13.096 88.9824 13.064C89.5264 13.032 90.1184 13.008 90.7584 12.992C91.3984 12.96 92.0064 12.936 92.5824 12.92C93.1584 12.904 93.6064 12.896 93.9264 12.896C94.0064 13.376 94.0624 14.128 94.0944 15.152C94.1424 16.176 94.1664 17.328 94.1664 18.608C94.1664 20.08 94.1424 21.656 94.0944 23.336C94.0624 25 94.0144 26.624 93.9504 28.208C93.8864 29.792 93.7984 31.192 93.6864 32.408C93.5904 33.608 93.4944 34.464 93.3984 34.976ZM91.1184 9.584C89.7904 9.584 88.6944 9.192 87.8304 8.408C86.9664 7.624 86.5344 6.608 86.5344 5.36C86.5344 4.48 86.7424 3.736 87.1584 3.128C87.5744 2.504 88.1184 2.032 88.7904 1.712C89.4624 1.376 90.1744 1.208 90.9264 1.208C92.1424 1.208 93.1344 1.616 93.9024 2.432C94.6864 3.232 95.0784 4.256 95.0784 5.504C95.0784 6.64 94.7024 7.608 93.9504 8.408C93.2144 9.192 92.2704 9.584 91.1184 9.584ZM121.402 30.344C121.002 30.856 120.466 31.392 119.794 31.952C119.138 32.496 118.346 33 117.418 33.464C116.49 33.912 115.418 34.28 114.202 34.568C112.986 34.856 111.626 35 110.122 35C107.706 35 105.57 34.528 103.714 33.584C101.874 32.64 100.434 31.256 99.3939 29.432C98.3699 27.592 97.8579 25.32 97.8579 22.616C97.8579 19.944 98.4019 17.624 99.4899 15.656C100.578 13.672 102.09 12.136 104.026 11.048C105.962 9.96 108.202 9.416 110.746 9.416C113.962 9.416 116.49 10.344 118.33 12.2C120.17 14.04 121.154 16.568 121.282 19.784C121.298 20.344 121.29 20.864 121.258 21.344C121.242 21.808 121.194 22.312 121.114 22.856C120.89 22.84 120.41 22.824 119.674 22.808C118.938 22.776 118.098 22.752 117.154 22.736C116.21 22.704 115.298 22.68 114.418 22.664C113.554 22.648 112.874 22.64 112.378 22.64C110.922 22.64 109.474 22.712 108.034 22.856C106.594 22.984 105.362 23.128 104.338 23.288C104.338 23.624 104.362 23.952 104.41 24.272C104.458 24.592 104.522 24.896 104.602 25.184C104.842 25.952 105.25 26.616 105.826 27.176C106.418 27.72 107.122 28.136 107.938 28.424C108.77 28.712 109.642 28.856 110.554 28.856C111.434 28.856 112.226 28.736 112.93 28.496C113.634 28.256 114.258 27.952 114.802 27.584C115.362 27.216 115.85 26.832 116.266 26.432C116.682 26.032 117.05 25.68 117.37 25.376C117.466 25.456 117.69 25.672 118.042 26.024C118.394 26.376 118.794 26.8 119.242 27.296C119.69 27.792 120.106 28.312 120.49 28.856C120.89 29.4 121.194 29.896 121.402 30.344ZM104.53 19.232C105.394 19.088 106.434 18.96 107.65 18.848C108.882 18.736 110.298 18.68 111.898 18.68C112.746 18.68 113.482 18.696 114.106 18.728C114.746 18.744 115.194 18.76 115.45 18.776C115.45 18.376 115.394 17.944 115.282 17.48C115.138 16.856 114.858 16.256 114.442 15.68C114.042 15.088 113.514 14.608 112.858 14.24C112.202 13.872 111.41 13.688 110.482 13.688C109.33 13.688 108.314 13.936 107.434 14.432C106.554 14.912 105.858 15.576 105.346 16.424C104.85 17.256 104.578 18.192 104.53 19.232ZM135.906 33.728C135.49 34.224 134.714 34.712 133.578 35.192C132.442 35.688 131.154 35.936 129.714 35.936C127.794 35.936 126.346 35.472 125.37 34.544C124.41 33.6 123.762 32.288 123.426 30.608C123.106 28.928 122.946 26.976 122.946 24.752C122.946 23.136 122.962 21.464 122.994 19.736C123.026 17.992 123.066 16.248 123.114 14.504C123.178 12.76 123.242 11.064 123.306 9.416C123.37 7.752 123.434 6.184 123.498 4.712C123.578 3.224 123.65 1.888 123.714 0.704C124.722 0.624 125.65 0.584 126.498 0.584C127.058 0.584 127.61 0.599999 128.154 0.631999C128.698 0.663999 129.282 0.711998 129.906 0.775997C129.826 2.088 129.738 3.576 129.642 5.24C129.562 6.888 129.474 8.592 129.378 10.352C129.298 12.112 129.218 13.84 129.138 15.536C129.058 17.216 128.994 18.76 128.946 20.168C128.914 21.576 128.898 22.728 128.898 23.624C128.898 24.712 128.946 25.744 129.042 26.72C129.154 27.68 129.386 28.464 129.738 29.072C130.09 29.68 130.618 29.984 131.322 29.984C131.898 29.984 132.362 29.856 132.714 29.6C133.066 29.328 133.354 28.976 133.578 28.544C133.69 28.72 133.858 29.056 134.082 29.552C134.306 30.048 134.546 30.592 134.802 31.184C135.074 31.776 135.314 32.312 135.522 32.792C135.73 33.272 135.858 33.584 135.906 33.728ZM148.812 35.096C148.812 33.752 148.82 32.104 148.836 30.152C148.852 28.2 148.876 26.096 148.908 23.84C148.956 21.584 149.004 19.304 149.052 17C149.1 14.696 149.156 12.512 149.22 10.448C149.284 8.384 149.356 6.576 149.436 5.024C150.124 4.96 150.924 4.912 151.836 4.88C152.764 4.832 153.676 4.8 154.572 4.784C155.468 4.752 156.228 4.736 156.852 4.736C157.476 4.72 157.828 4.712 157.908 4.712C157.94 4.776 158.06 5.184 158.268 5.936C158.492 6.688 158.78 7.664 159.132 8.864C159.484 10.064 159.86 11.384 160.26 12.824C160.676 14.264 161.092 15.736 161.508 17.24C161.924 18.728 162.308 20.136 162.66 21.464C163.028 22.792 163.332 23.936 163.572 24.896C163.812 25.856 163.956 26.512 164.004 26.864L163.236 26.96C163.412 26.48 163.668 25.696 164.004 24.608C164.356 23.504 164.756 22.232 165.204 20.792C165.652 19.336 166.108 17.808 166.572 16.208C167.052 14.608 167.508 13.056 167.94 11.552C168.388 10.032 168.772 8.68 169.092 7.496C169.412 6.296 169.636 5.384 169.764 4.76C170.372 4.76 171.14 4.776 172.068 4.808C172.996 4.84 173.932 4.888 174.876 4.952C175.82 5 176.596 5.08 177.204 5.192C177.524 6.664 177.748 8.576 177.876 10.928C178.004 13.264 178.068 15.744 178.068 18.368C178.068 20.4 178.044 22.464 177.996 24.56C177.948 26.64 177.876 28.592 177.78 30.416C177.7 32.224 177.612 33.736 177.516 34.952C176.828 34.952 176.076 34.944 175.26 34.928C174.46 34.896 173.692 34.856 172.956 34.808C172.236 34.744 171.66 34.704 171.228 34.688C171.324 33.456 171.404 31.96 171.468 30.2C171.548 28.424 171.612 26.6 171.66 24.728C171.692 23.576 171.716 22.4 171.732 21.2C171.748 20 171.764 18.904 171.78 17.912C171.796 16.904 171.804 16.136 171.804 15.608C171.628 16.28 171.364 17.168 171.012 18.272C170.676 19.376 170.292 20.592 169.86 21.92C169.428 23.248 168.972 24.592 168.492 25.952C168.028 27.312 167.58 28.6 167.148 29.816C166.732 31.032 166.356 32.08 166.02 32.96C165.7 33.824 165.46 34.416 165.3 34.736C165.092 34.752 164.78 34.768 164.364 34.784C163.964 34.784 163.652 34.784 163.428 34.784C163.028 34.784 162.62 34.768 162.204 34.736C161.788 34.688 161.332 34.64 160.836 34.592C160.804 34.4 160.7 33.96 160.524 33.272C160.348 32.584 160.124 31.72 159.852 30.68C159.58 29.64 159.284 28.496 158.964 27.248C158.644 26 158.316 24.728 157.98 23.432C157.644 22.12 157.308 20.856 156.972 19.64C156.652 18.424 156.356 17.328 156.084 16.352C155.828 15.36 155.612 14.576 155.436 14C155.436 15.536 155.436 17.208 155.436 19.016C155.452 20.808 155.46 22.592 155.46 24.368C155.46 26.144 155.46 27.784 155.46 29.288C155.476 30.792 155.484 32.056 155.484 33.08C155.484 34.088 155.484 34.72 155.484 34.976C154.988 34.992 154.356 35.008 153.588 35.024C152.82 35.04 152.02 35.056 151.188 35.072C150.356 35.088 149.564 35.096 148.812 35.096ZM190.817 35.432C188.833 35.432 187.025 35.168 185.393 34.64C183.761 34.112 182.457 33.248 181.481 32.048C180.521 30.832 180.041 29.232 180.041 27.248C180.041 25.264 180.593 23.664 181.697 22.448C182.817 21.216 184.297 20.32 186.137 19.76C187.977 19.184 189.993 18.896 192.185 18.896C193.081 18.896 193.953 18.96 194.801 19.088C195.649 19.216 196.393 19.376 197.033 19.568C197.673 19.744 198.121 19.912 198.377 20.072C198.345 19.608 198.257 19.128 198.113 18.632C197.969 18.136 197.753 17.712 197.465 17.36C196.953 16.576 196.225 15.92 195.281 15.392C194.353 14.864 193.145 14.6 191.657 14.6C190.137 14.6 188.817 14.936 187.697 15.608C186.577 16.28 185.737 17.056 185.177 17.936L179.969 14.576C180.689 13.552 181.649 12.648 182.849 11.864C184.049 11.08 185.417 10.472 186.953 10.04C188.489 9.592 190.121 9.368 191.849 9.368C194.633 9.368 196.905 9.848 198.665 10.808C200.425 11.768 201.721 13.08 202.553 14.744C202.953 15.56 203.281 16.456 203.537 17.432C203.793 18.408 203.961 19.56 204.041 20.888C204.089 22.12 204.129 23.232 204.161 24.224C204.193 25.216 204.233 26.12 204.281 26.936C204.313 28.104 204.449 28.864 204.689 29.216C204.945 29.552 205.289 29.72 205.721 29.72C206.185 29.72 206.585 29.568 206.921 29.264C207.257 28.96 207.465 28.544 207.545 28.016L209.969 32.048C209.825 32.992 209.337 33.752 208.505 34.328C207.673 34.888 206.657 35.168 205.457 35.168C204.545 35.168 203.705 35.008 202.937 34.688C202.169 34.352 201.537 33.92 201.041 33.392C200.561 32.848 200.281 32.256 200.201 31.616C199.913 32.208 199.345 32.8 198.497 33.392C197.649 33.984 196.577 34.472 195.281 34.856C193.985 35.24 192.497 35.432 190.817 35.432ZM192.161 30.416C193.009 30.416 193.865 30.288 194.729 30.032C195.593 29.776 196.377 29.44 197.081 29.024C197.801 28.608 198.369 28.176 198.785 27.728C198.753 27.056 198.729 26.416 198.713 25.808C198.713 25.2 198.721 24.664 198.737 24.2C198.353 24.056 197.609 23.888 196.505 23.696C195.417 23.488 194.241 23.384 192.977 23.384C191.857 23.384 190.817 23.52 189.857 23.792C188.913 24.048 188.145 24.44 187.553 24.968C186.977 25.48 186.689 26.128 186.689 26.912C186.689 27.808 186.913 28.512 187.361 29.024C187.825 29.536 188.465 29.896 189.281 30.104C190.113 30.312 191.073 30.416 192.161 30.416ZM230.319 29.936C229.871 30.768 229.167 31.592 228.207 32.408C227.247 33.208 226.063 33.88 224.655 34.424C223.247 34.952 221.631 35.216 219.807 35.216C217.391 35.216 215.311 34.616 213.567 33.416C211.823 32.216 210.471 30.616 209.511 28.616C208.567 26.6 208.095 24.4 208.095 22.016C208.095 19.456 208.575 17.176 209.535 15.176C210.511 13.176 211.887 11.6 213.663 10.448C215.455 9.296 217.599 8.72 220.095 8.72C221.599 8.72 222.959 8.952 224.175 9.416C225.407 9.88 226.487 10.536 227.415 11.384C228.343 12.216 229.095 13.176 229.671 14.264L225.087 16.952C225.023 16.792 224.895 16.56 224.703 16.256C224.527 15.936 224.255 15.6 223.887 15.248C223.535 14.896 223.063 14.6 222.471 14.36C221.895 14.12 221.175 14 220.311 14C219.031 14 217.951 14.288 217.071 14.864C216.207 15.424 215.543 16.224 215.079 17.264C214.631 18.288 214.407 19.496 214.407 20.888C214.407 22.088 214.583 23.272 214.935 24.44C215.287 25.592 215.871 26.552 216.687 27.32C217.519 28.072 218.631 28.448 220.023 28.448C220.855 28.448 221.615 28.312 222.303 28.04C222.991 27.752 223.575 27.424 224.055 27.056C224.551 26.672 224.943 26.312 225.231 25.976C225.535 25.624 225.727 25.392 225.807 25.28L230.319 29.936ZM238.105 35.336C237.769 35.384 237.305 35.424 236.713 35.456C236.137 35.488 235.529 35.504 234.889 35.504C234.185 35.504 233.513 35.472 232.873 35.408C232.233 35.36 231.761 35.288 231.457 35.192C231.601 34.168 231.721 32.856 231.817 31.256C231.929 29.656 232.017 27.864 232.081 25.88C232.145 23.896 232.177 21.824 232.177 19.664C232.177 17.52 232.145 15.352 232.081 13.16C232.017 10.968 231.929 8.856 231.817 6.824C231.721 4.776 231.617 2.904 231.505 1.208C231.633 1.16 231.953 1.096 232.465 1.016C232.993 0.919999 233.593 0.823998 234.265 0.727998C234.953 0.631999 235.601 0.551999 236.209 0.487998C236.817 0.407998 237.281 0.367998 237.601 0.367998C237.841 1.568 238.049 3.024 238.225 4.736C238.417 6.448 238.569 8.32 238.681 10.352C238.809 12.368 238.897 14.456 238.945 16.616C239.489 15.992 240.185 15.416 241.033 14.888C241.897 14.344 242.841 13.912 243.865 13.592C244.889 13.272 245.913 13.112 246.937 13.112C248.825 13.112 250.281 13.496 251.305 14.264C252.345 15.032 253.073 16.128 253.489 17.552C253.905 18.976 254.113 20.688 254.113 22.688C254.113 23.952 254.065 25.32 253.969 26.792C253.873 28.248 253.745 29.696 253.585 31.136C253.425 32.56 253.257 33.856 253.081 35.024C252.585 35.088 252.065 35.136 251.521 35.168C250.993 35.216 250.465 35.24 249.937 35.24C249.361 35.24 248.785 35.216 248.209 35.168C247.649 35.12 247.145 35.048 246.697 34.952C246.809 34.216 246.929 33.368 247.057 32.408C247.185 31.432 247.305 30.432 247.417 29.408C247.529 28.368 247.617 27.368 247.681 26.408C247.761 25.448 247.801 24.608 247.801 23.888C247.801 22.848 247.705 21.952 247.513 21.2C247.321 20.448 246.993 19.872 246.529 19.472C246.081 19.056 245.449 18.848 244.633 18.848C243.945 18.848 243.289 18.984 242.665 19.256C242.057 19.528 241.497 19.864 240.985 20.264C240.489 20.648 240.057 21.032 239.689 21.416C239.337 21.8 239.081 22.112 238.921 22.352C238.921 24.048 238.881 25.744 238.801 27.44C238.721 29.136 238.617 30.68 238.489 32.072C238.377 33.464 238.249 34.552 238.105 35.336ZM266.258 35.432C264.274 35.432 262.466 35.168 260.834 34.64C259.202 34.112 257.898 33.248 256.922 32.048C255.962 30.832 255.482 29.232 255.482 27.248C255.482 25.264 256.034 23.664 257.138 22.448C258.258 21.216 259.738 20.32 261.578 19.76C263.418 19.184 265.434 18.896 267.626 18.896C268.522 18.896 269.394 18.96 270.242 19.088C271.09 19.216 271.834 19.376 272.474 19.568C273.114 19.744 273.562 19.912 273.818 20.072C273.786 19.608 273.698 19.128 273.554 18.632C273.41 18.136 273.194 17.712 272.906 17.36C272.394 16.576 271.666 15.92 270.722 15.392C269.794 14.864 268.586 14.6 267.098 14.6C265.578 14.6 264.258 14.936 263.138 15.608C262.018 16.28 261.178 17.056 260.618 17.936L255.41 14.576C256.13 13.552 257.09 12.648 258.29 11.864C259.49 11.08 260.858 10.472 262.394 10.04C263.93 9.592 265.562 9.368 267.29 9.368C270.074 9.368 272.346 9.848 274.106 10.808C275.866 11.768 277.162 13.08 277.994 14.744C278.394 15.56 278.722 16.456 278.978 17.432C279.234 18.408 279.402 19.56 279.482 20.888C279.53 22.12 279.57 23.232 279.602 24.224C279.634 25.216 279.674 26.12 279.722 26.936C279.754 28.104 279.89 28.864 280.13 29.216C280.386 29.552 280.73 29.72 281.162 29.72C281.626 29.72 282.026 29.568 282.362 29.264C282.698 28.96 282.906 28.544 282.986 28.016L285.41 32.048C285.266 32.992 284.778 33.752 283.946 34.328C283.114 34.888 282.098 35.168 280.898 35.168C279.986 35.168 279.146 35.008 278.378 34.688C277.61 34.352 276.978 33.92 276.482 33.392C276.002 32.848 275.722 32.256 275.642 31.616C275.354 32.208 274.786 32.8 273.938 33.392C273.09 33.984 272.018 34.472 270.722 34.856C269.426 35.24 267.938 35.432 266.258 35.432ZM267.602 30.416C268.45 30.416 269.306 30.288 270.17 30.032C271.034 29.776 271.818 29.44 272.522 29.024C273.242 28.608 273.81 28.176 274.226 27.728C274.194 27.056 274.17 26.416 274.154 25.808C274.154 25.2 274.162 24.664 274.178 24.2C273.794 24.056 273.05 23.888 271.946 23.696C270.858 23.488 269.682 23.384 268.418 23.384C267.298 23.384 266.258 23.52 265.298 23.792C264.354 24.048 263.586 24.44 262.994 24.968C262.418 25.48 262.13 26.128 262.13 26.912C262.13 27.808 262.354 28.512 262.802 29.024C263.266 29.536 263.906 29.896 264.722 30.104C265.554 30.312 266.514 30.416 267.602 30.416ZM301.992 34.928C301.976 34.688 301.96 34.336 301.944 33.872C301.928 33.408 301.912 32.944 301.896 32.48C301.896 32 301.896 31.632 301.896 31.376C301.736 31.616 301.456 31.936 301.056 32.336C300.656 32.736 300.12 33.136 299.448 33.536C298.792 33.936 297.984 34.28 297.024 34.568C296.064 34.84 294.936 34.976 293.64 34.976C291.592 34.976 289.824 34.496 288.336 33.536C286.864 32.56 285.736 31.232 284.952 29.552C284.168 27.872 283.776 25.96 283.776 23.816C283.776 21.736 284.168 19.8 284.952 18.008C285.752 16.216 286.944 14.768 288.528 13.664C290.128 12.544 292.128 11.984 294.528 11.984C295.808 11.984 296.96 12.128 297.984 12.416C299.024 12.704 299.896 13.056 300.6 13.472C301.32 13.888 301.824 14.296 302.112 14.696C302.16 13.864 302.216 12.896 302.28 11.792C302.36 10.688 302.448 9.536 302.544 8.336C302.64 7.136 302.728 5.992 302.808 4.904C302.904 3.816 302.992 2.88 303.072 2.096C303.152 1.296 303.208 0.751998 303.24 0.464C304.072 0.464 305 0.511999 306.024 0.607998C307.064 0.687998 307.976 0.831998 308.76 1.04C308.472 4.72 308.248 8.4 308.088 12.08C307.944 15.744 307.84 19.48 307.776 23.288C307.728 27.08 307.704 31.024 307.704 35.12C307.368 35.12 306.824 35.112 306.072 35.096C305.336 35.08 304.576 35.056 303.792 35.024C303.024 34.992 302.424 34.96 301.992 34.928ZM295.368 28.856C296.2 28.856 296.952 28.744 297.624 28.52C298.312 28.296 298.92 28.016 299.448 27.68C299.992 27.328 300.456 26.968 300.84 26.6C301.224 26.216 301.528 25.864 301.752 25.544C301.752 25.208 301.752 24.768 301.752 24.224C301.752 23.68 301.752 23.112 301.752 22.52C301.768 21.928 301.776 21.376 301.776 20.864C301.792 20.352 301.808 19.96 301.824 19.688C301.472 19.352 300.96 19.016 300.288 18.68C299.632 18.328 298.888 18.04 298.056 17.816C297.24 17.576 296.392 17.456 295.512 17.456C293.704 17.456 292.304 17.992 291.312 19.064C290.336 20.12 289.848 21.528 289.848 23.288C289.848 25.112 290.32 26.496 291.264 27.44C292.224 28.384 293.592 28.856 295.368 28.856ZM323.216 35.6C318.992 35.6 315.832 34.464 313.736 32.192C311.64 29.904 310.592 26.6 310.592 22.28C310.592 19.464 311.128 17.104 312.2 15.2C313.288 13.296 314.792 11.864 316.712 10.904C318.648 9.928 320.88 9.44 323.408 9.44C326.032 9.44 328.2 10.04 329.912 11.24C331.64 12.44 332.928 14.104 333.776 16.232C334.64 18.36 335.072 20.824 335.072 23.624C335.072 26.04 334.608 28.144 333.68 29.936C332.752 31.728 331.408 33.12 329.648 34.112C327.888 35.104 325.744 35.6 323.216 35.6ZM322.976 29.576C324 29.576 324.888 29.4 325.64 29.048C326.408 28.68 327.048 28.176 327.56 27.536C328.072 26.88 328.448 26.128 328.688 25.28C328.944 24.432 329.072 23.528 329.072 22.568C329.072 20.968 328.848 19.552 328.4 18.32C327.952 17.088 327.28 16.128 326.384 15.44C325.504 14.736 324.4 14.384 323.072 14.384C321.696 14.384 320.552 14.728 319.64 15.416C318.744 16.104 318.08 17.024 317.648 18.176C317.216 19.328 317 20.584 317 21.944C317 24.168 317.504 26 318.512 27.44C319.536 28.864 321.024 29.576 322.976 29.576Z" fill="#080806"/>
</svg>
